SplineFontDB: 3.0
FontName: Auvaiyar-Bold
FullName: Auvaiyar Bold
FamilyName: Auvaiyar
Weight: Bold
Copyright: Copyright (c) 1995-2015, NLCI (http://www.nlci.in/fonts/) Derived from TAM Auvaiyar Bold by ttfbuilder v0.33
Version: 1.0 Wed Feb 01 17:17:32 1995
ItalicAngle: 0
UnderlinePosition: -634.88
UnderlineWidth: 40.96
Ascent: 1638
Descent: 410
InvalidEm: 0
sfntRevision: 0x00010000
LayerCount: 2
Layer: 0 1 "Back" 1
Layer: 1 1 "Fore" 0
XUID: [1021 914 -1483923167 4085772]
StyleMap: 0x0020
FSType: 0
OS2Version: 1
OS2_WeightWidthSlopeOnly: 0
OS2_UseTypoMetrics: 0
CreationTime: 1522121140
ModificationTime: 1522121177
PfmFamily: 17
TTFWeight: 700
TTFWidth: 5
LineGap: 0
VLineGap: 0
Panose: 2 0 0 3 0 0 0 0 0 0
OS2TypoAscent: 1536
OS2TypoAOffset: 0
OS2TypoDescent: -674
OS2TypoDOffset: 0
OS2TypoLinegap: 0
OS2WinAscent: 1536
OS2WinAOffset: 0
OS2WinDescent: 674
OS2WinDOffset: 0
HheadAscent: 1536
HheadAOffset: 0
HheadDescent: -674
HheadDOffset: 0
OS2SubXSize: 1434
OS2SubYSize: 1331
OS2SubXOff: 0
OS2SubYOff: 293
OS2SupXSize: 1434
OS2SupYSize: 1331
OS2SupXOff: 0
OS2SupYOff: 928
OS2StrikeYSize: 102
OS2StrikeYPos: 530
OS2Vendor: 'Phsc'
OS2CodePages: 00000001.00000000
OS2UnicodeRanges: 80108003.02002000.00000000.00000000
Lookup: 260 0 0 "_holdAnchorsbase" { "_someAnchorsbase"  } []
DEI: 91125
ShortTable: maxp 16
  1
  0
  339
  223
  12
  347
  16
  1
  0
  0
  0
  0
  122
  0
  3
  2
EndShort

StartChar: .notdef
Encoding: 0 -1 0
Width: 1024
Flags: W
LayerCount: 2
Fore
SplineSet
63 0 m 1,0,-1
 63 1536 l 1,1,-1
 961 1536 l 1,2,-1
 961 0 l 1,3,-1
 63 0 l 1,0,-1
897 63 m 1,4,-1
 897 1473 l 1,5,-1
 127 1473 l 1,6,-1
 127 63 l 1,7,-1
 897 63 l 1,4,-1
EndSplineSet
EndChar

StartChar: exclam
Encoding: 4 33 4
Width: 696
Flags: W
LayerCount: 2
Fore
SplineSet
406 426 m 0,0,-1
 295 426 l 0,1,-1
 182 1241 l 0,2,3
 182 1284 182 1284 195.5 1315.5 c 0,4,5
 209 1347 209 1347 231.5 1367 c 0,6,7
 254 1387 254 1387 284.5 1397 c 0,8,9
 315 1407 315 1407 350 1407 c 0,10,11
 384 1407 384 1407 414.5 1397.5 c 0,12,13
 445 1388 445 1388 467.5 1368 c 0,14,15
 490 1348 490 1348 503 1316.5 c 0,16,17
 516 1285 516 1285 516 1241 c 0,18,-1
 406 426 l 0,0,-1
514 143 m 0,19,20
 514 108 514 108 500.5 77 c 0,21,22
 487 46 487 46 464.5 23.5 c 0,23,24
 442 1 442 1 412.5 -12 c 0,25,26
 383 -25 383 -25 350 -25 c 0,27,28
 325 -25 325 -25 296 -15.5 c 0,29,30
 267 -6 267 -6 242 14 c 0,31,32
 217 34 217 34 200.5 66 c 0,33,34
 184 98 184 98 184 143 c 0,35,36
 184 183 184 183 199 213.5 c 0,37,38
 214 244 214 244 238 264 c 0,39,40
 262 284 262 284 291.5 294.5 c 0,41,42
 321 305 321 305 350 305 c 0,43,44
 378 305 378 305 407.5 294 c 0,45,46
 437 283 437 283 460.5 262 c 0,47,48
 484 241 484 241 499 211 c 0,49,50
 514 181 514 181 514 143 c 0,19,20
EndSplineSet
EndChar

StartChar: quotedbl
Encoding: 5 34 5
Width: 803
Flags: W
LayerCount: 2
Fore
SplineSet
563 854 m 0,0,-1
 483 1333 l 0,1,2
 483 1390 483 1390 510.5 1426 c 0,3,4
 538 1462 538 1462 600 1462 c 0,5,6
 663 1462 663 1462 692 1426 c 0,7,8
 721 1390 721 1390 721 1333 c 0,9,-1
 639 854 l 0,10,-1
 563 854 l 0,0,-1
162 854 m 0,11,-1
 82 1333 l 0,12,13
 82 1390 82 1390 109.5 1426 c 0,14,15
 137 1462 137 1462 199 1462 c 0,16,17
 261 1462 261 1462 289 1426 c 0,18,19
 317 1390 317 1390 317 1333 c 0,20,-1
 238 854 l 0,21,-1
 162 854 l 0,11,-1
EndSplineSet
EndChar

StartChar: numbersign
Encoding: 6 35 6
Width: 1518
Flags: W
LayerCount: 2
Fore
SplineSet
1079 848 m 0,0,-1
 991 578 l 0,1,-1
 1309 578 l 0,2,-1
 1309 449 l 0,3,-1
 946 449 l 0,4,-1
 791 -49 l 0,5,-1
 649 -14 l 0,6,-1
 801 449 l 0,7,-1
 545 449 l 0,8,-1
 385 -49 l 0,9,-1
 248 -12 l 0,10,-1
 401 449 l 0,11,-1
 127 449 l 0,12,-1
 127 578 l 0,13,-1
 442 578 l 0,14,-1
 530 848 l 0,15,-1
 227 848 l 0,16,-1
 227 983 l 0,17,-1
 573 983 l 0,18,-1
 731 1454 l 0,19,-1
 868 1417 l 0,20,-1
 717 983 l 0,21,-1
 983 983 l 0,22,-1
 1135 1454 l 0,23,-1
 1276 1415 l 0,24,-1
 1122 983 l 0,25,-1
 1391 983 l 0,26,-1
 1391 848 l 0,27,-1
 1079 848 l 0,0,-1
678 848 m 0,28,-1
 588 578 l 0,29,-1
 842 578 l 0,30,-1
 936 848 l 0,31,-1
 678 848 l 0,28,-1
EndSplineSet
EndChar

StartChar: dollar
Encoding: 7 36 7
Width: 1202
Flags: W
LayerCount: 2
Fore
SplineSet
1094 420 m 0,0,1
 1094 332 1094 332 1061.5 261 c 0,2,3
 1029 190 1029 190 970 137 c 0,4,5
 911 84 911 84 829.5 50 c 0,6,7
 748 16 748 16 651 2 c 0,8,-1
 651 -209 l 0,9,-1
 530 -209 l 0,10,-1
 530 0 l 0,11,12
 459 3 459 3 386 12 c 0,13,14
 323 20 323 20 250 33 c 0,15,16
 177 46 177 46 111 68 c 0,17,-1
 111 422 l 0,18,-1
 256 422 l 0,19,-1
 299 182 l 0,20,21
 331 162 331 162 371 151 c 0,22,23
 411 140 411 140 446 135 c 0,24,25
 487 129 487 129 530 127 c 0,26,-1
 530 578 l 0,27,28
 492 589 492 589 447 604 c 0,29,30
 402 619 402 619 356.5 640 c 0,31,32
 311 661 311 661 269 690.5 c 0,33,34
 227 720 227 720 194.5 760.5 c 0,35,36
 162 801 162 801 142.5 854.5 c 0,37,38
 123 908 123 908 123 977 c 0,39,40
 123 1047 123 1047 140.5 1101 c 0,41,42
 158 1155 158 1155 186.5 1196 c 0,43,44
 215 1237 215 1237 251.5 1265.5 c 0,45,46
 288 1294 288 1294 326 1313 c 0,47,48
 416 1358 416 1358 530 1368 c 0,49,-1
 530 1520 l 0,50,-1
 651 1520 l 0,51,-1
 651 1368 l 0,52,53
 714 1368 714 1368 779.5 1358.5 c 0,54,55
 845 1349 845 1349 899 1338 c 0,56,57
 962 1325 962 1325 1022 1309 c 0,58,-1
 1022 967 l 0,59,-1
 881 967 l 0,60,-1
 842 1194 l 0,61,62
 840 1201 840 1201 814.5 1209.5 c 0,63,64
 789 1218 789 1218 756.5 1225.5 c 0,65,66
 724 1233 724 1233 693.5 1238 c 0,67,68
 663 1243 663 1243 651 1243 c 0,69,-1
 651 821 l 0,70,71
 685 812 685 812 731 798.5 c 0,72,73
 777 785 777 785 826 764.5 c 0,74,75
 875 744 875 744 923 714.5 c 0,76,77
 971 685 971 685 1009 643.5 c 0,78,79
 1047 602 1047 602 1070.5 547 c 0,80,81
 1094 492 1094 492 1094 420 c 0,0,1
530 1237 m 0,82,83
 489 1231 489 1231 456 1210 c 0,84,85
 428 1191 428 1191 405.5 1154 c 0,86,87
 383 1117 383 1117 383 1051 c 0,88,89
 383 988 383 988 405.5 949 c 0,90,91
 428 910 428 910 456 888 c 0,92,93
 489 862 489 862 530 850 c 0,94,-1
 530 1237 l 0,82,83
834 346 m 0,95,96
 834 397 834 397 815 432 c 0,97,98
 796 467 796 467 768.5 490 c 0,99,100
 741 513 741 513 709 526.5 c 0,101,102
 677 540 677 540 651 547 c 0,103,-1
 651 133 l 0,104,105
 702 140 702 140 742 165 c 0,106,107
 759 175 759 175 775.5 191 c 0,108,109
 792 207 792 207 805 228.5 c 0,110,111
 818 250 818 250 826 279 c 0,112,113
 834 308 834 308 834 346 c 0,95,96
EndSplineSet
EndChar

StartChar: percent
Encoding: 8 37 8
Width: 1831
Flags: W
LayerCount: 2
Fore
SplineSet
1772 395 m 0,0,1
 1772 295 1772 295 1749.5 216 c 0,2,3
 1727 137 1727 137 1683 81.5 c 0,4,5
 1639 26 1639 26 1573 -3.5 c 0,6,7
 1507 -33 1507 -33 1419 -33 c 0,8,9
 1332 -33 1332 -33 1266.5 -3.5 c 0,10,11
 1201 26 1201 26 1157.5 81.5 c 0,12,13
 1114 137 1114 137 1092.5 216 c 0,14,15
 1071 295 1071 295 1071 395 c 0,16,17
 1071 495 1071 495 1092.5 574.5 c 0,18,19
 1114 654 1114 654 1157.5 709 c 0,20,21
 1201 764 1201 764 1266.5 793.5 c 0,22,23
 1332 823 1332 823 1419 823 c 0,24,25
 1507 823 1507 823 1573 793.5 c 0,26,27
 1639 764 1639 764 1683 709 c 0,28,29
 1727 654 1727 654 1749.5 574.5 c 0,30,31
 1772 495 1772 495 1772 395 c 0,0,1
563 0 m 0,32,-1
 418 0 l 0,33,-1
 1268 1374 l 0,34,-1
 1415 1374 l 0,35,-1
 563 0 l 0,32,-1
762 979 m 0,36,37
 762 879 762 879 740 799.5 c 0,38,39
 718 720 718 720 674.5 664.5 c 0,40,41
 631 609 631 609 565 579 c 0,42,43
 499 549 499 549 412 549 c 0,44,45
 324 549 324 549 258 579 c 0,46,47
 192 609 192 609 147.5 664.5 c 0,48,49
 103 720 103 720 81 799.5 c 0,50,51
 59 879 59 879 59 979 c 0,52,53
 59 1079 59 1079 81 1158 c 0,54,55
 103 1237 103 1237 147.5 1292.5 c 0,56,57
 192 1348 192 1348 258 1377.5 c 0,58,59
 324 1407 324 1407 412 1407 c 0,60,61
 499 1407 499 1407 565 1377.5 c 0,62,63
 631 1348 631 1348 674.5 1292.5 c 0,64,65
 718 1237 718 1237 740 1158 c 0,66,67
 762 1079 762 1079 762 979 c 0,36,37
1548 395 m 0,68,69
 1548 489 1548 489 1538.5 553 c 0,70,71
 1529 617 1529 617 1512 655.5 c 0,72,73
 1495 694 1495 694 1471 710.5 c 0,74,75
 1447 727 1447 727 1419 727 c 0,76,77
 1392 727 1392 727 1366.5 710.5 c 0,78,79
 1341 694 1341 694 1322 655.5 c 0,80,81
 1303 617 1303 617 1291.5 553 c 0,82,83
 1280 489 1280 489 1280 395 c 0,84,85
 1280 300 1280 300 1291.5 236.5 c 0,86,87
 1303 173 1303 173 1322 134.5 c 0,88,89
 1341 96 1341 96 1366.5 79.5 c 0,90,91
 1392 63 1392 63 1419 63 c 0,92,93
 1447 63 1447 63 1471 79.5 c 0,94,95
 1495 96 1495 96 1512 134.5 c 0,96,97
 1529 173 1529 173 1538.5 236.5 c 0,98,99
 1548 300 1548 300 1548 395 c 0,68,69
541 979 m 0,100,101
 541 1073 541 1073 531 1137 c 0,102,103
 521 1201 521 1201 504 1239.5 c 0,104,105
 487 1278 487 1278 463 1294.5 c 0,106,107
 439 1311 439 1311 412 1311 c 0,108,109
 383 1311 383 1311 357 1294.5 c 0,110,111
 331 1278 331 1278 310.5 1239.5 c 0,112,113
 290 1201 290 1201 278 1137 c 0,114,115
 266 1073 266 1073 266 979 c 0,116,117
 266 884 266 884 278 820 c 0,118,119
 290 756 290 756 310.5 717 c 0,120,121
 331 678 331 678 357 661.5 c 0,122,123
 383 645 383 645 412 645 c 0,124,125
 439 645 439 645 463 661.5 c 0,126,127
 487 678 487 678 504 717 c 0,128,129
 521 756 521 756 531 820 c 0,130,131
 541 884 541 884 541 979 c 0,100,101
EndSplineSet
EndChar

StartChar: ampersand
Encoding: 9 38 9
Width: 1505
Flags: W
LayerCount: 2
Fore
SplineSet
772 1075 m 0,0,1
 772 1117 772 1117 761 1154 c 0,2,3
 750 1191 750 1191 729 1218.5 c 0,4,5
 708 1246 708 1246 678 1262 c 0,6,7
 648 1278 648 1278 610 1278 c 0,8,9
 575 1278 575 1278 545 1266 c 0,10,11
 515 1254 515 1254 493 1233 c 0,12,13
 471 1212 471 1212 458.5 1182.5 c 0,14,15
 446 1153 446 1153 446 1118 c 0,16,17
 446 1084 446 1084 456.5 1050.5 c 0,18,19
 467 1017 467 1017 490.5 981 c 0,20,21
 514 945 514 945 551 904 c 0,22,23
 588 863 588 863 641 815 c 0,24,25
 672 843 672 843 696.5 871 c 0,26,27
 721 899 721 899 738 929.5 c 0,28,29
 755 960 755 960 763.5 995.5 c 0,30,31
 772 1031 772 1031 772 1075 c 0,0,1
451 657 m 0,32,33
 423 638 423 638 402 612 c 0,34,35
 384 589 384 589 369 554 c 0,36,37
 354 519 354 519 354 471 c 0,38,39
 354 384 354 384 380.5 323 c 0,40,41
 407 262 407 262 450 224 c 0,42,43
 493 186 493 186 547 169 c 0,44,45
 601 152 601 152 655 152 c 0,46,47
 707 152 707 152 744.5 164.5 c 0,48,49
 782 177 782 177 807 192 c 0,50,51
 836 210 836 210 856 233 c 0,52,-1
 451 657 l 0,32,33
1026 0 m 0,53,-1
 1026 49 l 0,54,-1
 940 145 l 0,55,56
 892 97 892 97 829 60 c 0,57,58
 802 44 802 44 769 28.5 c 0,59,60
 736 13 736 13 697 1 c 0,61,62
 658 -11 658 -11 613.5 -18 c 0,63,64
 569 -25 569 -25 520 -25 c 0,65,66
 421 -25 421 -25 339.5 4 c 0,67,68
 258 33 258 33 200 85.5 c 0,69,70
 142 138 142 138 110 212 c 0,71,72
 78 286 78 286 78 377 c 0,73,74
 78 450 78 450 98.5 506 c 0,75,76
 119 562 119 562 157 605 c 0,77,78
 195 648 195 648 248 678 c 0,79,80
 301 708 301 708 365 729 c 0,81,82
 362 731 362 731 349 741 c 0,83,84
 334 752 334 752 313 771.5 c 0,85,86
 292 791 292 791 268 818.5 c 0,87,88
 244 846 244 846 223.5 881.5 c 0,89,90
 203 917 203 917 189.5 960 c 0,91,92
 176 1003 176 1003 176 1053 c 0,93,94
 176 1138 176 1138 211.5 1203 c 0,95,96
 247 1268 247 1268 307.5 1312 c 0,97,98
 368 1356 368 1356 449 1378.5 c 0,99,100
 530 1401 530 1401 621 1401 c 0,101,102
 661 1401 661 1401 706.5 1395 c 0,103,104
 752 1389 752 1389 797 1374 c 0,105,106
 842 1359 842 1359 883.5 1335 c 0,107,108
 925 1311 925 1311 956.5 1275.5 c 0,109,110
 988 1240 988 1240 1007 1191 c 0,111,112
 1026 1142 1026 1142 1026 1079 c 0,113,114
 1026 1010 1026 1010 1005 959 c 0,115,116
 984 908 984 908 952 870.5 c 0,117,118
 920 833 920 833 882 808.5 c 0,119,120
 844 784 844 784 810 769.5 c 0,121,122
 776 755 776 755 750.5 748.5 c 0,123,124
 725 742 725 742 719 741 c 0,125,-1
 1034 414 l 0,126,127
 1058 445 1058 445 1079 481 c 0,128,129
 1097 512 1097 512 1115 553.5 c 0,130,131
 1133 595 1133 595 1143 643 c 0,132,133
 1144 652 1144 652 1136 664 c 0,134,135
 1128 676 1128 676 1122 678 c 0,136,-1
 1016 696 l 0,137,-1
 1016 793 l 0,138,-1
 1446 793 l 0,139,-1
 1446 696 l 0,140,-1
 1305 668 l 0,141,142
 1280 587 1280 587 1247 524 c 0,143,144
 1214 461 1214 461 1185 417 c 0,145,146
 1150 366 1150 366 1114 328 c 0,147,-1
 1307 121 l 0,148,-1
 1473 104 l 0,149,-1
 1473 0 l 0,150,-1
 1026 0 l 0,53,-1
EndSplineSet
EndChar

StartChar: quotesingle
Encoding: 10 39 10
Width: 360
Flags: W
LayerCount: 2
Fore
SplineSet
143 854 m 0,0,-1
 63 1333 l 0,1,2
 63 1390 63 1390 90 1426 c 0,3,4
 117 1462 117 1462 180 1462 c 0,5,6
 242 1462 242 1462 270.5 1426 c 0,7,8
 299 1390 299 1390 299 1333 c 0,9,-1
 217 854 l 0,10,-1
 143 854 l 0,0,-1
EndSplineSet
EndChar

StartChar: parenleft
Encoding: 11 40 11
Width: 803
Flags: W
LayerCount: 2
Fore
SplineSet
733 -291 m 0,0,1
 582 -287 582 -287 467.5 -224 c 0,2,3
 353 -161 353 -161 276 -47 c 0,4,5
 199 67 199 67 160 228 c 0,6,7
 121 389 121 389 121 590 c 0,8,9
 121 790 121 790 160 950.5 c 0,10,11
 199 1111 199 1111 276 1224.5 c 0,12,13
 353 1338 353 1338 467.5 1400.5 c 0,14,15
 582 1463 582 1463 733 1468 c 0,16,-1
 733 1358 l 0,17,18
 625 1343 625 1343 556.5 1280.5 c 0,19,20
 488 1218 488 1218 449 1117 c 0,21,22
 410 1016 410 1016 395.5 881.5 c 0,23,24
 381 747 381 747 381 590 c 0,25,26
 381 432 381 432 395.5 297.5 c 0,27,28
 410 163 410 163 449 62 c 0,29,30
 488 -39 488 -39 556.5 -102 c 0,31,32
 625 -165 625 -165 733 -180 c 0,33,-1
 733 -291 l 0,0,1
EndSplineSet
EndChar

StartChar: parenright
Encoding: 12 41 12
Width: 803
Flags: W
LayerCount: 2
Fore
SplineSet
682 590 m 0,0,1
 682 389 682 389 643 228 c 0,2,3
 604 67 604 67 526.5 -47 c 0,4,5
 449 -161 449 -161 334.5 -224 c 0,6,7
 220 -287 220 -287 70 -291 c 0,8,-1
 70 -180 l 0,9,10
 177 -165 177 -165 245.5 -102 c 0,11,12
 314 -39 314 -39 353 62 c 0,13,14
 392 163 392 163 407 297.5 c 0,15,16
 422 432 422 432 422 590 c 0,17,18
 422 747 422 747 407 881.5 c 0,19,20
 392 1016 392 1016 353 1117 c 0,21,22
 314 1218 314 1218 245.5 1280.5 c 0,23,24
 177 1343 177 1343 70 1358 c 0,25,-1
 70 1468 l 0,26,27
 220 1463 220 1463 334.5 1400.5 c 0,28,29
 449 1338 449 1338 526.5 1224.5 c 0,30,31
 604 1111 604 1111 643 950.5 c 0,32,33
 682 790 682 790 682 590 c 0,0,1
EndSplineSet
EndChar

StartChar: asterisk
Encoding: 13 42 13
Width: 1024
Flags: W
LayerCount: 2
Fore
SplineSet
825 1036 m 0,0,-1
 561 1038 l 0,1,-1
 547 1069 l 0,2,-1
 764 1229 l 0,3,-1
 915 1169 l 0,4,-1
 825 1036 l 0,0,-1
528 1092 m 0,5,-1
 494 1092 l 0,6,-1
 410 1348 l 0,7,-1
 512 1470 l 0,8,-1
 614 1348 l 0,9,-1
 528 1092 l 0,5,-1
762 692 m 0,10,-1
 606 733 l 0,11,-1
 524 987 l 0,12,-1
 549 1012 l 0,13,-1
 768 852 l 0,14,-1
 762 692 l 0,10,-1
463 1038 m 0,15,-1
 197 1036 l 0,16,-1
 109 1169 l 0,17,-1
 256 1229 l 0,18,-1
 475 1067 l 0,19,-1
 463 1038 l 0,15,-1
418 733 m 0,20,-1
 262 692 l 0,21,-1
 256 852 l 0,22,-1
 475 1012 l 0,23,-1
 500 987 l 0,24,-1
 418 733 l 0,20,-1
EndSplineSet
EndChar

StartChar: plus
Encoding: 14 43 14
Width: 2048
Flags: W
LayerCount: 2
Fore
SplineSet
1087 551 m 0,0,-1
 1087 0 l 0,1,-1
 961 0 l 0,2,-1
 961 551 l 0,3,-1
 410 551 l 0,4,-1
 410 678 l 0,5,-1
 961 678 l 0,6,-1
 961 1229 l 0,7,-1
 1087 1229 l 0,8,-1
 1087 678 l 0,9,-1
 1638 678 l 0,10,-1
 1638 551 l 0,11,-1
 1087 551 l 0,0,-1
EndSplineSet
EndChar

StartChar: comma
Encoding: 15 44 15
Width: 651
Flags: W
LayerCount: 2
Fore
SplineSet
496 121 m 0,0,1
 496 57 496 57 478 -2 c 0,2,3
 460 -61 460 -61 429.5 -113.5 c 0,4,5
 399 -166 399 -166 357.5 -209.5 c 0,6,7
 316 -253 316 -253 269 -285.5 c 0,8,9
 222 -318 222 -318 171.5 -337.5 c 0,10,11
 121 -357 121 -357 72 -360 c 0,12,-1
 72 -260 l 0,13,14
 111 -254 111 -254 155.5 -237.5 c 0,15,16
 200 -221 200 -221 237 -189 c 0,17,18
 274 -157 274 -157 297 -107.5 c 0,19,20
 320 -58 320 -58 317 14 c 0,21,-1
 193 14 l 0,22,23
 174 29 174 29 162 45.5 c 0,24,25
 150 62 150 62 142.5 79 c 0,26,27
 135 96 135 96 132 113 c 0,28,29
 129 130 129 130 129 145 c 0,30,31
 129 184 129 184 143.5 215.5 c 0,32,33
 158 247 158 247 182 269.5 c 0,34,35
 206 292 206 292 237 304.5 c 0,36,37
 268 317 268 317 301 317 c 0,38,39
 394 317 394 317 445 264 c 0,40,41
 496 211 496 211 496 121 c 0,0,1
EndSplineSet
EndChar

StartChar: hyphen
Encoding: 16 45 16
Width: 672
Flags: W
LayerCount: 2
Fore
SplineSet
68 385 m 0,0,-1
 68 602 l 0,1,-1
 604 602 l 0,2,-1
 604 385 l 0,3,-1
 68 385 l 0,0,-1
EndSplineSet
EndChar

StartChar: period
Encoding: 17 46 17
Width: 651
Flags: W
LayerCount: 2
Fore
SplineSet
471 145 m 0,0,1
 471 110 471 110 458 79 c 0,2,3
 445 48 445 48 422 25 c 0,4,5
 399 2 399 2 368 -11.5 c 0,6,7
 337 -25 337 -25 301 -25 c 0,8,9
 266 -25 266 -25 234.5 -11.5 c 0,10,11
 203 2 203 2 179.5 25 c 0,12,13
 156 48 156 48 142.5 79 c 0,14,15
 129 110 129 110 129 145 c 0,16,17
 129 181 129 181 142.5 212 c 0,18,19
 156 243 156 243 179.5 266.5 c 0,20,21
 203 290 203 290 234.5 303.5 c 0,22,23
 266 317 266 317 301 317 c 0,24,25
 337 317 337 317 368 303.5 c 0,26,27
 399 290 399 290 422 266.5 c 0,28,29
 445 243 445 243 458 212 c 0,30,31
 471 181 471 181 471 145 c 0,0,1
EndSplineSet
EndChar

StartChar: slash
Encoding: 18 47 18
Width: 1026
Flags: W
LayerCount: 2
Fore
SplineSet
160 -190 m 0,0,-1
 0 -190 l 0,1,-1
 864 1374 l 0,2,-1
 1026 1374 l 0,3,-1
 160 -190 l 0,0,-1
EndSplineSet
EndChar

StartChar: zero
Encoding: 19 48 19
Width: 1202
Flags: W
LayerCount: 2
Fore
SplineSet
1130 686 m 0,0,1
 1130 542 1130 542 1099.5 412.5 c 0,2,3
 1069 283 1069 283 1004.5 186 c 0,4,5
 940 89 940 89 840 32 c 0,6,7
 740 -25 740 -25 600 -25 c 0,8,9
 461 -25 461 -25 361.5 32 c 0,10,11
 262 89 262 89 198 186 c 0,12,13
 134 283 134 283 104 412.5 c 0,14,15
 74 542 74 542 74 686 c 0,16,17
 74 830 74 830 104 959 c 0,18,19
 134 1088 134 1088 198 1186 c 0,20,21
 262 1284 262 1284 361.5 1341.5 c 0,22,23
 461 1399 461 1399 600 1399 c 0,24,25
 740 1399 740 1399 840 1341.5 c 0,26,27
 940 1284 940 1284 1004.5 1186 c 0,28,29
 1069 1088 1069 1088 1099.5 959 c 0,30,31
 1130 830 1130 830 1130 686 c 0,0,1
831 686 m 0,32,33
 831 730 831 730 829 791.5 c 0,34,35
 827 853 827 853 820 919 c 0,36,37
 813 985 813 985 798.5 1049.5 c 0,38,39
 784 1114 784 1114 758 1165.5 c 0,40,41
 732 1217 732 1217 693.5 1248.5 c 0,42,43
 655 1280 655 1280 600 1280 c 0,44,45
 545 1280 545 1280 507 1248.5 c 0,46,47
 469 1217 469 1217 444 1165.5 c 0,48,49
 419 1114 419 1114 404.5 1049.5 c 0,50,51
 390 985 390 985 383 919 c 0,52,53
 376 853 376 853 374.5 791.5 c 0,54,55
 373 730 373 730 373 686 c 0,56,57
 373 641 373 641 374.5 580 c 0,58,59
 376 519 376 519 383 453.5 c 0,60,61
 390 388 390 388 404.5 324 c 0,62,63
 419 260 419 260 444 209.5 c 0,64,65
 469 159 469 159 507 127.5 c 0,66,67
 545 96 545 96 600 96 c 0,68,69
 655 96 655 96 693.5 127.5 c 0,70,71
 732 159 732 159 758 209.5 c 0,72,73
 784 260 784 260 798.5 324 c 0,74,75
 813 388 813 388 820 453.5 c 0,76,77
 827 519 827 519 829 580 c 0,78,79
 831 641 831 641 831 686 c 0,32,33
EndSplineSet
EndChar

StartChar: one
Encoding: 20 49 20
Width: 1202
Flags: W
LayerCount: 2
Fore
SplineSet
236 0 m 0,0,-1
 236 106 l 0,1,-1
 412 113 l 0,2,3
 430 115 430 115 443.5 127 c 0,4,5
 457 139 457 139 457 158 c 0,6,-1
 457 1182 l 0,7,-1
 152 1139 l 0,8,-1
 152 1247 l 0,9,-1
 594 1407 l 0,10,-1
 745 1407 l 0,11,-1
 745 158 l 0,12,13
 745 139 745 139 758.5 127 c 0,14,15
 772 115 772 115 791 113 c 0,16,-1
 952 106 l 0,17,-1
 952 0 l 0,18,-1
 236 0 l 0,0,-1
EndSplineSet
EndChar

StartChar: two
Encoding: 21 50 21
Width: 1202
Flags: W
LayerCount: 2
Fore
SplineSet
88 0 m 0,0,-1
 88 170 l 0,1,2
 129 204 129 204 195.5 252.5 c 0,3,4
 262 301 262 301 337.5 361.5 c 0,5,6
 413 422 413 422 489.5 493 c 0,7,8
 566 564 566 564 628 643 c 0,9,10
 690 722 690 722 729 807.5 c 0,11,12
 768 893 768 893 768 983 c 0,13,14
 768 1044 768 1044 750 1096.5 c 0,15,16
 732 1149 732 1149 699 1187.5 c 0,17,18
 666 1226 666 1226 619 1248 c 0,19,20
 572 1270 572 1270 514 1270 c 0,21,22
 493 1270 493 1270 478.5 1267.5 c 0,23,24
 464 1265 464 1265 451.5 1261.5 c 0,25,26
 439 1258 439 1258 426.5 1253 c 0,27,28
 414 1248 414 1248 397 1243 c 0,29,-1
 397 967 l 0,30,31
 375 956 375 956 352 947 c 0,32,33
 332 939 332 939 307.5 933.5 c 0,34,35
 283 928 283 928 258 928 c 0,36,37
 183 928 183 928 143.5 969.5 c 0,38,39
 104 1011 104 1011 104 1079 c 0,40,41
 104 1143 104 1143 128.5 1192.5 c 0,42,43
 153 1242 153 1242 194 1278.5 c 0,44,45
 235 1315 235 1315 287.5 1339.5 c 0,46,47
 340 1364 340 1364 395.5 1379 c 0,48,49
 451 1394 451 1394 505.5 1400.5 c 0,50,51
 560 1407 560 1407 604 1407 c 0,52,53
 701 1407 701 1407 786 1378 c 0,54,55
 871 1349 871 1349 934 1296 c 0,56,57
 997 1243 997 1243 1033 1168 c 0,58,59
 1069 1093 1069 1093 1069 1001 c 0,60,61
 1069 891 1069 891 1015.5 793 c 0,62,63
 962 695 962 695 867 601 c 0,64,65
 772 507 772 507 642 414 c 0,66,67
 512 321 512 321 360 221 c 0,68,-1
 942 221 l 0,69,-1
 981 401 l 0,70,-1
 1112 401 l 0,71,-1
 1112 0 l 0,72,-1
 88 0 l 0,0,-1
EndSplineSet
EndChar

StartChar: three
Encoding: 22 51 22
Width: 1202
Flags: W
LayerCount: 2
Fore
SplineSet
1112 393 m 0,0,1
 1112 326 1112 326 1089.5 269 c 0,2,3
 1067 212 1067 212 1027 164.5 c 0,4,5
 987 117 987 117 931.5 80 c 0,6,7
 876 43 876 43 810.5 18 c 0,8,9
 745 -7 745 -7 671.5 -20 c 0,10,11
 598 -33 598 -33 522 -33 c 0,12,13
 422 -33 422 -33 342 -10 c 0,14,15
 262 13 262 13 205.5 51.5 c 0,16,17
 149 90 149 90 118.5 138.5 c 0,18,19
 88 187 88 187 88 238 c 0,20,21
 88 281 88 281 102.5 308 c 0,22,23
 117 335 117 335 139.5 351 c 0,24,25
 162 367 162 367 189 373 c 0,26,27
 216 379 216 379 240 379 c 0,28,29
 267 379 267 379 289 373.5 c 0,30,31
 311 368 311 368 328 360 c 0,32,-1
 393 129 l 0,33,34
 427 120 427 120 464 107 c 0,35,36
 501 94 501 94 543 94 c 0,37,38
 596 94 596 94 644.5 116.5 c 0,39,40
 693 139 693 139 730 177.5 c 0,41,42
 767 216 767 216 789 268.5 c 0,43,44
 811 321 811 321 811 381 c 0,45,46
 811 429 811 429 793 474.5 c 0,47,48
 775 520 775 520 739 554.5 c 0,49,50
 703 589 703 589 649.5 610 c 0,51,52
 596 631 596 631 524 631 c 0,53,54
 501 631 501 631 476 629.5 c 0,55,56
 451 628 451 628 430 626 c 0,57,58
 405 623 405 623 381 621 c 0,59,-1
 381 774 l 0,60,61
 398 772 398 772 411 772 c 0,62,-1
 438 772 l 0,63,64
 496 772 496 772 554 783.5 c 0,65,66
 612 795 612 795 658.5 824 c 0,67,68
 705 853 705 853 734.5 901.5 c 0,69,70
 764 950 764 950 764 1024 c 0,71,72
 764 1073 764 1073 744 1117.5 c 0,73,74
 724 1162 724 1162 689 1196 c 0,75,76
 654 1230 654 1230 606 1250 c 0,77,78
 558 1270 558 1270 502 1270 c 0,79,80
 487 1270 487 1270 468.5 1266 c 0,81,82
 450 1262 450 1262 433 1257 c 0,83,84
 414 1252 414 1252 393 1245 c 0,85,-1
 393 993 l 0,86,87
 365 975 365 975 336 970 c 0,88,89
 307 965 307 965 283 965 c 0,90,91
 251 965 251 965 222 974 c 0,92,93
 193 983 193 983 171 1001 c 0,94,95
 149 1019 149 1019 136 1046.5 c 0,96,97
 123 1074 123 1074 123 1112 c 0,98,99
 123 1176 123 1176 161 1230 c 0,100,101
 199 1284 199 1284 264 1323.5 c 0,102,103
 329 1363 329 1363 415 1385 c 0,104,105
 501 1407 501 1407 598 1407 c 0,106,107
 682 1407 682 1407 765 1385 c 0,108,109
 848 1363 848 1363 914 1318.5 c 0,110,111
 980 1274 980 1274 1021.5 1206.5 c 0,112,113
 1063 1139 1063 1139 1063 1047 c 0,114,115
 1063 982 1063 982 1041 933 c 0,116,117
 1019 884 1019 884 985 848.5 c 0,118,119
 951 813 951 813 909.5 789.5 c 0,120,121
 868 766 868 766 829.5 751.5 c 0,122,123
 791 737 791 737 760 730 c 0,124,125
 732 724 732 724 718 723 c 0,126,127
 731 722 731 722 762 720 c 0,128,129
 797 717 797 717 841.5 705.5 c 0,130,131
 886 694 886 694 933.5 672 c 0,132,133
 981 650 981 650 1021 613 c 0,134,135
 1061 576 1061 576 1086.5 522 c 0,136,137
 1112 468 1112 468 1112 393 c 0,0,1
EndSplineSet
EndChar

StartChar: four
Encoding: 23 52 23
Width: 1202
Flags: W
LayerCount: 2
Fore
SplineSet
963 385 m 0,0,-1
 963 -33 l 0,1,-1
 702 -33 l 0,2,-1
 702 383 l 0,3,-1
 74 383 l 0,4,-1
 74 559 l 0,5,-1
 741 1407 l 0,6,-1
 963 1407 l 0,7,-1
 963 551 l 0,8,-1
 1130 551 l 0,9,-1
 1130 385 l 0,10,-1
 963 385 l 0,0,-1
702 1090 m 0,11,-1
 272 551 l 0,12,-1
 702 551 l 0,13,-1
 702 1090 l 0,11,-1
EndSplineSet
EndChar

StartChar: five
Encoding: 24 53 24
Width: 1202
Flags: W
LayerCount: 2
Fore
SplineSet
1120 465 m 0,0,1
 1120 349 1120 349 1068.5 257 c 0,2,3
 1017 165 1017 165 931.5 100.5 c 0,4,5
 846 36 846 36 735.5 1.5 c 0,6,7
 625 -33 625 -33 508 -33 c 0,8,9
 430 -33 430 -33 354 -16 c 0,10,11
 278 1 278 1 218 35 c 0,12,13
 158 69 158 69 121 119.5 c 0,14,15
 84 170 84 170 84 236 c 0,16,17
 84 259 84 259 93.5 282.5 c 0,18,19
 103 306 103 306 121.5 325.5 c 0,20,21
 140 345 140 345 168 357 c 0,22,23
 196 369 196 369 233 369 c 0,24,25
 253 369 253 369 275.5 364 c 0,26,27
 298 359 298 359 326 350 c 0,28,-1
 391 106 l 0,29,30
 416 102 416 102 437 98 c 0,31,32
 455 95 455 95 472.5 92.5 c 0,33,34
 490 90 490 90 498 90 c 0,35,36
 587 90 587 90 649.5 124 c 0,37,38
 712 158 712 158 751.5 206.5 c 0,39,40
 791 255 791 255 809 307 c 0,41,42
 827 359 827 359 827 395 c 0,43,44
 827 464 827 464 798.5 518.5 c 0,45,46
 770 573 770 573 720.5 611 c 0,47,48
 671 649 671 649 604.5 669.5 c 0,49,50
 538 690 538 690 463 690 c 0,51,52
 410 690 410 690 357 684.5 c 0,53,54
 304 679 304 679 260 673 c 0,55,56
 209 666 209 666 162 657 c 0,57,-1
 162 1374 l 0,58,-1
 1042 1374 l 0,59,-1
 1042 1147 l 0,60,-1
 336 1147 l 0,61,-1
 336 817 l 0,62,63
 379 830 379 830 426 841 c 0,64,65
 466 850 466 850 516 858 c 0,66,67
 566 866 566 866 618 866 c 0,68,69
 728 866 728 866 820 836.5 c 0,70,71
 912 807 912 807 979 754 c 0,72,73
 1046 701 1046 701 1083 627.5 c 0,74,75
 1120 554 1120 554 1120 465 c 0,0,1
EndSplineSet
EndChar

StartChar: six
Encoding: 25 54 25
Width: 1202
Flags: W
LayerCount: 2
Fore
SplineSet
1130 494 m 0,0,1
 1130 375 1130 375 1089.5 277.5 c 0,2,3
 1049 180 1049 180 979 111 c 0,4,5
 909 42 909 42 816.5 4.5 c 0,6,7
 724 -33 724 -33 621 -33 c 0,8,9
 492 -33 492 -33 390 8 c 0,10,11
 288 49 288 49 218 129 c 0,12,13
 148 209 148 209 111 326.5 c 0,14,15
 74 444 74 444 74 596 c 0,16,17
 74 797 74 797 137.5 950 c 0,18,19
 201 1103 201 1103 317 1205 c 0,20,21
 433 1307 433 1307 595.5 1358 c 0,22,23
 758 1409 758 1409 956 1407 c 0,24,-1
 956 1247 l 0,25,-1
 866 1257 l 0,26,27
 755 1249 755 1249 671 1215.5 c 0,28,29
 587 1182 587 1182 528.5 1124.5 c 0,30,31
 470 1067 470 1067 434 987 c 0,32,33
 398 907 398 907 383 807 c 0,34,35
 425 835 425 835 476 858 c 0,36,37
 519 877 519 877 576.5 893 c 0,38,39
 634 909 634 909 700 909 c 0,40,41
 808 909 808 909 888.5 871.5 c 0,42,43
 969 834 969 834 1022.5 774.5 c 0,44,45
 1076 715 1076 715 1103 641 c 0,46,47
 1130 567 1130 567 1130 494 c 0,0,1
838 432 m 0,48,49
 838 499 838 499 822 555 c 0,50,51
 806 611 806 611 773 651 c 0,52,53
 740 691 740 691 689 713 c 0,54,55
 638 735 638 735 569 735 c 0,56,57
 525 735 525 735 488.5 728 c 0,58,59
 452 721 452 721 426 713 c 0,60,61
 395 703 395 703 371 692 c 0,62,63
 367 657 367 657 366.5 625.5 c 0,64,65
 366 594 366 594 367 571 c 0,66,67
 368 543 368 543 369 520 c 0,68,69
 369 449 369 449 383 374.5 c 0,70,71
 397 300 397 300 428 239 c 0,72,73
 459 178 459 178 507 139 c 0,74,75
 555 100 555 100 623 100 c 0,76,77
 677 100 677 100 717 127.5 c 0,78,79
 757 155 757 155 784 201 c 0,80,81
 811 247 811 247 824.5 307 c 0,82,83
 838 367 838 367 838 432 c 0,48,49
EndSplineSet
EndChar

StartChar: seven
Encoding: 26 55 26
Width: 1202
Flags: W
LayerCount: 2
Fore
SplineSet
310 29 m 0,0,-1
 310 -33 l 0,1,-1
 48 -33 l 0,2,-1
 716 1128 l 0,3,-1
 124 1128 l 0,4,-1
 93 938 l 0,5,-1
 -50 938 l 0,6,-1
 -50 1374 l 0,7,-1
 1000 1374 l 0,8,-1
 1000 1229 l 0,9,-1
 310 29 l 0,0,-1
EndSplineSet
EndChar

StartChar: eight
Encoding: 27 56 27
Width: 1202
Flags: W
LayerCount: 2
Fore
SplineSet
1128 377 m 0,0,1
 1128 272 1128 272 1082.5 195 c 0,2,3
 1037 118 1037 118 961.5 67.5 c 0,4,5
 886 17 886 17 788.5 -8 c 0,6,7
 691 -33 691 -33 588 -33 c 0,8,9
 477 -33 477 -33 382.5 -2.5 c 0,10,11
 288 28 288 28 219.5 82 c 0,12,13
 151 136 151 136 112.5 210 c 0,14,15
 74 284 74 284 74 371 c 0,16,17
 74 454 74 454 104 509 c 0,18,19
 134 564 134 564 177.5 599.5 c 0,20,21
 221 635 221 635 270.5 654.5 c 0,22,23
 320 674 320 674 358 686 c 0,24,25
 327 698 327 698 287.5 723.5 c 0,26,27
 248 749 248 749 212.5 787.5 c 0,28,29
 177 826 177 826 153 877.5 c 0,30,31
 129 929 129 929 129 993 c 0,32,33
 129 1109 129 1109 173.5 1188.5 c 0,34,35
 218 1268 218 1268 290 1316.5 c 0,36,37
 362 1365 362 1365 451.5 1386 c 0,38,39
 541 1407 541 1407 631 1407 c 0,40,41
 712 1407 712 1407 791.5 1385 c 0,42,43
 871 1363 871 1363 934 1318 c 0,44,45
 997 1273 997 1273 1036 1205.5 c 0,46,47
 1075 1138 1075 1138 1075 1047 c 0,48,49
 1075 974 1075 974 1050 922.5 c 0,50,51
 1025 871 1025 871 987 834.5 c 0,52,53
 949 798 949 798 904.5 773.5 c 0,54,55
 860 749 860 749 821 731 c 0,56,57
 835 726 835 726 863 716.5 c 0,58,59
 891 707 891 707 925.5 689.5 c 0,60,61
 960 672 960 672 995.5 646 c 0,62,63
 1031 620 1031 620 1060.5 582.5 c 0,64,65
 1090 545 1090 545 1109 494 c 0,66,67
 1128 443 1128 443 1128 377 c 0,0,1
823 1030 m 0,68,69
 823 1078 823 1078 807.5 1122.5 c 0,70,71
 792 1167 792 1167 763.5 1201.5 c 0,72,73
 735 1236 735 1236 695 1257 c 0,74,75
 655 1278 655 1278 606 1278 c 0,76,77
 565 1278 565 1278 529.5 1262.5 c 0,78,79
 494 1247 494 1247 467.5 1220.5 c 0,80,81
 441 1194 441 1194 425.5 1158 c 0,82,83
 410 1122 410 1122 410 1081 c 0,84,85
 410 1020 410 1020 437 975 c 0,86,87
 464 930 464 930 508.5 895 c 0,88,89
 553 860 553 860 609 832.5 c 0,90,91
 665 805 665 805 723 780 c 0,92,93
 738 796 738 796 755.5 820 c 0,94,95
 773 844 773 844 788 875.5 c 0,96,97
 803 907 803 907 813 946 c 0,98,99
 823 985 823 985 823 1030 c 0,68,69
850 305 m 0,100,101
 850 355 850 355 829.5 395 c 0,102,103
 809 435 809 435 776 466.5 c 0,104,105
 743 498 743 498 700.5 523 c 0,106,107
 658 548 658 548 614 567.5 c 0,108,109
 570 587 570 587 528.5 603.5 c 0,110,111
 487 620 487 620 455 635 c 0,112,113
 446 623 446 623 426 602.5 c 0,114,115
 406 582 406 582 386 552 c 0,116,117
 366 522 366 522 351 482 c 0,118,119
 336 442 336 442 336 391 c 0,120,121
 336 331 336 331 357 277.5 c 0,122,123
 378 224 378 224 414.5 184.5 c 0,124,125
 451 145 451 145 500 121.5 c 0,126,127
 549 98 549 98 604 98 c 0,128,129
 652 98 652 98 696 111.5 c 0,130,131
 740 125 740 125 774.5 151.5 c 0,132,133
 809 178 809 178 829.5 216.5 c 0,134,135
 850 255 850 255 850 305 c 0,100,101
EndSplineSet
EndChar

StartChar: nine
Encoding: 28 57 28
Width: 1202
Flags: W
LayerCount: 2
Fore
SplineSet
1130 776 m 0,0,1
 1130 575 1130 575 1066.5 422.5 c 0,2,3
 1003 270 1003 270 887 168 c 0,4,5
 771 66 771 66 608.5 15.5 c 0,6,7
 446 -35 446 -35 248 -33 c 0,8,-1
 248 127 l 0,9,-1
 338 117 l 0,10,11
 449 124 449 124 532.5 158 c 0,12,13
 616 192 616 192 674.5 249 c 0,14,15
 733 306 733 306 768.5 385.5 c 0,16,17
 804 465 804 465 819 565 c 0,18,19
 777 536 777 536 727 514 c 0,20,21
 684 494 684 494 627 478.5 c 0,22,23
 570 463 570 463 504 463 c 0,24,25
 396 463 396 463 315 500.5 c 0,26,27
 234 538 234 538 180.5 598 c 0,28,29
 127 658 127 658 100.5 732 c 0,30,31
 74 806 74 806 74 879 c 0,32,33
 74 998 74 998 114.5 1095.5 c 0,34,35
 155 1193 155 1193 225 1262 c 0,36,37
 295 1331 295 1331 387.5 1369 c 0,38,39
 480 1407 480 1407 584 1407 c 0,40,41
 712 1407 712 1407 813.5 1365.5 c 0,42,43
 915 1324 915 1324 985.5 1243.5 c 0,44,45
 1056 1163 1056 1163 1093 1045.5 c 0,46,47
 1130 928 1130 928 1130 776 c 0,0,1
836 852 m 0,48,49
 836 925 836 925 821.5 1000 c 0,50,51
 807 1075 807 1075 776 1136 c 0,52,53
 745 1197 745 1197 697 1235.5 c 0,54,55
 649 1274 649 1274 582 1274 c 0,56,57
 528 1274 528 1274 487.5 1246.5 c 0,58,59
 447 1219 447 1219 420.5 1172.5 c 0,60,61
 394 1126 394 1126 380.5 1065.5 c 0,62,63
 367 1005 367 1005 367 940 c 0,64,65
 367 872 367 872 383 816.5 c 0,66,67
 399 761 399 761 432 721 c 0,68,69
 465 681 465 681 515.5 659 c 0,70,71
 566 637 566 637 635 637 c 0,72,73
 678 637 678 637 715 643.5 c 0,74,75
 752 650 752 650 778 658 c 0,76,77
 809 668 809 668 834 680 c 0,78,79
 836 714 836 714 836.5 745 c 0,80,81
 837 776 837 776 837 800 c 0,82,83
 837 828 837 828 836 852 c 0,48,49
EndSplineSet
EndChar

StartChar: colon
Encoding: 29 58 29
Width: 651
Flags: W
LayerCount: 2
Fore
SplineSet
471 145 m 0,0,1
 471 110 471 110 458 79 c 0,2,3
 445 48 445 48 422 25 c 0,4,5
 399 2 399 2 368 -11.5 c 0,6,7
 337 -25 337 -25 301 -25 c 0,8,9
 266 -25 266 -25 234.5 -11.5 c 0,10,11
 203 2 203 2 179.5 25 c 0,12,13
 156 48 156 48 142.5 79 c 0,14,15
 129 110 129 110 129 145 c 0,16,17
 129 181 129 181 142.5 212 c 0,18,19
 156 243 156 243 179.5 266.5 c 0,20,21
 203 290 203 290 234.5 303.5 c 0,22,23
 266 317 266 317 301 317 c 0,24,25
 337 317 337 317 368 303.5 c 0,26,27
 399 290 399 290 422 266.5 c 0,28,29
 445 243 445 243 458 212 c 0,30,31
 471 181 471 181 471 145 c 0,0,1
471 852 m 0,32,33
 471 816 471 816 458 785 c 0,34,35
 445 754 445 754 422 731 c 0,36,37
 399 708 399 708 368 695 c 0,38,39
 337 682 337 682 301 682 c 0,40,41
 266 682 266 682 234.5 695 c 0,42,43
 203 708 203 708 179.5 731 c 0,44,45
 156 754 156 754 142.5 785 c 0,46,47
 129 816 129 816 129 852 c 0,48,49
 129 887 129 887 142.5 918.5 c 0,50,51
 156 950 156 950 179.5 973.5 c 0,52,53
 203 997 203 997 234.5 1010.5 c 0,54,55
 266 1024 266 1024 301 1024 c 0,56,57
 337 1024 337 1024 368 1010.5 c 0,58,59
 399 997 399 997 422 973.5 c 0,60,61
 445 950 445 950 458 918.5 c 0,62,63
 471 887 471 887 471 852 c 0,32,33
EndSplineSet
EndChar

StartChar: semicolon
Encoding: 30 59 30
Width: 651
Flags: W
LayerCount: 2
Fore
SplineSet
496 121 m 0,0,1
 496 57 496 57 478 -2 c 0,2,3
 460 -61 460 -61 429.5 -113.5 c 0,4,5
 399 -166 399 -166 357.5 -209.5 c 0,6,7
 316 -253 316 -253 269 -285.5 c 0,8,9
 222 -318 222 -318 171.5 -337.5 c 0,10,11
 121 -357 121 -357 72 -360 c 0,12,-1
 72 -260 l 0,13,14
 111 -254 111 -254 155.5 -237.5 c 0,15,16
 200 -221 200 -221 237 -189 c 0,17,18
 274 -157 274 -157 297 -107.5 c 0,19,20
 320 -58 320 -58 317 14 c 0,21,-1
 193 14 l 0,22,23
 174 29 174 29 162 45.5 c 0,24,25
 150 62 150 62 142.5 79 c 0,26,27
 135 96 135 96 132 113 c 0,28,29
 129 130 129 130 129 145 c 0,30,31
 129 184 129 184 143.5 215.5 c 0,32,33
 158 247 158 247 182 269.5 c 0,34,35
 206 292 206 292 237 304.5 c 0,36,37
 268 317 268 317 301 317 c 0,38,39
 394 317 394 317 445 264 c 0,40,41
 496 211 496 211 496 121 c 0,0,1
471 852 m 0,42,43
 471 816 471 816 458 785 c 0,44,45
 445 754 445 754 422 731 c 0,46,47
 399 708 399 708 368 695 c 0,48,49
 337 682 337 682 301 682 c 0,50,51
 266 682 266 682 234.5 695 c 0,52,53
 203 708 203 708 179.5 731 c 0,54,55
 156 754 156 754 142.5 785 c 0,56,57
 129 816 129 816 129 852 c 0,58,59
 129 887 129 887 142.5 918.5 c 0,60,61
 156 950 156 950 179.5 973.5 c 0,62,63
 203 997 203 997 234.5 1010.5 c 0,64,65
 266 1024 266 1024 301 1024 c 0,66,67
 337 1024 337 1024 368 1010.5 c 0,68,69
 399 997 399 997 422 973.5 c 0,70,71
 445 950 445 950 458 918.5 c 0,72,73
 471 887 471 887 471 852 c 0,42,43
EndSplineSet
EndChar

StartChar: less
Encoding: 31 60 31
Width: 2048
Flags: W
LayerCount: 2
Fore
SplineSet
410 551 m 0,0,-1
 410 678 l 0,1,-1
 1638 1149 l 0,2,-1
 1638 1022 l 0,3,-1
 541 614 l 0,4,-1
 1638 207 l 0,5,-1
 1638 80 l 0,6,-1
 410 551 l 0,0,-1
EndSplineSet
EndChar

StartChar: equal
Encoding: 32 61 32
Width: 2048
Flags: W
LayerCount: 2
Fore
SplineSet
410 737 m 0,0,-1
 410 864 l 0,1,-1
 1638 864 l 0,2,-1
 1638 737 l 0,3,-1
 410 737 l 0,0,-1
410 365 m 0,4,-1
 410 492 l 0,5,-1
 1638 492 l 0,6,-1
 1638 365 l 0,7,-1
 410 365 l 0,4,-1
EndSplineSet
EndChar

StartChar: greater
Encoding: 33 62 33
Width: 2048
Flags: W
LayerCount: 2
Fore
SplineSet
410 80 m 0,0,-1
 410 207 l 0,1,-1
 1507 614 l 0,2,-1
 410 1022 l 0,3,-1
 410 1149 l 0,4,-1
 1638 678 l 0,5,-1
 1638 551 l 0,6,-1
 410 80 l 0,0,-1
EndSplineSet
EndChar

StartChar: question
Encoding: 34 63 34
Width: 1069
Flags: W
LayerCount: 2
Fore
SplineSet
938 1018 m 0,0,1
 938 953 938 953 919 899.5 c 0,2,3
 900 846 900 846 868.5 802.5 c 0,4,5
 837 759 837 759 797.5 726 c 0,6,7
 758 693 758 693 716 668 c 0,8,9
 618 610 618 610 494 580 c 0,10,-1
 494 406 l 0,11,-1
 354 406 l 0,12,-1
 354 678 l 0,13,14
 437 700 437 700 502 745 c 0,15,16
 530 764 530 764 556.5 790 c 0,17,18
 583 816 583 816 604 850 c 0,19,20
 625 884 625 884 638 926.5 c 0,21,22
 651 969 651 969 651 1022 c 0,23,24
 651 1080 651 1080 634.5 1127.5 c 0,25,26
 618 1175 618 1175 584.5 1209.5 c 0,27,28
 551 1244 551 1244 500.5 1263 c 0,29,30
 450 1282 450 1282 383 1282 c 0,31,-1
 291 1036 l 0,32,33
 290 1035 290 1035 286 1034 c 0,34,35
 283 1033 283 1033 278.5 1032.5 c 0,36,37
 274 1032 274 1032 266 1032 c 0,38,39
 246 1032 246 1032 216 1034.5 c 0,40,41
 186 1037 186 1037 158 1050 c 0,42,43
 130 1063 130 1063 110 1089 c 0,44,45
 90 1115 90 1115 90 1163 c 0,46,47
 90 1230 90 1230 126.5 1276.5 c 0,48,49
 163 1323 163 1323 219 1352 c 0,50,51
 275 1381 275 1381 343 1394 c 0,52,53
 411 1407 411 1407 473 1407 c 0,54,55
 572 1407 572 1407 657 1379.5 c 0,56,57
 742 1352 742 1352 804.5 1301.5 c 0,58,59
 867 1251 867 1251 902.5 1179 c 0,60,61
 938 1107 938 1107 938 1018 c 0,0,1
592 133 m 0,62,63
 592 99 592 99 578.5 70 c 0,64,65
 565 41 565 41 542 20 c 0,66,67
 519 -1 519 -1 488.5 -13 c 0,68,69
 458 -25 458 -25 424 -25 c 0,70,71
 391 -25 391 -25 362.5 -11.5 c 0,72,73
 334 2 334 2 313 25 c 0,74,75
 292 48 292 48 280 78 c 0,76,77
 268 108 268 108 268 141 c 0,78,79
 268 175 268 175 280.5 204.5 c 0,80,81
 293 234 293 234 314 256.5 c 0,82,83
 335 279 335 279 364 292 c 0,84,85
 393 305 393 305 426 305 c 0,86,87
 463 305 463 305 493.5 291 c 0,88,89
 524 277 524 277 546 253.5 c 0,90,91
 568 230 568 230 580 198.5 c 0,92,93
 592 167 592 167 592 133 c 0,62,63
EndSplineSet
EndChar

StartChar: at
Encoding: 35 64 35
Width: 1917
Flags: W
LayerCount: 2
Fore
SplineSet
1167 795 m 0,0,1
 1170 807 1170 807 1165.5 825.5 c 0,2,3
 1161 844 1161 844 1150 861 c 0,4,5
 1139 878 1139 878 1120 890.5 c 0,6,7
 1101 903 1101 903 1075 903 c 0,8,9
 1013 903 1013 903 958.5 870 c 0,10,11
 904 837 904 837 863 778.5 c 0,12,13
 822 720 822 720 798 639 c 0,14,15
 774 558 774 558 774 463 c 0,16,17
 774 405 774 405 785.5 364.5 c 0,18,19
 797 324 797 324 816 298.5 c 0,20,21
 835 273 835 273 858 261.5 c 0,22,23
 881 250 881 250 905 250 c 0,24,25
 938 250 938 250 964.5 262.5 c 0,26,27
 991 275 991 275 1012.5 294 c 0,28,29
 1034 313 1034 313 1052 335 c 0,30,31
 1070 357 1070 357 1085 375 c 0,32,-1
 1167 795 l 0,0,1
1798 754 m 0,33,34
 1798 652 1798 652 1775.5 564.5 c 0,35,36
 1753 477 1753 477 1714.5 404.5 c 0,37,38
 1676 332 1676 332 1624.5 275.5 c 0,39,40
 1573 219 1573 219 1514 180.5 c 0,41,42
 1455 142 1455 142 1392.5 122 c 0,43,44
 1330 102 1330 102 1270 102 c 0,45,46
 1223 102 1223 102 1191.5 114 c 0,47,48
 1160 126 1160 126 1139.5 145.5 c 0,49,50
 1119 165 1119 165 1108.5 191 c 0,51,52
 1098 217 1098 217 1094 246 c 0,53,54
 1062 219 1062 219 1029 193.5 c 0,55,56
 996 168 996 168 961 148 c 0,57,58
 926 128 926 128 889 116 c 0,59,60
 852 104 852 104 813 104 c 0,61,62
 743 104 743 104 690 129.5 c 0,63,64
 637 155 637 155 601 200.5 c 0,65,66
 565 246 565 246 546.5 308 c 0,67,68
 528 370 528 370 528 444 c 0,69,70
 528 559 528 559 570.5 660.5 c 0,71,72
 613 762 613 762 686 838.5 c 0,73,74
 759 915 759 915 857.5 959.5 c 0,75,76
 956 1004 956 1004 1067 1004 c 0,77,78
 1091 1004 1091 1004 1115.5 998 c 0,79,80
 1140 992 1140 992 1164 982.5 c 0,81,82
 1188 973 1188 973 1210.5 962 c 0,83,84
 1233 951 1233 951 1253 942 c 0,85,-1
 1280 993 l 0,86,-1
 1452 993 l 0,87,-1
 1442 955 l 0,88,89
 1435 925 1435 925 1424.5 881 c 0,90,91
 1414 837 1414 837 1401.5 783 c 0,92,93
 1389 729 1389 729 1376 674 c 0,94,95
 1346 545 1346 545 1309 385 c 0,96,97
 1301 351 1301 351 1297 323 c 0,98,99
 1293 295 1293 295 1297 275 c 0,100,101
 1301 255 1301 255 1314.5 244 c 0,102,103
 1328 233 1328 233 1356 233 c 0,104,105
 1376 233 1376 233 1405.5 248.5 c 0,106,107
 1435 264 1435 264 1466.5 294 c 0,108,109
 1498 324 1498 324 1529 368.5 c 0,110,111
 1560 413 1560 413 1584.5 470.5 c 0,112,113
 1609 528 1609 528 1624.5 598.5 c 0,114,115
 1640 669 1640 669 1640 752 c 0,116,117
 1640 849 1640 849 1617 927.5 c 0,118,119
 1594 1006 1594 1006 1555 1067 c 0,120,121
 1516 1128 1516 1128 1462.5 1172.5 c 0,122,123
 1409 1217 1409 1217 1349 1246 c 0,124,125
 1289 1275 1289 1275 1224 1289 c 0,126,127
 1159 1303 1159 1303 1096 1303 c 0,128,129
 988 1303 988 1303 889.5 1276.5 c 0,130,131
 791 1250 791 1250 705.5 1201.5 c 0,132,133
 620 1153 620 1153 550 1083 c 0,134,135
 480 1013 480 1013 430 925.5 c 0,136,137
 380 838 380 838 353 735.5 c 0,138,139
 326 633 326 633 326 518 c 0,140,141
 326 360 326 360 375 227.5 c 0,142,143
 424 95 424 95 514 -2 c 0,144,145
 604 -99 604 -99 731 -153 c 0,146,147
 858 -207 858 -207 1014 -207 c 0,148,149
 1095 -207 1095 -207 1168 -193.5 c 0,150,151
 1241 -180 1241 -180 1309 -157 c 0,152,153
 1377 -134 1377 -134 1442.5 -102.5 c 0,154,155
 1508 -71 1508 -71 1573 -35 c 0,156,-1
 1616 -137 l 0,157,158
 1547 -173 1547 -173 1473 -206.5 c 0,159,160
 1399 -240 1399 -240 1319 -265.5 c 0,161,162
 1239 -291 1239 -291 1150.5 -306.5 c 0,163,164
 1062 -322 1062 -322 965 -322 c 0,165,166
 845 -322 845 -322 736 -296.5 c 0,167,168
 627 -271 627 -271 533 -222 c 0,169,170
 439 -173 439 -173 362.5 -103 c 0,171,172
 286 -33 286 -33 232 56.5 c 0,173,174
 178 146 178 146 148.5 252.5 c 0,175,176
 119 359 119 359 119 481 c 0,177,178
 119 630 119 630 155 757 c 0,179,180
 191 884 191 884 255.5 987 c 0,181,182
 320 1090 320 1090 409 1168.5 c 0,183,184
 498 1247 498 1247 603.5 1300 c 0,185,186
 709 1353 709 1353 827.5 1380 c 0,187,188
 946 1407 946 1407 1069 1407 c 0,189,190
 1235 1407 1235 1407 1370 1363 c 0,191,192
 1505 1319 1505 1319 1600 1235.5 c 0,193,194
 1695 1152 1695 1152 1746.5 1030.5 c 0,195,196
 1798 909 1798 909 1798 754 c 0,33,34
EndSplineSet
EndChar

StartChar: A
Encoding: 36 65 36
Width: 1405
Flags: W
LayerCount: 2
Fore
SplineSet
829 0 m 0,0,-1
 829 104 l 0,1,-1
 950 119 l 0,2,3
 960 121 960 121 967 132 c 0,4,5
 974 143 974 143 969 154 c 0,6,-1
 858 479 l 0,7,-1
 420 479 l 0,8,-1
 307 162 l 0,9,10
 301 146 301 146 313 133 c 0,11,12
 325 120 325 120 336 119 c 0,13,-1
 451 104 l 0,14,-1
 451 0 l 0,15,-1
 10 0 l 0,16,-1
 10 104 l 0,17,-1
 125 121 l 0,18,-1
 584 1407 l 0,19,-1
 817 1407 l 0,20,-1
 1272 158 l 0,21,22
 1280 139 1280 139 1287.5 131.5 c 0,23,24
 1295 124 1295 124 1317 119 c 0,25,-1
 1395 104 l 0,26,-1
 1395 0 l 0,27,-1
 829 0 l 0,0,-1
631 1092 m 0,28,-1
 459 600 l 0,29,-1
 807 600 l 0,30,-1
 631 1092 l 0,28,-1
EndSplineSet
EndChar

StartChar: B
Encoding: 37 66 37
Width: 1309
Flags: W
LayerCount: 2
Fore
SplineSet
852 1024 m 0,0,1
 852 1069 852 1069 842 1111.5 c 0,2,3
 832 1154 832 1154 803.5 1187 c 0,4,5
 775 1220 775 1220 723.5 1240 c 0,6,7
 672 1260 672 1260 590 1260 c 0,8,-1
 580 1260 l 0,9,10
 577 1260 577 1260 569.5 1259.5 c 0,11,12
 562 1259 562 1259 547.5 1258 c 0,13,14
 533 1257 533 1257 506 1255 c 0,15,-1
 506 768 l 0,16,17
 517 767 517 767 528 767 c 0,18,19
 537 766 537 766 545 766 c 0,20,-1
 557 766 l 0,21,22
 645 766 645 766 702 786 c 0,23,24
 759 806 759 806 792.5 840.5 c 0,25,26
 826 875 826 875 839 922.5 c 0,27,28
 852 970 852 970 852 1024 c 0,0,1
926 385 m 0,29,30
 926 517 926 517 850 581 c 0,31,32
 774 645 774 645 608 645 c 0,33,-1
 571 645 l 0,34,35
 549 645 549 645 506 643 c 0,36,-1
 506 121 l 0,37,38
 529 120 529 120 549 119 c 0,39,40
 566 118 566 118 581.5 117.5 c 0,41,42
 597 117 597 117 602 117 c 0,43,44
 680 117 680 117 740.5 131 c 0,45,46
 801 145 801 145 842.5 177 c 0,47,48
 884 209 884 209 905 260 c 0,49,50
 926 311 926 311 926 385 c 0,29,30
1233 399 m 0,51,52
 1233 303 1233 303 1212 236.5 c 0,53,54
 1191 170 1191 170 1155.5 125.5 c 0,55,56
 1120 81 1120 81 1072.5 56 c 0,57,58
 1025 31 1025 31 972.5 18.5 c 0,59,60
 920 6 920 6 865.5 3 c 0,61,62
 811 0 811 0 760 0 c 0,63,-1
 57 0 l 0,64,-1
 57 104 l 0,65,-1
 168 115 l 0,66,67
 187 117 187 117 200 128.5 c 0,68,69
 213 140 213 140 213 160 c 0,70,-1
 213 1214 l 0,71,72
 213 1234 213 1234 200 1246 c 0,73,74
 187 1258 187 1258 168 1260 c 0,75,-1
 57 1270 l 0,76,-1
 57 1374 l 0,77,-1
 717 1374 l 0,78,79
 754 1374 754 1374 800.5 1370.5 c 0,80,81
 847 1367 847 1367 895.5 1355.5 c 0,82,83
 944 1344 944 1344 990 1323 c 0,84,85
 1036 1302 1036 1302 1072.5 1266.5 c 0,86,87
 1109 1231 1109 1231 1131 1179.5 c 0,88,89
 1153 1128 1153 1128 1153 1057 c 0,90,91
 1153 995 1153 995 1136 948 c 0,92,93
 1119 901 1119 901 1092 866 c 0,94,95
 1065 831 1065 831 1032 807 c 0,96,97
 999 783 999 783 966.5 767 c 0,98,99
 934 751 934 751 906 742.5 c 0,100,101
 878 734 878 734 863 731 c 0,102,103
 900 730 900 730 942.5 724 c 0,104,105
 985 718 985 718 1026 703.5 c 0,106,107
 1067 689 1067 689 1104.5 665 c 0,108,109
 1142 641 1142 641 1170.5 604.5 c 0,110,111
 1199 568 1199 568 1216 517.5 c 0,112,113
 1233 467 1233 467 1233 399 c 0,51,52
EndSplineSet
EndChar

StartChar: C
Encoding: 38 67 38
Width: 1303
Flags: W
LayerCount: 2
Fore
SplineSet
1229 49 m 0,0,1
 1210 41 1210 41 1169.5 27.5 c 0,2,3
 1129 14 1129 14 1072 0.5 c 0,4,5
 1015 -13 1015 -13 944.5 -23 c 0,6,7
 874 -33 874 -33 795 -33 c 0,8,9
 690 -33 690 -33 596 -9 c 0,10,11
 502 15 502 15 422 60 c 0,12,13
 342 105 342 105 278 169 c 0,14,15
 214 233 214 233 169 313.5 c 0,16,17
 124 394 124 394 100 488.5 c 0,18,19
 76 583 76 583 76 688 c 0,20,21
 76 848 76 848 131.5 980 c 0,22,23
 187 1112 187 1112 284 1207 c 0,24,25
 381 1302 381 1302 513 1354.5 c 0,26,27
 645 1407 645 1407 797 1407 c 0,28,29
 855 1407 855 1407 903 1402 c 0,30,31
 951 1397 951 1397 999.5 1386.5 c 0,32,33
 1048 1376 1048 1376 1102.5 1360 c 0,34,35
 1157 1344 1157 1344 1229 1321 c 0,36,-1
 1229 973 l 0,37,-1
 1069 973 l 0,38,-1
 1024 1202 l 0,39,40
 1024 1207 1024 1207 1016 1218.5 c 0,41,42
 1008 1230 1008 1230 997 1235 c 0,43,44
 989 1239 989 1239 972.5 1244.5 c 0,45,46
 956 1250 956 1250 935.5 1255 c 0,47,48
 915 1260 915 1260 893 1264 c 0,49,50
 871 1268 871 1268 852 1268 c 0,51,52
 747 1268 747 1268 662.5 1226.5 c 0,53,54
 578 1185 578 1185 519 1108.5 c 0,55,56
 460 1032 460 1032 428.5 924.5 c 0,57,58
 397 817 397 817 397 684 c 0,59,60
 397 612 397 612 408 541 c 0,61,62
 419 470 419 470 442.5 405 c 0,63,64
 466 340 466 340 503.5 284.5 c 0,65,66
 541 229 541 229 593 188 c 0,67,68
 645 147 645 147 713.5 123.5 c 0,69,70
 782 100 782 100 868 100 c 0,71,72
 906 100 906 100 938 109.5 c 0,73,74
 970 119 970 119 987 127 c 0,75,76
 995 130 995 130 1007 143.5 c 0,77,78
 1019 157 1019 157 1022 166 c 0,79,-1
 1067 408 l 0,80,-1
 1229 408 l 0,81,-1
 1229 49 l 0,0,1
EndSplineSet
EndChar

StartChar: D
Encoding: 39 68 39
Width: 1483
Flags: W
LayerCount: 2
Fore
SplineSet
1407 702 m 0,0,1
 1407 526 1407 526 1356.5 394.5 c 0,2,3
 1306 263 1306 263 1212.5 175 c 0,4,5
 1119 87 1119 87 987 43.5 c 0,6,7
 855 0 855 0 692 0 c 0,8,-1
 53 0 l 0,9,-1
 53 104 l 0,10,-1
 166 115 l 0,11,12
 184 117 184 117 198.5 128.5 c 0,13,14
 213 140 213 140 213 160 c 0,15,-1
 213 1214 l 0,16,17
 213 1234 213 1234 198.5 1246 c 0,18,19
 184 1258 184 1258 166 1260 c 0,20,-1
 53 1270 l 0,21,-1
 53 1374 l 0,22,-1
 680 1374 l 0,23,24
 855 1374 855 1374 990.5 1325 c 0,25,26
 1126 1276 1126 1276 1218.5 1187.5 c 0,27,28
 1311 1099 1311 1099 1359 975.5 c 0,29,30
 1407 852 1407 852 1407 702 c 0,0,1
1077 680 m 0,31,32
 1077 798 1077 798 1059 886.5 c 0,33,34
 1041 975 1041 975 1009.5 1038.5 c 0,35,36
 978 1102 978 1102 935 1144 c 0,37,38
 892 1186 892 1186 843 1210.5 c 0,39,40
 794 1235 794 1235 741 1245 c 0,41,42
 688 1255 688 1255 635 1255 c 0,43,-1
 506 1255 l 0,44,-1
 506 121 l 0,45,-1
 676 125 l 0,46,47
 720 126 720 126 767 137 c 0,48,49
 814 148 814 148 858.5 173 c 0,50,51
 903 198 903 198 942.5 239.5 c 0,52,53
 982 281 982 281 1012 342.5 c 0,54,55
 1042 404 1042 404 1059.5 487.5 c 0,56,57
 1077 571 1077 571 1077 680 c 0,31,32
EndSplineSet
EndChar

StartChar: E
Encoding: 40 69 40
Width: 1225
Flags: W
LayerCount: 2
Fore
SplineSet
53 0 m 0,0,-1
 53 104 l 0,1,-1
 166 115 l 0,2,3
 184 117 184 117 198.5 128.5 c 0,4,5
 213 140 213 140 213 160 c 0,6,-1
 213 1214 l 0,7,8
 213 1234 213 1234 198.5 1246 c 0,9,10
 184 1258 184 1258 166 1260 c 0,11,-1
 53 1270 l 0,12,-1
 53 1374 l 0,13,-1
 1098 1374 l 0,14,-1
 1098 1047 l 0,15,-1
 950 1047 l 0,16,-1
 918 1217 l 0,17,18
 914 1232 914 1232 904.5 1243.5 c 0,19,20
 895 1255 895 1255 881 1255 c 0,21,-1
 500 1255 l 0,22,-1
 500 774 l 0,23,-1
 743 774 l 0,24,25
 757 774 757 774 766.5 787 c 0,26,27
 776 800 776 800 778 811 c 0,28,-1
 797 950 l 0,29,-1
 924 950 l 0,30,-1
 924 469 l 0,31,-1
 797 469 l 0,32,-1
 778 608 l 0,33,34
 776 619 776 619 766.5 632 c 0,35,36
 757 645 757 645 743 645 c 0,37,-1
 500 645 l 0,38,-1
 500 123 l 0,39,-1
 946 123 l 0,40,41
 959 123 959 123 970 137 c 0,42,43
 981 151 981 151 983 162 c 0,44,-1
 1014 375 l 0,45,-1
 1163 375 l 0,46,-1
 1163 0 l 0,47,-1
 53 0 l 0,0,-1
EndSplineSet
EndChar

StartChar: F
Encoding: 41 70 41
Width: 1145
Flags: W
LayerCount: 2
Fore
SplineSet
942 1024 m 0,0,-1
 913 1210 l 0,1,2
 910 1226 910 1226 900.5 1237.5 c 0,3,4
 891 1249 891 1249 877 1249 c 0,5,-1
 506 1249 l 0,6,-1
 506 745 l 0,7,-1
 760 745 l 0,8,9
 774 745 774 745 783.5 758 c 0,10,11
 793 771 793 771 795 782 c 0,12,-1
 815 922 l 0,13,-1
 942 922 l 0,14,-1
 942 438 l 0,15,-1
 815 438 l 0,16,-1
 795 578 l 0,17,18
 793 589 793 589 782.5 601.5 c 0,19,20
 772 614 772 614 760 614 c 0,21,-1
 506 614 l 0,22,-1
 506 160 l 0,23,24
 506 140 506 140 519 128.5 c 0,25,26
 532 117 532 117 551 115 c 0,27,-1
 684 104 l 0,28,-1
 684 0 l 0,29,-1
 55 0 l 0,30,-1
 55 104 l 0,31,-1
 166 115 l 0,32,33
 184 117 184 117 198.5 128.5 c 0,34,35
 213 140 213 140 213 160 c 0,36,-1
 213 1214 l 0,37,38
 213 1234 213 1234 198.5 1246 c 0,39,40
 184 1258 184 1258 166 1260 c 0,41,-1
 49 1270 l 0,42,-1
 49 1374 l 0,43,-1
 1090 1374 l 0,44,-1
 1090 1024 l 0,45,-1
 942 1024 l 0,0,-1
EndSplineSet
EndChar

StartChar: G
Encoding: 42 71 42
Width: 1466
Flags: W
LayerCount: 2
Fore
SplineSet
1315 565 m 0,0,1
 1296 563 1296 563 1282 551.5 c 0,2,3
 1268 540 1268 540 1268 520 c 0,4,-1
 1268 63 l 0,5,6
 1207 36 1207 36 1133 15 c 0,7,8
 1069 -3 1069 -3 982.5 -18 c 0,9,10
 896 -33 896 -33 793 -33 c 0,11,12
 639 -33 639 -33 508 18.5 c 0,13,14
 377 70 377 70 281 165 c 0,15,16
 185 260 185 260 130.5 393 c 0,17,18
 76 526 76 526 76 690 c 0,19,20
 76 856 76 856 131 989 c 0,21,22
 186 1122 186 1122 283.5 1215 c 0,23,24
 381 1308 381 1308 515.5 1357.5 c 0,25,26
 650 1407 650 1407 809 1407 c 0,27,28
 910 1407 910 1407 994 1394.5 c 0,29,30
 1078 1382 1078 1382 1140 1367 c 0,31,32
 1212 1349 1212 1349 1270 1327 c 0,33,-1
 1270 973 l 0,34,-1
 1110 973 l 0,35,-1
 1069 1194 l 0,36,37
 1067 1205 1067 1205 1056 1218.5 c 0,38,39
 1045 1232 1045 1232 1032 1237 c 0,40,41
 984 1255 984 1255 943 1263.5 c 0,42,43
 902 1272 902 1272 885 1272 c 0,44,45
 796 1272 796 1272 724.5 1249.5 c 0,46,47
 653 1227 653 1227 598.5 1187.5 c 0,48,49
 544 1148 544 1148 505 1094 c 0,50,51
 466 1040 466 1040 441 976 c 0,52,53
 416 912 416 912 404.5 841.5 c 0,54,55
 393 771 393 771 393 698 c 0,56,57
 393 566 393 566 426 459.5 c 0,58,59
 459 353 459 353 522.5 277.5 c 0,60,61
 586 202 586 202 679 161.5 c 0,62,63
 772 121 772 121 893 121 c 0,64,65
 907 121 907 121 927.5 119.5 c 0,66,67
 948 118 948 118 985 121 c 0,68,-1
 985 520 l 0,69,70
 985 540 985 540 971 552.5 c 0,71,72
 957 565 957 565 938 565 c 0,73,-1
 801 575 l 0,74,-1
 801 680 l 0,75,-1
 1419 680 l 0,76,-1
 1419 575 l 0,77,-1
 1315 565 l 0,0,1
EndSplineSet
EndChar

StartChar: H
Encoding: 43 72 43
Width: 1575
Flags: W
LayerCount: 2
Fore
SplineSet
918 0 m 0,0,-1
 918 104 l 0,1,-1
 1024 115 l 0,2,3
 1043 117 1043 117 1056 128.5 c 0,4,5
 1069 140 1069 140 1069 160 c 0,6,-1
 1069 655 l 0,7,-1
 506 655 l 0,8,-1
 506 160 l 0,9,10
 506 140 506 140 519 128.5 c 0,11,12
 532 117 532 117 551 115 c 0,13,-1
 659 104 l 0,14,-1
 659 0 l 0,15,-1
 61 0 l 0,16,-1
 61 104 l 0,17,-1
 168 115 l 0,18,19
 187 117 187 117 200 128.5 c 0,20,21
 213 140 213 140 213 160 c 0,22,-1
 213 1214 l 0,23,24
 213 1234 213 1234 200 1246 c 0,25,26
 187 1258 187 1258 168 1260 c 0,27,-1
 61 1270 l 0,28,-1
 61 1374 l 0,29,-1
 659 1374 l 0,30,-1
 659 1270 l 0,31,-1
 551 1260 l 0,32,33
 532 1258 532 1258 519 1246 c 0,34,35
 506 1234 506 1234 506 1214 c 0,36,-1
 506 786 l 0,37,-1
 1069 786 l 0,38,-1
 1069 1214 l 0,39,40
 1069 1234 1069 1234 1056 1246 c 0,41,42
 1043 1258 1043 1258 1024 1260 c 0,43,-1
 918 1270 l 0,44,-1
 918 1374 l 0,45,-1
 1513 1374 l 0,46,-1
 1513 1270 l 0,47,-1
 1407 1260 l 0,48,49
 1390 1258 1390 1258 1376 1246 c 0,50,51
 1362 1234 1362 1234 1362 1214 c 0,52,-1
 1362 160 l 0,53,54
 1362 140 1362 140 1375 128.5 c 0,55,56
 1388 117 1388 117 1407 115 c 0,57,-1
 1513 104 l 0,58,-1
 1513 0 l 0,59,-1
 918 0 l 0,0,-1
EndSplineSet
EndChar

StartChar: I
Encoding: 44 73 44
Width: 735
Flags: W
LayerCount: 2
Fore
SplineSet
47 0 m 0,0,-1
 47 104 l 0,1,-1
 174 115 l 0,2,3
 193 117 193 117 206 128.5 c 0,4,5
 219 140 219 140 219 160 c 0,6,-1
 219 1214 l 0,7,8
 219 1234 219 1234 206 1246 c 0,9,10
 193 1258 193 1258 174 1260 c 0,11,-1
 47 1270 l 0,12,-1
 47 1374 l 0,13,-1
 686 1374 l 0,14,-1
 686 1270 l 0,15,-1
 559 1260 l 0,16,17
 542 1258 542 1258 527 1246 c 0,18,19
 512 1234 512 1234 512 1214 c 0,20,-1
 512 160 l 0,21,22
 512 140 512 140 527 128.5 c 0,23,24
 542 117 542 117 559 115 c 0,25,-1
 686 104 l 0,26,-1
 686 0 l 0,27,-1
 47 0 l 0,0,-1
EndSplineSet
EndChar

StartChar: J
Encoding: 45 74 45
Width: 1049
Flags: W
LayerCount: 2
Fore
SplineSet
879 1260 m 0,0,1
 860 1258 860 1258 847 1246 c 0,2,3
 834 1234 834 1234 834 1214 c 0,4,-1
 834 496 l 0,5,6
 834 377 834 377 806 280 c 0,7,8
 778 183 778 183 719.5 113 c 0,9,10
 661 43 661 43 570.5 5 c 0,11,12
 480 -33 480 -33 354 -33 c 0,13,14
 312 -33 312 -33 268 -27 c 0,15,16
 224 -21 224 -21 183.5 -12.5 c 0,17,18
 143 -4 143 -4 108 6 c 0,19,20
 73 16 73 16 49 25 c 0,21,-1
 49 399 l 0,22,-1
 209 399 l 0,23,-1
 256 125 l 0,24,25
 259 115 259 115 266 107 c 0,26,27
 272 100 272 100 282 95 c 0,28,29
 292 90 292 90 309 90 c 0,30,31
 366 90 366 90 409.5 111 c 0,32,33
 453 132 453 132 483 180 c 0,34,35
 513 228 513 228 528 307 c 0,36,37
 543 386 543 386 543 502 c 0,38,-1
 543 1214 l 0,39,40
 543 1234 543 1234 529 1246 c 0,41,42
 515 1258 515 1258 498 1260 c 0,43,-1
 371 1270 l 0,44,-1
 371 1374 l 0,45,-1
 1004 1374 l 0,46,-1
 1004 1270 l 0,47,-1
 879 1260 l 0,0,1
EndSplineSet
EndChar

StartChar: K
Encoding: 46 75 46
Width: 1397
Flags: W
LayerCount: 2
Fore
SplineSet
952 0 m 0,0,-1
 952 76 l 0,1,-1
 618 600 l 0,2,-1
 506 600 l 0,3,-1
 506 160 l 0,4,5
 506 140 506 140 519 128.5 c 0,6,7
 532 117 532 117 551 115 c 0,8,-1
 659 104 l 0,9,-1
 659 0 l 0,10,-1
 59 0 l 0,11,-1
 59 104 l 0,12,-1
 168 115 l 0,13,14
 187 117 187 117 200 128.5 c 0,15,16
 213 140 213 140 213 160 c 0,17,-1
 213 1214 l 0,18,19
 213 1234 213 1234 200 1246 c 0,20,21
 187 1258 187 1258 168 1260 c 0,22,-1
 59 1270 l 0,23,-1
 59 1374 l 0,24,-1
 659 1374 l 0,25,-1
 659 1270 l 0,26,-1
 551 1260 l 0,27,28
 532 1258 532 1258 519 1246 c 0,29,30
 506 1234 506 1234 506 1214 c 0,31,-1
 506 698 l 0,32,-1
 563 698 l 0,33,-1
 1004 1235 l 0,34,35
 1009 1241 1009 1241 1006.5 1250.5 c 0,36,37
 1004 1260 1004 1260 993 1260 c 0,38,-1
 877 1270 l 0,39,-1
 877 1374 l 0,40,-1
 1346 1374 l 0,41,-1
 1346 1270 l 0,42,43
 1324 1268 1324 1268 1299 1266 c 0,44,45
 1278 1264 1278 1264 1252.5 1261.5 c 0,46,47
 1227 1259 1227 1259 1202 1257 c 0,48,-1
 821 803 l 0,49,-1
 1251 117 l 0,50,-1
 1397 104 l 0,51,-1
 1397 0 l 0,52,-1
 952 0 l 0,0,-1
EndSplineSet
EndChar

StartChar: L
Encoding: 47 76 47
Width: 1135
Flags: W
LayerCount: 2
Fore
SplineSet
55 0 m 0,0,-1
 55 104 l 0,1,-1
 168 115 l 0,2,3
 187 117 187 117 200 128.5 c 0,4,5
 213 140 213 140 213 160 c 0,6,-1
 213 1214 l 0,7,8
 213 1234 213 1234 200 1246 c 0,9,10
 187 1258 187 1258 168 1260 c 0,11,-1
 55 1270 l 0,12,-1
 55 1374 l 0,13,-1
 666 1374 l 0,14,-1
 666 1270 l 0,15,-1
 551 1260 l 0,16,17
 532 1258 532 1258 519 1246 c 0,18,19
 506 1234 506 1234 506 1214 c 0,20,-1
 506 125 l 0,21,-1
 862 125 l 0,22,23
 873 125 873 125 881.5 130 c 0,24,25
 890 135 890 135 896.5 142.5 c 0,26,27
 903 150 903 150 906.5 158 c 0,28,29
 910 166 910 166 911 172 c 0,30,-1
 938 408 l 0,31,-1
 1102 408 l 0,32,-1
 1102 0 l 0,33,-1
 55 0 l 0,0,-1
EndSplineSet
EndChar

StartChar: M
Encoding: 48 77 48
Width: 1849
Flags: W
LayerCount: 2
Fore
SplineSet
1196 0 m 0,0,-1
 1196 104 l 0,1,-1
 1296 115 l 0,2,3
 1313 117 1313 117 1327 128.5 c 0,4,5
 1341 140 1341 140 1341 160 c 0,6,-1
 1341 1235 l 0,7,-1
 930 0 l 0,8,-1
 772 0 l 0,9,-1
 369 1227 l 0,10,-1
 369 160 l 0,11,12
 369 140 369 140 383 128.5 c 0,13,14
 397 117 397 117 414 115 c 0,15,-1
 524 104 l 0,16,-1
 524 0 l 0,17,-1
 51 0 l 0,18,-1
 51 104 l 0,19,-1
 166 115 l 0,20,21
 184 117 184 117 198.5 128.5 c 0,22,23
 213 140 213 140 213 160 c 0,24,-1
 213 1214 l 0,25,26
 213 1234 213 1234 198.5 1246 c 0,27,28
 184 1258 184 1258 166 1260 c 0,29,-1
 51 1270 l 0,30,-1
 51 1374 l 0,31,-1
 639 1374 l 0,32,-1
 639 1317 l 0,33,-1
 928 440 l 0,34,-1
 1214 1317 l 0,35,-1
 1214 1374 l 0,36,-1
 1796 1374 l 0,37,-1
 1796 1270 l 0,38,-1
 1679 1260 l 0,39,40
 1661 1258 1661 1258 1647.5 1246 c 0,41,42
 1634 1234 1634 1234 1634 1214 c 0,43,-1
 1634 160 l 0,44,45
 1634 140 1634 140 1647.5 128.5 c 0,46,47
 1661 117 1661 117 1679 115 c 0,48,-1
 1796 104 l 0,49,-1
 1796 0 l 0,50,-1
 1196 0 l 0,0,-1
EndSplineSet
EndChar

StartChar: N
Encoding: 49 78 49
Width: 1524
Flags: W
LayerCount: 2
Fore
SplineSet
1354 1260 m 0,0,1
 1337 1258 1337 1258 1323 1246 c 0,2,3
 1309 1234 1309 1234 1309 1214 c 0,4,-1
 1309 0 l 0,5,-1
 1059 0 l 0,6,-1
 369 1083 l 0,7,-1
 369 160 l 0,8,9
 369 140 369 140 383 128.5 c 0,10,11
 397 117 397 117 414 115 c 0,12,-1
 528 104 l 0,13,-1
 528 0 l 0,14,-1
 55 0 l 0,15,-1
 55 104 l 0,16,-1
 168 115 l 0,17,18
 187 117 187 117 200 128.5 c 0,19,20
 213 140 213 140 213 160 c 0,21,-1
 213 1214 l 0,22,23
 213 1234 213 1234 200 1246 c 0,24,25
 187 1258 187 1258 168 1260 c 0,26,-1
 57 1270 l 0,27,-1
 57 1374 l 0,28,-1
 563 1374 l 0,29,-1
 563 1319 l 0,30,-1
 1153 395 l 0,31,-1
 1153 1214 l 0,32,33
 1153 1234 1153 1234 1138.5 1246 c 0,34,35
 1124 1258 1124 1258 1106 1260 c 0,36,-1
 989 1270 l 0,37,-1
 989 1374 l 0,38,-1
 1464 1374 l 0,39,-1
 1464 1270 l 0,40,-1
 1354 1260 l 0,0,1
EndSplineSet
EndChar

StartChar: O
Encoding: 50 79 50
Width: 1548
Flags: W
LayerCount: 2
Fore
SplineSet
1475 680 m 0,0,1
 1475 533 1475 533 1425.5 403.5 c 0,2,3
 1376 274 1376 274 1285 177 c 0,4,5
 1194 80 1194 80 1067 23.5 c 0,6,7
 940 -33 940 -33 786 -33 c 0,8,9
 633 -33 633 -33 502.5 15.5 c 0,10,11
 372 64 372 64 277.5 157 c 0,12,13
 183 250 183 250 129.5 386 c 0,14,15
 76 522 76 522 76 696 c 0,16,17
 76 847 76 847 123 977.5 c 0,18,19
 170 1108 170 1108 258.5 1203 c 0,20,21
 347 1298 347 1298 475.5 1352.5 c 0,22,23
 604 1407 604 1407 768 1407 c 0,24,25
 874 1407 874 1407 968 1380.5 c 0,26,27
 1062 1354 1062 1354 1140.5 1306.5 c 0,28,29
 1219 1259 1219 1259 1281 1192.5 c 0,30,31
 1343 1126 1343 1126 1386 1045 c 0,32,33
 1429 964 1429 964 1452 871.5 c 0,34,35
 1475 779 1475 779 1475 680 c 0,0,1
1145 672 m 0,36,37
 1145 792 1145 792 1122.5 900.5 c 0,38,39
 1100 1009 1100 1009 1055 1091 c 0,40,41
 1010 1173 1010 1173 942.5 1221.5 c 0,42,43
 875 1270 875 1270 786 1270 c 0,44,45
 715 1270 715 1270 659 1246 c 0,46,47
 603 1222 603 1222 560.5 1180.5 c 0,48,49
 518 1139 518 1139 488 1083 c 0,50,51
 458 1027 458 1027 439 962.5 c 0,52,53
 420 898 420 898 411.5 828.5 c 0,54,55
 403 759 403 759 403 690 c 0,56,57
 403 617 403 617 412.5 545 c 0,58,59
 422 473 422 473 441 407 c 0,60,61
 460 341 460 341 490 284 c 0,62,63
 520 227 520 227 560 185.5 c 0,64,65
 600 144 600 144 651.5 120 c 0,66,67
 703 96 703 96 766 96 c 0,68,69
 834 96 834 96 889 120.5 c 0,70,71
 944 145 944 145 986 187 c 0,72,73
 1028 229 1028 229 1058 285 c 0,74,75
 1088 341 1088 341 1107.5 405 c 0,76,77
 1127 469 1127 469 1136 537.5 c 0,78,79
 1145 606 1145 606 1145 672 c 0,36,37
EndSplineSet
EndChar

StartChar: P
Encoding: 51 80 51
Width: 1253
Flags: W
LayerCount: 2
Fore
SplineSet
872 948 m 0,0,1
 872 1020 872 1020 854 1076 c 0,2,3
 836 1132 836 1132 803 1170.5 c 0,4,5
 770 1209 770 1209 724 1229 c 0,6,7
 678 1249 678 1249 621 1249 c 0,8,-1
 506 1249 l 0,9,-1
 506 631 l 0,10,11
 518 630 518 630 525.5 629.5 c 0,12,13
 533 629 533 629 538 629 c 0,14,-1
 561 629 l 0,15,16
 632 630 632 630 689.5 647 c 0,17,18
 747 664 747 664 787.5 702 c 0,19,20
 828 740 828 740 850 800.5 c 0,21,22
 872 861 872 861 872 948 c 0,0,1
1178 958 m 0,23,24
 1178 870 1178 870 1156.5 802.5 c 0,25,26
 1135 735 1135 735 1097 684.5 c 0,27,28
 1059 634 1059 634 1007.5 599.5 c 0,29,30
 956 565 956 565 896.5 544 c 0,31,32
 837 523 837 523 771.5 513.5 c 0,33,34
 706 504 706 504 641 504 c 0,35,36
 612 504 612 504 580 503.5 c 0,37,38
 548 503 548 503 506 508 c 0,39,-1
 506 160 l 0,40,41
 506 140 506 140 519 128.5 c 0,42,43
 532 117 532 117 551 115 c 0,44,-1
 680 104 l 0,45,-1
 680 0 l 0,46,-1
 53 0 l 0,47,-1
 53 104 l 0,48,-1
 166 115 l 0,49,50
 184 117 184 117 198.5 128.5 c 0,51,52
 213 140 213 140 213 160 c 0,53,-1
 213 1214 l 0,54,55
 213 1234 213 1234 198.5 1246 c 0,56,57
 184 1258 184 1258 166 1260 c 0,58,-1
 47 1270 l 0,59,-1
 47 1374 l 0,60,-1
 621 1374 l 0,61,62
 690 1374 690 1374 758 1368.5 c 0,63,64
 826 1363 826 1363 888 1346.5 c 0,65,66
 950 1330 950 1330 1003 1301.5 c 0,67,68
 1056 1273 1056 1273 1095 1226.5 c 0,69,70
 1134 1180 1134 1180 1156 1114 c 0,71,72
 1178 1048 1178 1048 1178 958 c 0,23,24
EndSplineSet
EndChar

StartChar: Q
Encoding: 52 81 52
Width: 1548
Flags: W
LayerCount: 2
Fore
SplineSet
1407 -330 m 0,0,1
 1301 -354 1301 -354 1214 -365.5 c 0,2,3
 1127 -377 1127 -377 1044 -377 c 0,4,5
 934 -377 934 -377 856 -351.5 c 0,6,7
 778 -326 778 -326 729 -279.5 c 0,8,9
 680 -233 680 -233 657 -167 c 0,10,11
 634 -101 634 -101 633 -20 c 0,12,13
 509 2 509 2 406.5 59.5 c 0,14,15
 304 117 304 117 230.5 208 c 0,16,17
 157 299 157 299 116.5 421.5 c 0,18,19
 76 544 76 544 76 696 c 0,20,21
 76 847 76 847 123 977.5 c 0,22,23
 170 1108 170 1108 258.5 1203 c 0,24,25
 347 1298 347 1298 475.5 1352.5 c 0,26,27
 604 1407 604 1407 768 1407 c 0,28,29
 874 1407 874 1407 968 1380.5 c 0,30,31
 1062 1354 1062 1354 1140.5 1306.5 c 0,32,33
 1219 1259 1219 1259 1281 1192.5 c 0,34,35
 1343 1126 1343 1126 1386 1045 c 0,36,37
 1429 964 1429 964 1452 871.5 c 0,38,39
 1475 779 1475 779 1475 680 c 0,40,41
 1475 552 1475 552 1437 437 c 0,42,43
 1399 322 1399 322 1329 229.5 c 0,44,45
 1259 137 1259 137 1159.5 73 c 0,46,47
 1060 9 1060 9 938 -16 c 0,48,49
 936 -72 936 -72 958.5 -114.5 c 0,50,51
 981 -157 981 -157 1019.5 -186.5 c 0,52,53
 1058 -216 1058 -216 1109.5 -231 c 0,54,55
 1161 -246 1161 -246 1217 -246 c 0,56,57
 1247 -246 1247 -246 1293 -241.5 c 0,58,59
 1339 -237 1339 -237 1407 -221 c 0,60,-1
 1407 -330 l 0,0,1
1145 672 m 0,61,62
 1145 792 1145 792 1122.5 900.5 c 0,63,64
 1100 1009 1100 1009 1055 1091 c 0,65,66
 1010 1173 1010 1173 942.5 1221.5 c 0,67,68
 875 1270 875 1270 786 1270 c 0,69,70
 715 1270 715 1270 659 1246 c 0,71,72
 603 1222 603 1222 560.5 1180.5 c 0,73,74
 518 1139 518 1139 488 1083 c 0,75,76
 458 1027 458 1027 439 962.5 c 0,77,78
 420 898 420 898 411.5 828.5 c 0,79,80
 403 759 403 759 403 690 c 0,81,82
 403 617 403 617 412.5 545 c 0,83,84
 422 473 422 473 441 407 c 0,85,86
 460 341 460 341 490 284 c 0,87,88
 520 227 520 227 560 185.5 c 0,89,90
 600 144 600 144 651.5 120 c 0,91,92
 703 96 703 96 766 96 c 0,93,94
 834 96 834 96 889 120.5 c 0,95,96
 944 145 944 145 986 187 c 0,97,98
 1028 229 1028 229 1058 285 c 0,99,100
 1088 341 1088 341 1107.5 405 c 0,101,102
 1127 469 1127 469 1136 537.5 c 0,103,104
 1145 606 1145 606 1145 672 c 0,61,62
EndSplineSet
EndChar

StartChar: R
Encoding: 53 82 53
Width: 1442
Flags: W
LayerCount: 2
Fore
SplineSet
877 995 m 0,0,1
 877 1125 877 1125 799 1188 c 0,2,3
 721 1251 721 1251 571 1251 c 0,4,5
 563 1252 563 1252 552 1252 c 0,6,-1
 531 1252 l 0,7,8
 519 1252 519 1252 506 1251 c 0,9,-1
 506 727 l 0,10,11
 532 725 532 725 548.5 724 c 0,12,13
 565 723 565 723 573 723 c 0,14,15
 621 723 621 723 674.5 732.5 c 0,16,17
 728 742 728 742 773 771.5 c 0,18,19
 818 801 818 801 847.5 854.5 c 0,20,21
 877 908 877 908 877 995 c 0,0,1
1442 0 m 0,22,23
 1374 -8 1374 -8 1325.5 -20.5 c 0,24,25
 1277 -33 1277 -33 1239 -33 c 0,26,27
 1140 -33 1140 -33 1074 -5.5 c 0,28,29
 1008 22 1008 22 964.5 66.5 c 0,30,31
 921 111 921 111 894 168 c 0,32,33
 867 225 867 225 845.5 284.5 c 0,34,35
 824 344 824 344 803 401 c 0,36,37
 782 458 782 458 750 502.5 c 0,38,39
 718 547 718 547 670 574.5 c 0,40,41
 622 602 622 602 547 602 c 0,42,-1
 506 602 l 0,43,-1
 506 160 l 0,44,45
 506 140 506 140 519 128.5 c 0,46,47
 532 117 532 117 551 115 c 0,48,-1
 664 104 l 0,49,-1
 664 0 l 0,50,-1
 57 0 l 0,51,-1
 57 104 l 0,52,-1
 166 115 l 0,53,54
 184 117 184 117 198.5 128.5 c 0,55,56
 213 140 213 140 213 160 c 0,57,-1
 213 1214 l 0,58,59
 213 1234 213 1234 198.5 1246 c 0,60,61
 184 1258 184 1258 166 1260 c 0,62,-1
 57 1270 l 0,63,-1
 57 1374 l 0,64,-1
 737 1374 l 0,65,66
 775 1374 775 1374 823 1369 c 0,67,68
 871 1364 871 1364 920.5 1350.5 c 0,69,70
 970 1337 970 1337 1017.5 1313 c 0,71,72
 1065 1289 1065 1289 1102 1251.5 c 0,73,74
 1139 1214 1139 1214 1161.5 1160.5 c 0,75,76
 1184 1107 1184 1107 1184 1034 c 0,77,78
 1184 965 1184 965 1165.5 913 c 0,79,80
 1147 861 1147 861 1116.5 822.5 c 0,81,82
 1086 784 1086 784 1047.5 757.5 c 0,83,84
 1009 731 1009 731 969 714.5 c 0,85,86
 929 698 929 698 892 689 c 0,87,88
 855 680 855 680 827 676 c 0,89,90
 894 663 894 663 941 637.5 c 0,91,92
 988 612 988 612 1020 578 c 0,93,94
 1052 544 1052 544 1072.5 504 c 0,95,96
 1093 464 1093 464 1107.5 421.5 c 0,97,98
 1122 379 1122 379 1133.5 337 c 0,99,100
 1145 295 1145 295 1160 257 c 0,101,102
 1175 219 1175 219 1195.5 187.5 c 0,103,104
 1216 156 1216 156 1248 134.5 c 0,105,106
 1280 113 1280 113 1327 104.5 c 0,107,108
 1374 96 1374 96 1442 104 c 0,109,-1
 1442 0 l 0,22,23
EndSplineSet
EndChar

StartChar: S
Encoding: 54 83 54
Width: 1098
Flags: W
LayerCount: 2
Fore
SplineSet
1022 401 m 0,0,1
 1022 293 1022 293 977 211.5 c 0,2,3
 932 130 932 130 856.5 76 c 0,4,5
 781 22 781 22 682 -5.5 c 0,6,7
 583 -33 583 -33 475 -33 c 0,8,9
 394 -33 394 -33 322.5 -21 c 0,10,11
 251 -9 251 -9 196 6 c 0,12,13
 132 23 132 23 76 45 c 0,14,-1
 76 420 l 0,15,-1
 238 420 l 0,16,-1
 272 172 l 0,17,18
 274 160 274 160 284 150.5 c 0,19,20
 294 141 294 141 299 141 c 0,21,22
 323 131 323 131 349 123 c 0,23,24
 372 116 372 116 400 111 c 0,25,26
 428 106 428 106 457 106 c 0,27,28
 502 106 502 106 549 117 c 0,29,30
 596 128 596 128 634.5 151 c 0,31,32
 673 174 673 174 697 211 c 0,33,34
 721 248 721 248 721 299 c 0,35,36
 721 363 721 363 691 409.5 c 0,37,38
 661 456 661 456 613 493.5 c 0,39,40
 565 531 565 531 504.5 562.5 c 0,41,42
 444 594 444 594 383 627 c 0,43,44
 329 656 329 656 278.5 689.5 c 0,45,46
 228 723 228 723 189 766 c 0,47,48
 150 809 150 809 127 864 c 0,49,50
 104 919 104 919 104 991 c 0,51,52
 104 1091 104 1091 144 1168.5 c 0,53,54
 184 1246 184 1246 252 1299 c 0,55,56
 320 1352 320 1352 409.5 1379.5 c 0,57,58
 499 1407 499 1407 598 1407 c 0,59,60
 676 1407 676 1407 746 1394 c 0,61,62
 816 1381 816 1381 870 1366 c 0,63,64
 932 1348 932 1348 985 1325 c 0,65,-1
 985 989 l 0,66,-1
 827 989 l 0,67,-1
 793 1208 l 0,68,69
 792 1212 792 1212 787.5 1217 c 0,70,71
 783 1222 783 1222 778 1227 c 0,72,73
 772 1232 772 1232 764 1237 c 0,74,75
 753 1246 753 1246 735 1253 c 0,76,77
 720 1259 720 1259 697 1264.5 c 0,78,79
 674 1270 674 1270 641 1270 c 0,80,81
 590 1270 590 1270 544.5 1258 c 0,82,83
 499 1246 499 1246 464.5 1223 c 0,84,85
 430 1200 430 1200 409.5 1165 c 0,86,87
 389 1130 389 1130 389 1085 c 0,88,89
 389 1031 389 1031 412 989.5 c 0,90,91
 435 948 435 948 473.5 915 c 0,92,93
 512 882 512 882 562 855 c 0,94,95
 612 828 612 828 666 801 c 0,96,97
 730 769 730 769 793.5 734 c 0,98,99
 857 699 857 699 908 653.5 c 0,100,101
 959 608 959 608 990.5 547 c 0,102,103
 1022 486 1022 486 1022 401 c 0,0,1
EndSplineSet
EndChar

StartChar: T
Encoding: 55 84 55
Width: 1247
Flags: W
LayerCount: 2
Fore
SplineSet
1065 999 m 0,0,-1
 1028 1227 l 0,1,2
 1025 1251 1025 1251 999 1251 c 0,3,-1
 770 1251 l 0,4,-1
 770 160 l 0,5,6
 770 140 770 140 783.5 128.5 c 0,7,8
 797 117 797 117 815 115 c 0,9,-1
 936 104 l 0,10,-1
 936 0 l 0,11,-1
 311 0 l 0,12,-1
 311 104 l 0,13,-1
 430 115 l 0,14,15
 449 117 449 117 463 128.5 c 0,16,17
 477 140 477 140 477 160 c 0,18,-1
 477 1251 l 0,19,-1
 248 1251 l 0,20,21
 220 1251 220 1251 217 1227 c 0,22,-1
 180 999 l 0,23,-1
 33 999 l 0,24,-1
 33 1374 l 0,25,-1
 1214 1374 l 0,26,-1
 1214 999 l 0,27,-1
 1065 999 l 0,0,-1
EndSplineSet
EndChar

StartChar: U
Encoding: 56 85 56
Width: 1493
Flags: W
LayerCount: 2
Fore
SplineSet
1331 1260 m 0,0,1
 1314 1258 1314 1258 1300 1246 c 0,2,3
 1286 1234 1286 1234 1286 1214 c 0,4,-1
 1286 520 l 0,5,6
 1286 369 1286 369 1252 263.5 c 0,7,8
 1218 158 1218 158 1149 92 c 0,9,10
 1080 26 1080 26 974.5 -3.5 c 0,11,12
 869 -33 869 -33 725 -33 c 0,13,14
 461 -33 461 -33 332 108.5 c 0,15,16
 203 250 203 250 203 520 c 0,17,-1
 203 1214 l 0,18,19
 203 1234 203 1234 188.5 1246 c 0,20,21
 174 1258 174 1258 156 1260 c 0,22,-1
 45 1270 l 0,23,-1
 45 1374 l 0,24,-1
 651 1374 l 0,25,-1
 651 1270 l 0,26,-1
 541 1260 l 0,27,28
 524 1258 524 1258 510 1246 c 0,29,30
 496 1234 496 1234 496 1214 c 0,31,-1
 496 504 l 0,32,33
 496 312 496 312 577 224.5 c 0,34,35
 658 137 658 137 827 137 c 0,36,37
 908 137 908 137 965 163.5 c 0,38,39
 1022 190 1022 190 1059 238 c 0,40,41
 1096 286 1096 286 1113 353.5 c 0,42,43
 1130 421 1130 421 1130 504 c 0,44,-1
 1130 1214 l 0,45,46
 1130 1234 1130 1234 1117 1246 c 0,47,48
 1104 1258 1104 1258 1085 1260 c 0,49,-1
 969 1270 l 0,50,-1
 969 1374 l 0,51,-1
 1440 1374 l 0,52,-1
 1440 1270 l 0,53,-1
 1331 1260 l 0,0,1
EndSplineSet
EndChar

StartChar: V
Encoding: 57 86 57
Width: 1446
Flags: W
LayerCount: 2
Fore
SplineSet
1296 1253 m 0,0,-1
 825 -33 l 0,1,-1
 631 -33 l 0,2,-1
 152 1251 l 0,3,-1
 20 1270 l 0,4,-1
 20 1374 l 0,5,-1
 604 1374 l 0,6,-1
 604 1270 l 0,7,-1
 489 1255 l 0,8,9
 471 1252 471 1252 467.5 1237.5 c 0,10,11
 464 1223 464 1223 469 1210 c 0,12,-1
 793 319 l 0,13,-1
 1106 1212 l 0,14,15
 1109 1225 1109 1225 1104.5 1238.5 c 0,16,17
 1100 1252 1100 1252 1077 1255 c 0,18,-1
 967 1270 l 0,19,-1
 967 1374 l 0,20,-1
 1425 1374 l 0,21,-1
 1425 1270 l 0,22,-1
 1296 1253 l 0,0,-1
EndSplineSet
EndChar

StartChar: W
Encoding: 58 87 58
Width: 1978
Flags: W
LayerCount: 2
Fore
SplineSet
1833 1253 m 0,0,-1
 1511 -33 l 0,1,-1
 1317 -33 l 0,2,-1
 997 1032 l 0,3,-1
 684 -33 l 0,4,-1
 487 -33 l 0,5,-1
 145 1253 l 0,6,-1
 20 1270 l 0,7,-1
 20 1374 l 0,8,-1
 578 1374 l 0,9,-1
 578 1270 l 0,10,-1
 457 1257 l 0,11,12
 438 1255 438 1255 436.5 1241 c 0,13,14
 435 1227 435 1227 438 1214 c 0,15,-1
 655 403 l 0,16,-1
 942 1374 l 0,17,-1
 1163 1374 l 0,18,-1
 1460 381 l 0,19,-1
 1665 1214 l 0,20,21
 1668 1227 1668 1227 1663 1240.5 c 0,22,23
 1658 1254 1658 1254 1636 1257 c 0,24,-1
 1505 1270 l 0,25,-1
 1505 1374 l 0,26,-1
 1958 1374 l 0,27,-1
 1958 1270 l 0,28,-1
 1833 1253 l 0,0,-1
EndSplineSet
EndChar

StartChar: X
Encoding: 59 88 59
Width: 1374
Flags: W
LayerCount: 2
Fore
SplineSet
739 0 m 0,0,-1
 739 104 l 0,1,-1
 864 113 l 0,2,3
 878 115 878 115 882.5 129 c 0,4,5
 887 143 887 143 874 162 c 0,6,-1
 645 522 l 0,7,-1
 369 164 l 0,8,9
 361 155 361 155 360 146.5 c 0,10,11
 359 138 359 138 362 131 c 0,12,13
 365 124 365 124 370.5 120 c 0,14,15
 376 116 376 116 381 115 c 0,16,-1
 504 104 l 0,17,-1
 504 0 l 0,18,-1
 20 0 l 0,19,-1
 20 104 l 0,20,-1
 152 121 l 0,21,-1
 559 655 l 0,22,-1
 176 1251 l 0,23,-1
 47 1270 l 0,24,-1
 47 1374 l 0,25,-1
 647 1374 l 0,26,-1
 647 1270 l 0,27,-1
 539 1260 l 0,28,29
 528 1260 528 1260 522 1245 c 0,30,31
 516 1230 516 1230 528 1210 c 0,32,-1
 733 887 l 0,33,-1
 985 1212 l 0,34,35
 999 1229 999 1229 993 1245.5 c 0,36,37
 987 1262 987 1262 973 1262 c 0,38,-1
 864 1270 l 0,39,-1
 864 1374 l 0,40,-1
 1331 1374 l 0,41,-1
 1331 1270 l 0,42,-1
 1202 1251 l 0,43,-1
 819 754 l 0,44,-1
 1225 121 l 0,45,-1
 1354 104 l 0,46,-1
 1354 0 l 0,47,-1
 739 0 l 0,0,-1
EndSplineSet
EndChar

StartChar: Y
Encoding: 60 89 60
Width: 1358
Flags: W
LayerCount: 2
Fore
SplineSet
1219 1251 m 0,0,-1
 840 594 l 0,1,-1
 840 160 l 0,2,3
 840 140 840 140 853 128.5 c 0,4,5
 866 117 866 117 885 115 c 0,6,-1
 1010 104 l 0,7,-1
 1010 0 l 0,8,-1
 375 0 l 0,9,-1
 375 104 l 0,10,-1
 500 115 l 0,11,12
 517 117 517 117 532 128.5 c 0,13,14
 547 140 547 140 547 160 c 0,15,-1
 547 537 l 0,16,-1
 152 1251 l 0,17,-1
 20 1270 l 0,18,-1
 20 1374 l 0,19,-1
 602 1374 l 0,20,-1
 602 1270 l 0,21,-1
 494 1260 l 0,22,23
 483 1260 483 1260 477.5 1245 c 0,24,25
 472 1230 472 1230 483 1210 c 0,26,-1
 741 725 l 0,27,-1
 1020 1212 l 0,28,29
 1031 1231 1031 1231 1027.5 1246.5 c 0,30,31
 1024 1262 1024 1262 1010 1262 c 0,32,-1
 885 1270 l 0,33,-1
 885 1374 l 0,34,-1
 1337 1374 l 0,35,-1
 1337 1270 l 0,36,-1
 1219 1251 l 0,0,-1
EndSplineSet
EndChar

StartChar: Z
Encoding: 61 90 61
Width: 1190
Flags: W
LayerCount: 2
Fore
SplineSet
76 0 m 0,0,-1
 76 121 l 0,1,-1
 778 1249 l 0,2,-1
 326 1249 l 0,3,4
 300 1249 300 1249 297 1225 c 0,5,-1
 260 1001 l 0,6,-1
 111 1001 l 0,7,-1
 111 1374 l 0,8,-1
 1104 1374 l 0,9,-1
 1104 1253 l 0,10,-1
 403 127 l 0,11,-1
 893 127 l 0,12,13
 918 127 918 127 924 150 c 0,14,-1
 965 403 l 0,15,-1
 1114 403 l 0,16,-1
 1114 0 l 0,17,-1
 76 0 l 0,0,-1
EndSplineSet
EndChar

StartChar: bracketleft
Encoding: 62 91 62
Width: 1122
Flags: W
LayerCount: 2
Fore
SplineSet
480 -270 m 0,0,-1
 480 1450 l 0,1,-1
 1048 1450 l 0,2,-1
 1048 1327 l 0,3,-1
 734 1327 l 0,4,-1
 734 -152 l 0,5,-1
 1048 -152 l 0,6,-1
 1048 -270 l 0,7,-1
 480 -270 l 0,0,-1
EndSplineSet
EndChar

StartChar: backslash
Encoding: 63 92 63
Width: 1012
Flags: W
LayerCount: 2
Fore
SplineSet
852 -190 m 0,0,-1
 0 1374 l 0,1,-1
 160 1374 l 0,2,-1
 1012 -190 l 0,3,-1
 852 -190 l 0,0,-1
EndSplineSet
EndChar

StartChar: bracketright
Encoding: 64 93 64
Width: 1206
Flags: W
LayerCount: 2
Fore
SplineSet
74 -270 m 0,0,-1
 74 -152 l 0,1,-1
 387 -152 l 0,2,-1
 387 1327 l 0,3,-1
 74 1327 l 0,4,-1
 74 1450 l 0,5,-1
 641 1450 l 0,6,-1
 641 -270 l 0,7,-1
 74 -270 l 0,0,-1
EndSplineSet
EndChar

StartChar: asciicircum
Encoding: 65 94 65
Width: 696
Flags: W
LayerCount: 2
Fore
SplineSet
524 1126 m 1,0,-1
 348 1321 l 1,1,-1
 172 1126 l 1,2,-1
 2 1126 l 1,3,-1
 227 1477 l 1,4,-1
 469 1477 l 1,5,-1
 694 1126 l 1,6,-1
 524 1126 l 1,0,-1
EndSplineSet
Refer: 360 770 N 1 0 0 1 946 0 2
EndChar

StartChar: underscore
Encoding: 66 95 66
Width: 696
Flags: W
LayerCount: 2
Fore
SplineSet
0 -340 m 0,0,-1
 0 -175 l 0,1,-1
 696 -175 l 0,2,-1
 696 -340 l 0,3,-1
 0 -340 l 0,0,-1
EndSplineSet
EndChar

StartChar: grave
Encoding: 67 96 67
Width: 766
Flags: W
LayerCount: 2
Fore
SplineSet
383 1126 m 1,0,-1
 51 1307 l 2,1,2
 41 1311 41 1311 33 1321 c 128,-1,3
 25 1331 25 1331 18.5 1342.5 c 128,-1,4
 12 1354 12 1354 9 1366 c 128,-1,5
 6 1378 6 1378 6 1386 c 0,6,7
 6 1402 6 1402 11 1422 c 128,-1,8
 16 1442 16 1442 29.5 1457.5 c 128,-1,9
 43 1473 43 1473 64.5 1482 c 128,-1,10
 86 1491 86 1491 119 1491 c 0,11,12
 139 1491 139 1491 154.5 1489 c 128,-1,13
 170 1487 170 1487 184.5 1480 c 128,-1,14
 199 1473 199 1473 213 1460.5 c 128,-1,15
 227 1448 227 1448 244 1430 c 2,16,-1
 522 1120 l 1,17,-1
 383 1126 l 1,0,-1
EndSplineSet
Refer: 358 768 N 1 0 0 1 923 0 2
EndChar

StartChar: a
Encoding: 68 97 68
Width: 1133
Flags: W
LayerCount: 2
Fore
SplineSet
690 528 m 0,0,1
 591 508 591 508 526.5 487 c 0,2,3
 462 466 462 466 424 439 c 0,4,5
 386 412 386 412 371 377.5 c 0,6,7
 356 343 356 343 356 297 c 0,8,9
 356 265 356 265 366.5 237.5 c 0,10,11
 377 210 377 210 396.5 189.5 c 0,12,13
 416 169 416 169 443 157 c 0,14,15
 470 145 470 145 502 145 c 0,16,17
 535 145 535 145 568.5 152 c 0,18,19
 602 159 602 159 629 167 c 0,20,21
 661 177 661 177 690 190 c 0,22,-1
 690 528 l 0,0,1
717 0 m 0,23,-1
 690 102 l 0,24,25
 637 66 637 66 579 38 c 0,26,27
 528 14 528 14 465 -5.5 c 0,28,29
 402 -25 402 -25 334 -25 c 0,30,31
 278 -25 278 -25 229.5 -6.5 c 0,32,33
 181 12 181 12 144.5 46.5 c 0,34,35
 108 81 108 81 87 130 c 0,36,37
 66 179 66 179 66 240 c 0,38,39
 66 286 66 286 73.5 325 c 0,40,41
 81 364 81 364 103.5 397.5 c 0,42,43
 126 431 126 431 168 461.5 c 0,44,45
 210 492 210 492 279.5 521 c 0,46,47
 349 550 349 550 450 579 c 0,48,49
 551 608 551 608 692 639 c 0,50,-1
 692 664 l 0,51,52
 692 679 692 679 693 691 c 0,53,54
 693 705 693 705 694 719 c 0,55,56
 695 748 695 748 688 781.5 c 0,57,58
 681 815 681 815 660 843.5 c 0,59,60
 639 872 639 872 601 890.5 c 0,61,62
 563 909 563 909 502 909 c 0,63,64
 481 909 481 909 464.5 908 c 0,65,66
 448 907 448 907 437 905 c 0,67,68
 424 903 424 903 414 901 c 0,69,-1
 414 707 l 0,70,-1
 203 707 l 0,71,72
 177 705 177 705 157 712 c 0,73,74
 140 718 140 718 125.5 733 c 0,75,76
 111 748 111 748 111 780 c 0,77,78
 111 837 111 837 151.5 882 c 0,79,80
 192 927 192 927 257.5 958.5 c 0,81,82
 323 990 323 990 404.5 1007 c 0,83,84
 486 1024 486 1024 567 1024 c 0,85,86
 655 1024 655 1024 728 1011 c 0,87,88
 801 998 801 998 853.5 960.5 c 0,89,90
 906 923 906 923 934.5 855 c 0,91,92
 963 787 963 787 963 676 c 0,93,-1
 963 150 l 0,94,95
 963 131 963 131 976 117.5 c 0,96,97
 989 104 989 104 1008 102 c 0,98,-1
 1098 96 l 0,99,-1
 1098 0 l 0,100,-1
 717 0 l 0,23,-1
EndSplineSet
EndChar

StartChar: b
Encoding: 69 98 69
Width: 1225
Flags: W
LayerCount: 2
Fore
SplineSet
862 500 m 0,0,1
 862 583 862 583 843 648.5 c 0,2,3
 824 714 824 714 787 760 c 0,4,5
 750 806 750 806 694.5 830 c 0,6,7
 639 854 639 854 567 854 c 0,8,9
 548 854 548 854 529.5 852 c 0,10,11
 511 850 511 850 495 848 c 0,12,-1
 459 842 l 0,13,-1
 459 115 l 0,14,15
 477 115 477 115 484.5 114 c 0,16,17
 492 113 492 113 502 113 c 0,18,19
 587 113 587 113 654 132.5 c 0,20,21
 721 152 721 152 767 197.5 c 0,22,23
 813 243 813 243 837.5 317 c 0,24,25
 862 391 862 391 862 500 c 0,0,1
1159 561 m 0,26,27
 1159 443 1159 443 1119 340.5 c 0,28,29
 1079 238 1079 238 1002.5 162.5 c 0,30,31
 926 87 926 87 814.5 43.5 c 0,32,33
 703 0 703 0 559 0 c 0,34,-1
 184 0 l 0,35,-1
 184 1329 l 0,36,-1
 41 1329 l 0,37,-1
 41 1413 l 0,38,-1
 354 1516 l 0,39,-1
 459 1516 l 0,40,-1
 459 930 l 0,41,42
 502 956 502 956 550 977 c 0,43,44
 592 994 592 994 645 1009 c 0,45,46
 698 1024 698 1024 756 1024 c 0,47,48
 838 1024 838 1024 911.5 993 c 0,49,50
 985 962 985 962 1040 902.5 c 0,51,52
 1095 843 1095 843 1127 757 c 0,53,54
 1159 671 1159 671 1159 561 c 0,26,27
EndSplineSet
EndChar

StartChar: c
Encoding: 70 99 70
Width: 1028
Flags: W
LayerCount: 2
Fore
SplineSet
965 90 m 0,0,1
 939 78 939 78 901.5 59 c 0,2,3
 864 40 864 40 814.5 21 c 0,4,5
 765 2 765 2 702 -11.5 c 0,6,7
 639 -25 639 -25 561 -25 c 0,8,9
 441 -25 441 -25 349 16 c 0,10,11
 257 57 257 57 194 126.5 c 0,12,13
 131 196 131 196 98.5 287 c 0,14,15
 66 378 66 378 66 479 c 0,16,17
 66 600 66 600 107.5 700.5 c 0,18,19
 149 801 149 801 220.5 873 c 0,20,21
 292 945 292 945 388 984.5 c 0,22,23
 484 1024 484 1024 594 1024 c 0,24,25
 675 1024 675 1024 740 1007.5 c 0,26,27
 805 991 805 991 851.5 961 c 0,28,29
 898 931 898 931 923 889.5 c 0,30,31
 948 848 948 848 948 799 c 0,32,33
 948 764 948 764 935.5 736 c 0,34,35
 923 708 923 708 903 687.5 c 0,36,37
 883 667 883 667 857 656 c 0,38,39
 831 645 831 645 803 645 c 0,40,41
 771 645 771 645 749.5 649 c 0,42,43
 728 653 728 653 713 659.5 c 0,44,45
 698 666 698 666 687 673.5 c 0,46,47
 676 681 676 681 666 688 c 0,48,-1
 666 918 l 0,49,50
 653 918 653 918 645.5 919 c 0,51,52
 638 920 638 920 627 920 c 0,53,54
 580 920 580 920 533.5 896 c 0,55,56
 487 872 487 872 450 824.5 c 0,57,58
 413 777 413 777 390 705.5 c 0,59,60
 367 634 367 634 367 539 c 0,61,62
 367 449 367 449 388.5 376.5 c 0,63,64
 410 304 410 304 450 253 c 0,65,66
 490 202 490 202 548 174.5 c 0,67,68
 606 147 606 147 678 147 c 0,69,70
 725 147 725 147 772 160 c 0,71,72
 819 173 819 173 858.5 190 c 0,73,74
 898 207 898 207 926.5 223.5 c 0,75,76
 955 240 955 240 965 248 c 0,77,-1
 965 90 l 0,0,1
EndSplineSet
EndChar

StartChar: d
Encoding: 71 100 71
Width: 1247
Flags: W
LayerCount: 2
Fore
SplineSet
791 0 m 0,0,-1
 791 119 l 0,1,2
 779 113 779 113 748 89.5 c 0,3,4
 717 66 717 66 673 40.5 c 0,5,6
 629 15 629 15 576 -5 c 0,7,8
 523 -25 523 -25 467 -25 c 0,9,10
 373 -25 373 -25 298.5 13 c 0,11,12
 224 51 224 51 172.5 118 c 0,13,14
 121 185 121 185 93.5 277 c 0,15,16
 66 369 66 369 66 477 c 0,17,18
 66 609 66 609 106 711 c 0,19,20
 146 813 146 813 217 882.5 c 0,21,22
 288 952 288 952 386 988 c 0,23,24
 484 1024 484 1024 600 1024 c 0,25,26
 629 1024 629 1024 662.5 1020 c 0,27,28
 696 1016 696 1016 725 1011 c 0,29,30
 758 1006 758 1006 791 999 c 0,31,-1
 791 1329 l 0,32,-1
 639 1329 l 0,33,-1
 639 1413 l 0,34,-1
 958 1516 l 0,35,-1
 1063 1516 l 0,36,-1
 1063 150 l 0,37,38
 1063 131 1063 131 1076 117.5 c 0,39,40
 1089 104 1089 104 1108 102 c 0,41,-1
 1194 96 l 0,42,-1
 1194 0 l 0,43,-1
 791 0 l 0,0,-1
791 864 m 0,44,45
 767 874 767 874 741 882 c 0,46,47
 719 889 719 889 693.5 895 c 0,48,49
 668 901 668 901 645 901 c 0,50,51
 574 901 574 901 521 872 c 0,52,53
 468 843 468 843 433.5 792 c 0,54,55
 399 741 399 741 382 672 c 0,56,57
 365 603 365 603 365 524 c 0,58,59
 365 443 365 443 381.5 377 c 0,60,61
 398 311 398 311 431 263.5 c 0,62,63
 464 216 464 216 514 190 c 0,64,65
 564 164 564 164 631 164 c 0,66,67
 659 164 659 164 687.5 169.5 c 0,68,69
 716 175 716 175 739 183 c 0,70,71
 766 192 766 192 791 203 c 0,72,-1
 791 864 l 0,44,45
EndSplineSet
EndChar

StartChar: e
Encoding: 72 101 72
Width: 1083
Flags: W
LayerCount: 2
Fore
SplineSet
1020 96 m 0,0,1
 967 61 967 61 901 35 c 0,2,3
 844 12 844 12 765 -6.5 c 0,4,5
 686 -25 686 -25 588 -25 c 0,6,7
 457 -25 457 -25 359.5 15 c 0,8,9
 262 55 262 55 196.5 124.5 c 0,10,11
 131 194 131 194 98.5 287 c 0,12,13
 66 380 66 380 66 487 c 0,14,15
 66 603 66 603 102.5 701.5 c 0,16,17
 139 800 139 800 206.5 871.5 c 0,18,19
 274 943 274 943 369.5 983.5 c 0,20,21
 465 1024 465 1024 582 1024 c 0,22,23
 702 1024 702 1024 785.5 984.5 c 0,24,25
 869 945 869 945 921 879.5 c 0,26,27
 973 814 973 814 996.5 730 c 0,28,29
 1020 646 1020 646 1020 557 c 0,30,-1
 1020 508 l 0,31,-1
 348 508 l 0,32,33
 348 424 348 424 369 357 c 0,34,35
 390 290 390 290 430.5 243 c 0,36,37
 471 196 471 196 530 170.5 c 0,38,39
 589 145 589 145 664 145 c 0,40,41
 742 145 742 145 806.5 162.5 c 0,42,43
 871 180 871 180 919 202 c 0,44,45
 974 228 974 228 1020 260 c 0,46,-1
 1020 96 l 0,0,1
727 668 m 0,47,48
 727 717 727 717 718 760 c 0,49,50
 709 803 709 803 688.5 834.5 c 0,51,52
 668 866 668 866 636 884.5 c 0,53,54
 604 903 604 903 559 903 c 0,55,56
 502 903 502 903 463.5 877.5 c 0,57,58
 425 852 425 852 401.5 811.5 c 0,59,60
 378 771 378 771 368 721 c 0,61,62
 358 671 358 671 358 623 c 0,63,-1
 727 623 l 0,64,-1
 727 668 l 0,47,48
EndSplineSet
EndChar

StartChar: f
Encoding: 73 102 73
Width: 711
Flags: W
LayerCount: 2
Fore
SplineSet
860 1352 m 0,0,1
 860 1328 860 1328 849.5 1307 c 0,2,3
 839 1286 839 1286 821.5 1268.5 c 0,4,5
 804 1251 804 1251 781 1238 c 0,6,7
 758 1225 758 1225 733 1217 c 0,8,-1
 530 1407 l 0,9,10
 515 1384 515 1384 502.5 1358.5 c 0,11,12
 490 1333 490 1333 482 1297.5 c 0,13,14
 474 1262 474 1262 469.5 1213 c 0,15,16
 465 1164 465 1164 465 1094 c 0,17,-1
 465 975 l 0,18,-1
 688 975 l 0,19,-1
 688 844 l 0,20,-1
 467 844 l 0,21,-1
 467 150 l 0,22,23
 467 131 467 131 479.5 116.5 c 0,24,25
 492 102 492 102 512 102 c 0,26,-1
 637 96 l 0,27,-1
 637 0 l 0,28,-1
 43 0 l 0,29,-1
 43 96 l 0,30,-1
 147 102 l 0,31,32
 166 104 166 104 179.5 117.5 c 0,33,34
 193 131 193 131 193 150 c 0,35,-1
 193 844 l 0,36,-1
 59 844 l 0,37,-1
 59 926 l 0,38,-1
 190 993 l 0,39,40
 190 1074 190 1074 212.5 1146 c 0,41,42
 235 1218 235 1218 279 1286 c 0,43,44
 309 1336 309 1336 349.5 1378 c 0,45,46
 390 1420 390 1420 439 1451 c 0,47,48
 488 1482 488 1482 544.5 1499 c 0,49,50
 601 1516 601 1516 664 1516 c 0,51,52
 694 1516 694 1516 728.5 1506.5 c 0,53,54
 763 1497 763 1497 792.5 1477.5 c 0,55,56
 822 1458 822 1458 841 1426.5 c 0,57,58
 860 1395 860 1395 860 1352 c 0,0,1
EndSplineSet
EndChar

StartChar: g
Encoding: 74 103 74
Width: 1137
Flags: W
LayerCount: 2
Fore
SplineSet
938 840 m 0,0,1
 949 818 949 818 958 793 c 0,2,3
 966 771 966 771 972.5 743.5 c 0,4,5
 979 716 979 716 979 684 c 0,6,7
 979 615 979 615 956 562.5 c 0,8,9
 933 510 933 510 894.5 471.5 c 0,10,11
 856 433 856 433 806 407 c 0,12,13
 756 381 756 381 701.5 366 c 0,14,15
 647 351 647 351 592 346 c 0,16,17
 537 341 537 341 489 344 c 0,18,19
 471 332 471 332 456.5 319 c 0,20,21
 442 306 442 306 434 291.5 c 0,22,23
 426 277 426 277 425.5 260 c 0,24,25
 425 243 425 243 434 221 c 0,26,27
 602 207 602 207 720.5 182 c 0,28,29
 839 157 839 157 914 120 c 0,30,31
 989 83 989 83 1023 32.5 c 0,32,33
 1057 -18 1057 -18 1057 -82 c 0,34,35
 1057 -141 1057 -141 1034.5 -193 c 0,36,37
 1012 -245 1012 -245 973 -288.5 c 0,38,39
 934 -332 934 -332 881 -366.5 c 0,40,41
 828 -401 828 -401 766.5 -424.5 c 0,42,43
 705 -448 705 -448 638 -460.5 c 0,44,45
 571 -473 571 -473 504 -473 c 0,46,47
 423 -473 423 -473 344.5 -454.5 c 0,48,49
 266 -436 266 -436 204 -397 c 0,50,51
 142 -358 142 -358 104 -298 c 0,52,53
 66 -238 66 -238 66 -156 c 0,54,55
 66 -92 66 -92 90 -49.5 c 0,56,57
 114 -7 114 -7 147 18.5 c 0,58,59
 180 44 180 44 214.5 53 c 0,60,61
 249 62 249 62 270 59 c 0,62,63
 256 87 256 87 250 117.5 c 0,64,65
 244 148 244 148 244 168 c 0,66,67
 244 194 244 194 251 217.5 c 0,68,69
 258 241 258 241 272 263.5 c 0,70,71
 286 286 286 286 307.5 309 c 0,72,73
 329 332 329 332 358 358 c 0,74,75
 331 364 331 364 288.5 383 c 0,76,77
 246 402 246 402 205.5 438.5 c 0,78,79
 165 475 165 475 135.5 530.5 c 0,80,81
 106 586 106 586 106 666 c 0,82,83
 106 758 106 758 141.5 825.5 c 0,84,85
 177 893 177 893 238.5 937 c 0,86,87
 300 981 300 981 382.5 1002.5 c 0,88,89
 465 1024 465 1024 559 1024 c 0,90,91
 607 1024 607 1024 649.5 1017 c 0,92,93
 692 1010 692 1010 728.5 1000.5 c 0,94,95
 765 991 765 991 795.5 980 c 0,96,97
 826 969 826 969 852 961 c 0,98,-1
 1118 961 l 0,99,-1
 1118 840 l 0,100,-1
 938 840 l 0,0,1
709 688 m 0,101,102
 709 730 709 730 699.5 772.5 c 0,103,104
 690 815 690 815 670.5 848.5 c 0,105,106
 651 882 651 882 622 903 c 0,107,108
 593 924 593 924 555 924 c 0,109,110
 509 924 509 924 477 903.5 c 0,111,112
 445 883 445 883 425.5 849 c 0,113,114
 406 815 406 815 397.5 772.5 c 0,115,116
 389 730 389 730 389 686 c 0,117,118
 389 641 389 641 398.5 596.5 c 0,119,120
 408 552 408 552 427.5 517.5 c 0,121,122
 447 483 447 483 478 461.5 c 0,123,124
 509 440 509 440 551 440 c 0,125,126
 593 440 593 440 622.5 461.5 c 0,127,128
 652 483 652 483 671.5 518.5 c 0,129,130
 691 554 691 554 700 598.5 c 0,131,132
 709 643 709 643 709 688 c 0,101,102
793 -141 m 0,133,134
 793 -105 793 -105 771 -79 c 0,135,136
 749 -53 749 -53 714 -34.5 c 0,137,138
 679 -16 679 -16 635 -4 c 0,139,140
 591 8 591 8 547 15.5 c 0,141,142
 503 23 503 23 464 26.5 c 0,143,144
 425 30 425 30 399 33 c 0,145,146
 389 18 389 18 378 2 c 0,147,148
 367 -14 367 -14 357.5 -33 c 0,149,150
 348 -52 348 -52 342 -75.5 c 0,151,152
 336 -99 336 -99 336 -127 c 0,153,154
 335 -176 335 -176 355 -218.5 c 0,155,156
 375 -261 375 -261 407 -292.5 c 0,157,158
 439 -324 439 -324 479.5 -342 c 0,159,160
 520 -360 520 -360 561 -360 c 0,161,162
 602 -360 602 -360 643.5 -344.5 c 0,163,164
 685 -329 685 -329 718 -300.5 c 0,165,166
 751 -272 751 -272 772 -231.5 c 0,167,168
 793 -191 793 -191 793 -141 c 0,133,134
EndSplineSet
EndChar

StartChar: h
Encoding: 75 104 75
Width: 1282
Flags: W
LayerCount: 2
Fore
SplineSet
713 0 m 0,0,-1
 713 96 l 0,1,-1
 778 102 l 0,2,3
 797 104 797 104 810 117.5 c 0,4,5
 823 131 823 131 823 150 c 0,6,-1
 823 633 l 0,7,8
 823 658 823 658 817.5 693 c 0,9,10
 812 728 812 728 794 759.5 c 0,11,12
 776 791 776 791 742 813.5 c 0,13,14
 708 836 708 836 651 836 c 0,15,16
 620 836 620 836 586.5 831.5 c 0,17,18
 553 827 553 827 524 822 c 0,19,20
 491 816 491 816 459 809 c 0,21,-1
 459 150 l 0,22,23
 459 131 459 131 472 117.5 c 0,24,25
 485 104 485 104 504 102 c 0,26,-1
 575 96 l 0,27,-1
 575 0 l 0,28,-1
 55 0 l 0,29,-1
 55 96 l 0,30,-1
 139 102 l 0,31,32
 158 104 158 104 171 117.5 c 0,33,34
 184 131 184 131 184 150 c 0,35,-1
 184 1329 l 0,36,-1
 39 1329 l 0,37,-1
 39 1413 l 0,38,-1
 352 1516 l 0,39,-1
 459 1516 l 0,40,-1
 459 897 l 0,41,42
 516 932 516 932 578 960 c 0,43,44
 604 972 604 972 633.5 983.5 c 0,45,46
 663 995 663 995 693.5 1004 c 0,47,48
 724 1013 724 1013 755.5 1018.5 c 0,49,50
 787 1024 787 1024 817 1024 c 0,51,52
 877 1024 877 1024 921.5 1008.5 c 0,53,54
 966 993 966 993 997.5 967.5 c 0,55,56
 1029 942 1029 942 1048.5 908.5 c 0,57,58
 1068 875 1068 875 1079 839 c 0,59,60
 1090 803 1090 803 1094 767.5 c 0,61,62
 1098 732 1098 732 1098 702 c 0,63,-1
 1098 150 l 0,64,65
 1098 131 1098 131 1111 117.5 c 0,66,67
 1124 104 1124 104 1143 102 c 0,68,-1
 1229 96 l 0,69,-1
 1229 0 l 0,70,-1
 713 0 l 0,0,-1
EndSplineSet
EndChar

StartChar: i
Encoding: 76 105 76
Width: 682
Flags: W
LayerCount: 2
Fore
SplineSet
506 1358 m 0,0,1
 506 1325 506 1325 493.5 1296 c 0,2,3
 481 1267 481 1267 459 1245 c 0,4,5
 437 1223 437 1223 408 1210.5 c 0,6,7
 379 1198 379 1198 346 1198 c 0,8,9
 313 1198 313 1198 284 1210.5 c 0,10,11
 255 1223 255 1223 234 1245 c 0,12,13
 213 1267 213 1267 200.5 1296 c 0,14,15
 188 1325 188 1325 188 1358 c 0,16,17
 188 1391 188 1391 200.5 1420 c 0,18,19
 213 1449 213 1449 234 1470 c 0,20,21
 255 1491 255 1491 284 1503.5 c 0,22,23
 313 1516 313 1516 346 1516 c 0,24,25
 379 1516 379 1516 408 1503.5 c 0,26,27
 437 1491 437 1491 459 1470 c 0,28,29
 481 1449 481 1449 493.5 1420 c 0,30,31
 506 1391 506 1391 506 1358 c 0,0,1
66 0 m 0,32,-1
 66 96 l 0,33,-1
 160 102 l 0,34,35
 178 104 178 104 191.5 117.5 c 0,36,37
 205 131 205 131 205 150 c 0,38,-1
 205 838 l 0,39,-1
 74 838 l 0,40,-1
 74 922 l 0,41,-1
 373 1024 l 0,42,-1
 477 1024 l 0,43,-1
 477 150 l 0,44,45
 477 131 477 131 491.5 117.5 c 0,46,47
 506 104 506 104 524 102 c 0,48,-1
 623 96 l 0,49,-1
 623 0 l 0,50,-1
 66 0 l 0,32,-1
EndSplineSet
EndChar

StartChar: j
Encoding: 77 106 77
Width: 664
Flags: W
LayerCount: 2
Fore
SplineSet
498 1358 m 0,0,1
 498 1325 498 1325 485.5 1296 c 0,2,3
 473 1267 473 1267 452 1245 c 0,4,5
 431 1223 431 1223 402 1210.5 c 0,6,7
 373 1198 373 1198 340 1198 c 0,8,9
 307 1198 307 1198 278 1210.5 c 0,10,11
 249 1223 249 1223 227 1245 c 0,12,13
 205 1267 205 1267 192.5 1296 c 0,14,15
 180 1325 180 1325 180 1358 c 0,16,17
 180 1391 180 1391 192.5 1420 c 0,18,19
 205 1449 205 1449 227 1470 c 0,20,21
 249 1491 249 1491 278 1503.5 c 0,22,23
 307 1516 307 1516 340 1516 c 0,24,25
 373 1516 373 1516 402 1503.5 c 0,26,27
 431 1491 431 1491 452 1470 c 0,28,29
 473 1449 473 1449 485.5 1420 c 0,30,31
 498 1391 498 1391 498 1358 c 0,0,1
477 96 m 0,32,33
 477 -16 477 -16 450 -121 c 0,34,35
 423 -226 423 -226 365 -307 c 0,36,37
 309 -383 309 -383 224 -428 c 0,38,39
 139 -473 139 -473 20 -473 c 0,40,41
 -21 -473 -21 -473 -58 -463 c 0,42,43
 -95 -453 -95 -453 -123 -433 c 0,44,45
 -151 -413 -151 -413 -167.5 -384 c 0,46,47
 -184 -355 -184 -355 -184 -317 c 0,48,49
 -184 -290 -184 -290 -173.5 -266 c 0,50,51
 -163 -242 -163 -242 -145 -223.5 c 0,52,53
 -127 -205 -127 -205 -103 -193.5 c 0,54,55
 -79 -182 -79 -182 -53 -180 c 0,56,-1
 147 -383 l 0,57,58
 159 -364 159 -364 168 -337.5 c 0,59,60
 177 -311 177 -311 183 -281 c 0,61,62
 189 -251 189 -251 193 -219.5 c 0,63,64
 197 -188 197 -188 200 -158 c 0,65,66
 205 -88 205 -88 205 -10 c 0,67,-1
 205 838 l 0,68,-1
 59 838 l 0,69,-1
 59 922 l 0,70,-1
 373 1024 l 0,71,-1
 477 1024 l 0,72,-1
 477 96 l 0,32,33
EndSplineSet
EndChar

StartChar: k
Encoding: 78 107 78
Width: 1212
Flags: W
LayerCount: 2
Fore
SplineSet
780 0 m 0,0,-1
 780 84 l 0,1,-1
 555 463 l 0,2,-1
 459 463 l 0,3,-1
 459 150 l 0,4,5
 459 131 459 131 471.5 117.5 c 0,6,7
 484 104 484 104 504 102 c 0,8,-1
 586 96 l 0,9,-1
 586 0 l 0,10,-1
 53 0 l 0,11,-1
 53 96 l 0,12,-1
 139 102 l 0,13,14
 158 104 158 104 171 117.5 c 0,15,16
 184 131 184 131 184 150 c 0,17,-1
 184 1329 l 0,18,-1
 41 1329 l 0,19,-1
 41 1413 l 0,20,-1
 354 1516 l 0,21,-1
 459 1516 l 0,22,-1
 459 532 l 0,23,-1
 504 532 l 0,24,-1
 778 860 l 0,25,26
 788 871 788 871 783.5 882 c 0,27,28
 779 893 779 893 764 895 c 0,29,-1
 686 903 l 0,30,-1
 686 999 l 0,31,-1
 1112 999 l 0,32,-1
 1112 903 l 0,33,-1
 977 887 l 0,34,-1
 758 637 l 0,35,-1
 1073 106 l 0,36,-1
 1194 96 l 0,37,-1
 1194 0 l 0,38,-1
 780 0 l 0,0,-1
EndSplineSet
EndChar

StartChar: l
Encoding: 79 108 79
Width: 682
Flags: W
LayerCount: 2
Fore
SplineSet
59 0 m 0,0,-1
 59 96 l 0,1,-1
 160 102 l 0,2,3
 180 104 180 104 192.5 117 c 0,4,5
 205 130 205 130 205 150 c 0,6,-1
 205 1329 l 0,7,-1
 59 1329 l 0,8,-1
 59 1413 l 0,9,-1
 373 1516 l 0,10,-1
 477 1516 l 0,11,-1
 477 150 l 0,12,13
 477 130 477 130 489.5 117 c 0,14,15
 502 104 502 104 522 102 c 0,16,-1
 625 96 l 0,17,-1
 625 0 l 0,18,-1
 59 0 l 0,0,-1
EndSplineSet
EndChar

StartChar: m
Encoding: 80 109 80
Width: 1855
Flags: W
LayerCount: 2
Fore
SplineSet
1296 0 m 0,0,-1
 1296 96 l 0,1,-1
 1360 102 l 0,2,3
 1378 104 1378 104 1392.5 117.5 c 0,4,5
 1407 131 1407 131 1407 150 c 0,6,-1
 1407 643 l 0,7,8
 1407 680 1407 680 1398 715 c 0,9,10
 1389 750 1389 750 1368.5 777 c 0,11,12
 1348 804 1348 804 1314 820 c 0,13,14
 1280 836 1280 836 1229 836 c 0,15,16
 1196 836 1196 836 1166.5 830.5 c 0,17,18
 1137 825 1137 825 1114 819 c 0,19,20
 1088 812 1088 812 1065 803 c 0,21,-1
 1065 150 l 0,22,23
 1065 131 1065 131 1078 117.5 c 0,24,25
 1091 104 1091 104 1110 102 c 0,26,-1
 1174 96 l 0,27,-1
 1174 0 l 0,28,-1
 682 0 l 0,29,-1
 682 96 l 0,30,-1
 745 102 l 0,31,32
 764 104 764 104 777.5 117.5 c 0,33,34
 791 131 791 131 791 150 c 0,35,-1
 791 643 l 0,36,37
 791 680 791 680 781 715 c 0,38,39
 771 750 771 750 750 777 c 0,40,41
 729 804 729 804 695.5 820 c 0,42,43
 662 836 662 836 614 836 c 0,44,45
 572 836 572 836 540.5 830.5 c 0,46,47
 509 825 509 825 489 819 c 0,48,49
 465 812 465 812 449 803 c 0,50,-1
 449 150 l 0,51,52
 449 131 449 131 463 117.5 c 0,53,54
 477 104 477 104 496 102 c 0,55,-1
 559 96 l 0,56,-1
 559 0 l 0,57,-1
 55 0 l 0,58,-1
 55 96 l 0,59,-1
 131 102 l 0,60,61
 150 104 150 104 163 117.5 c 0,62,63
 176 131 176 131 176 150 c 0,64,-1
 176 836 l 0,65,-1
 45 836 l 0,66,-1
 45 920 l 0,67,-1
 346 1024 l 0,68,-1
 449 1024 l 0,69,-1
 449 899 l 0,70,71
 501 934 501 934 557 961 c 0,72,73
 605 984 605 984 664.5 1004 c 0,74,75
 724 1024 724 1024 784 1024 c 0,76,77
 842 1024 842 1024 883 1008.5 c 0,78,79
 924 993 924 993 952.5 971.5 c 0,80,81
 981 950 981 950 999.5 926 c 0,82,83
 1018 902 1018 902 1032 885 c 0,84,85
 1092 923 1092 923 1154 954 c 0,86,87
 1181 967 1181 967 1211 979.5 c 0,88,89
 1241 992 1241 992 1272.5 1002 c 0,90,91
 1304 1012 1304 1012 1335.5 1018 c 0,92,93
 1367 1024 1367 1024 1397 1024 c 0,94,95
 1459 1024 1459 1024 1504 1007.5 c 0,96,97
 1549 991 1549 991 1580.5 964 c 0,98,99
 1612 937 1612 937 1631 903.5 c 0,100,101
 1650 870 1650 870 1661 835 c 0,102,103
 1672 800 1672 800 1675.5 767.5 c 0,104,105
 1679 735 1679 735 1679 711 c 0,106,-1
 1679 150 l 0,107,108
 1679 131 1679 131 1692.5 117.5 c 0,109,110
 1706 104 1706 104 1724 102 c 0,111,-1
 1798 96 l 0,112,-1
 1798 0 l 0,113,-1
 1296 0 l 0,0,-1
EndSplineSet
EndChar

StartChar: n
Encoding: 81 110 81
Width: 1280
Flags: W
LayerCount: 2
Fore
SplineSet
702 0 m 0,0,-1
 702 96 l 0,1,-1
 778 102 l 0,2,3
 797 104 797 104 810 117.5 c 0,4,5
 823 131 823 131 823 150 c 0,6,-1
 823 631 l 0,7,8
 823 670 823 670 814 707 c 0,9,10
 805 744 805 744 785 772.5 c 0,11,12
 765 801 765 801 733 818.5 c 0,13,14
 701 836 701 836 655 836 c 0,15,16
 613 836 613 836 577 831.5 c 0,17,18
 541 827 541 827 515 822 c 0,19,20
 484 816 484 816 459 809 c 0,21,-1
 459 150 l 0,22,23
 459 131 459 131 473 117.5 c 0,24,25
 487 104 487 104 506 102 c 0,26,-1
 567 96 l 0,27,-1
 567 0 l 0,28,-1
 66 0 l 0,29,-1
 66 96 l 0,30,-1
 139 102 l 0,31,32
 158 104 158 104 171 117.5 c 0,33,34
 184 131 184 131 184 150 c 0,35,-1
 184 836 l 0,36,-1
 43 836 l 0,37,-1
 43 920 l 0,38,-1
 352 1024 l 0,39,-1
 459 1024 l 0,40,-1
 459 899 l 0,41,42
 512 934 512 934 572 961 c 0,43,44
 623 984 623 984 687 1004 c 0,45,46
 751 1024 751 1024 817 1024 c 0,47,48
 905 1024 905 1024 960 993.5 c 0,49,50
 1015 963 1015 963 1045 913 c 0,51,52
 1075 863 1075 863 1085.5 799 c 0,53,54
 1096 735 1096 735 1096 668 c 0,55,-1
 1096 150 l 0,56,57
 1096 131 1096 131 1110 117.5 c 0,58,59
 1124 104 1124 104 1143 102 c 0,60,-1
 1206 96 l 0,61,-1
 1206 0 l 0,62,-1
 702 0 l 0,0,-1
EndSplineSet
EndChar

StartChar: o
Encoding: 82 111 82
Width: 1196
Flags: W
LayerCount: 2
Fore
SplineSet
1133 494 m 0,0,1
 1133 379 1133 379 1096.5 283.5 c 0,2,3
 1060 188 1060 188 990 119.5 c 0,4,5
 920 51 920 51 819.5 13 c 0,6,7
 719 -25 719 -25 592 -25 c 0,8,9
 475 -25 475 -25 378.5 11 c 0,10,11
 282 47 282 47 212.5 114 c 0,12,13
 143 181 143 181 104.5 277.5 c 0,14,15
 66 374 66 374 66 496 c 0,16,17
 66 622 66 622 106 720 c 0,18,19
 146 818 146 818 217.5 885.5 c 0,20,21
 289 953 289 953 388 988.5 c 0,22,23
 487 1024 487 1024 606 1024 c 0,24,25
 733 1024 733 1024 831 985 c 0,26,27
 929 946 929 946 996 875.5 c 0,28,29
 1063 805 1063 805 1098 708 c 0,30,31
 1133 611 1133 611 1133 494 c 0,0,1
827 496 m 0,32,33
 827 539 827 539 823 586.5 c 0,34,35
 819 634 819 634 809.5 680 c 0,36,37
 800 726 800 726 783 767 c 0,38,39
 766 808 766 808 740.5 839 c 0,40,41
 715 870 715 870 680 888.5 c 0,42,43
 645 907 645 907 598 907 c 0,44,45
 529 907 529 907 485 869 c 0,46,47
 441 831 441 831 416.5 771.5 c 0,48,49
 392 712 392 712 382.5 641 c 0,50,51
 373 570 373 570 373 504 c 0,52,53
 373 460 373 460 376.5 412 c 0,54,55
 380 364 380 364 389.5 318 c 0,56,57
 399 272 399 272 415 231 c 0,58,59
 431 190 431 190 456.5 158.5 c 0,60,61
 482 127 482 127 517 108.5 c 0,62,63
 552 90 552 90 600 90 c 0,64,65
 670 90 670 90 714 127.5 c 0,66,67
 758 165 758 165 783 224 c 0,68,69
 808 283 808 283 817.5 355 c 0,70,71
 827 427 827 427 827 496 c 0,32,33
EndSplineSet
EndChar

StartChar: p
Encoding: 83 112 83
Width: 1237
Flags: W
LayerCount: 2
Fore
SplineSet
1171 528 m 0,0,1
 1171 404 1171 404 1132 302 c 0,2,3
 1093 200 1093 200 1021 127.5 c 0,4,5
 949 55 949 55 847 15 c 0,6,7
 745 -25 745 -25 618 -25 c 0,8,9
 587 -25 587 -25 559 -22 c 0,10,11
 531 -19 531 -19 508 -15 c 0,12,13
 482 -11 482 -11 459 -4 c 0,14,-1
 459 -299 l 0,15,16
 459 -319 459 -319 471.5 -332.5 c 0,17,18
 484 -346 484 -346 504 -346 c 0,19,-1
 612 -352 l 0,20,-1
 612 -449 l 0,21,-1
 49 -449 l 0,22,-1
 49 -352 l 0,23,-1
 139 -346 l 0,24,25
 158 -346 158 -346 171 -332.5 c 0,26,27
 184 -319 184 -319 184 -299 c 0,28,-1
 184 836 l 0,29,-1
 49 836 l 0,30,-1
 49 920 l 0,31,-1
 352 1024 l 0,32,-1
 459 1024 l 0,33,-1
 459 895 l 0,34,35
 507 931 507 931 562 959 c 0,36,37
 609 983 609 983 667 1003.5 c 0,38,39
 725 1024 725 1024 788 1024 c 0,40,41
 850 1024 850 1024 903 1004 c 0,42,43
 956 984 956 984 998.5 949.5 c 0,44,45
 1041 915 1041 915 1073.5 867.5 c 0,46,47
 1106 820 1106 820 1127.5 765 c 0,48,49
 1149 710 1149 710 1160 649.5 c 0,50,51
 1171 589 1171 589 1171 528 c 0,0,1
868 498 m 0,52,53
 868 565 868 565 852.5 627 c 0,54,55
 837 689 837 689 805.5 735.5 c 0,56,57
 774 782 774 782 725.5 810 c 0,58,59
 677 838 677 838 610 838 c 0,60,61
 583 838 583 838 556.5 833 c 0,62,63
 530 828 530 828 508 822 c 0,64,65
 482 815 482 815 459 807 c 0,66,-1
 459 111 l 0,67,68
 479 103 479 103 499 98 c 0,69,70
 516 93 516 93 535 89.5 c 0,71,72
 554 86 554 86 571 86 c 0,73,74
 645 86 645 86 700.5 118 c 0,75,76
 756 150 756 150 793.5 205.5 c 0,77,78
 831 261 831 261 849.5 336.5 c 0,79,80
 868 412 868 412 868 498 c 0,52,53
EndSplineSet
EndChar

StartChar: q
Encoding: 84 113 84
Width: 1235
Flags: W
LayerCount: 2
Fore
SplineSet
618 -449 m 0,0,-1
 618 -352 l 0,1,-1
 731 -346 l 0,2,3
 751 -346 751 -346 763.5 -332.5 c 0,4,5
 776 -319 776 -319 776 -299 c 0,6,-1
 776 80 l 0,7,8
 733 50 733 50 684 27 c 0,9,10
 641 7 641 7 585.5 -9 c 0,11,12
 530 -25 530 -25 467 -25 c 0,13,14
 375 -25 375 -25 300.5 15 c 0,15,16
 226 55 226 55 174 123 c 0,17,18
 122 191 122 191 94 280.5 c 0,19,20
 66 370 66 370 66 469 c 0,21,22
 66 614 66 614 115 719 c 0,23,24
 164 824 164 824 251.5 891.5 c 0,25,26
 339 959 339 959 460.5 991.5 c 0,27,28
 582 1024 582 1024 727 1024 c 0,29,30
 779 1024 779 1024 836 1020 c 0,31,32
 893 1016 893 1016 941 1011 c 0,33,34
 997 1006 997 1006 1051 999 c 0,35,-1
 1051 -299 l 0,36,37
 1051 -319 1051 -319 1064 -332.5 c 0,38,39
 1077 -346 1077 -346 1096 -346 c 0,40,-1
 1180 -352 l 0,41,-1
 1180 -449 l 0,42,-1
 618 -449 l 0,0,-1
776 895 m 0,43,44
 766 897 766 897 753 899 c 0,45,46
 742 901 742 901 726.5 902 c 0,47,48
 711 903 711 903 694 903 c 0,49,50
 603 903 603 903 540 873.5 c 0,51,52
 477 844 477 844 438 792 c 0,53,54
 399 740 399 740 382 669 c 0,55,56
 365 598 365 598 365 516 c 0,57,58
 365 432 365 432 384 365 c 0,59,60
 403 298 403 298 439 251 c 0,61,62
 475 204 475 204 527 179 c 0,63,64
 579 154 579 154 645 154 c 0,65,66
 668 154 668 154 691 155 c 0,67,68
 714 156 714 156 733 158 c 0,69,70
 755 160 755 160 776 162 c 0,71,-1
 776 895 l 0,43,44
EndSplineSet
EndChar

StartChar: r
Encoding: 85 114 85
Width: 885
Flags: W
LayerCount: 2
Fore
SplineSet
725 676 m 0,0,1
 718 686 718 686 707.5 700 c 0,2,3
 697 714 697 714 681.5 727 c 0,4,5
 666 740 666 740 644 749 c 0,6,7
 622 758 622 758 592 758 c 0,8,9
 563 758 563 758 538 752 c 0,10,11
 513 746 513 746 496 739 c 0,12,13
 475 731 475 731 459 721 c 0,14,-1
 459 147 l 0,15,16
 459 129 459 129 471.5 114.5 c 0,17,18
 484 100 484 100 504 100 c 0,19,-1
 635 94 l 0,20,-1
 635 -2 l 0,21,-1
 49 -2 l 0,22,-1
 49 94 l 0,23,-1
 139 100 l 0,24,25
 158 102 158 102 171 115.5 c 0,26,27
 184 129 184 129 184 147 c 0,28,-1
 184 836 l 0,29,-1
 35 836 l 0,30,-1
 35 920 l 0,31,-1
 352 1024 l 0,32,-1
 459 1024 l 0,33,-1
 459 807 l 0,34,35
 478 831 478 831 510.5 868 c 0,36,37
 543 905 543 905 581 939.5 c 0,38,39
 619 974 619 974 659.5 999 c 0,40,41
 700 1024 700 1024 735 1024 c 0,42,43
 753 1024 753 1024 772 1021 c 0,44,45
 791 1018 791 1018 808.5 1012.5 c 0,46,47
 826 1007 826 1007 840.5 1000.5 c 0,48,49
 855 994 855 994 864 987 c 0,50,-1
 864 676 l 0,51,-1
 725 676 l 0,0,1
EndSplineSet
EndChar

StartChar: s
Encoding: 86 115 86
Width: 911
Flags: W
LayerCount: 2
Fore
SplineSet
815 686 m 0,0,-1
 688 686 l 0,1,-1
 666 850 l 0,2,3
 646 873 646 873 604 887 c 0,4,5
 562 901 562 901 506 901 c 0,6,7
 434 901 434 901 393 871.5 c 0,8,9
 352 842 352 842 352 788 c 0,10,11
 352 758 352 758 369 732 c 0,12,13
 386 706 386 706 415 683 c 0,14,15
 444 660 444 660 481 639.5 c 0,16,17
 518 619 518 619 559 598 c 0,18,19
 610 572 610 572 662 545 c 0,20,21
 714 518 714 518 755 485 c 0,22,23
 796 452 796 452 822 411.5 c 0,24,25
 848 371 848 371 848 319 c 0,26,27
 848 222 848 222 811 156.5 c 0,28,29
 774 91 774 91 715 50.5 c 0,30,31
 656 10 656 10 581 -7.5 c 0,32,33
 506 -25 506 -25 430 -25 c 0,34,35
 354 -25 354 -25 288.5 -16.5 c 0,36,37
 223 -8 223 -8 173 3 c 0,38,39
 115 15 115 15 66 31 c 0,40,-1
 66 342 l 0,41,-1
 195 342 l 0,42,43
 197 321 197 321 201 289 c 0,44,45
 205 257 205 257 209 227 c 0,46,47
 213 192 213 192 219 154 c 0,48,49
 221 149 221 149 242 139.5 c 0,50,51
 263 130 263 130 292 120 c 0,52,53
 321 110 321 110 353 103 c 0,54,55
 385 96 385 96 410 96 c 0,56,57
 462 96 462 96 496 110 c 0,58,59
 530 124 530 124 550 144 c 0,60,61
 570 164 570 164 578 186.5 c 0,62,63
 586 209 586 209 586 227 c 0,64,65
 586 269 586 269 559.5 299.5 c 0,66,67
 533 330 533 330 491 355 c 0,68,69
 449 380 449 380 396.5 402.5 c 0,70,71
 344 425 344 425 293 451 c 0,72,73
 250 472 250 472 211 497 c 0,74,75
 172 522 172 522 142.5 553 c 0,76,77
 113 584 113 584 95.5 623 c 0,78,79
 78 662 78 662 78 713 c 0,80,81
 78 784 78 784 108.5 841.5 c 0,82,83
 139 899 139 899 194 939.5 c 0,84,85
 249 980 249 980 324 1002 c 0,86,87
 399 1024 399 1024 489 1024 c 0,88,89
 565 1024 565 1024 625.5 1015.5 c 0,90,91
 686 1007 686 1007 728 996 c 0,92,93
 777 984 777 984 815 969 c 0,94,-1
 815 686 l 0,0,-1
EndSplineSet
EndChar

StartChar: t
Encoding: 87 116 87
Width: 768
Flags: W
LayerCount: 2
Fore
SplineSet
760 45 m 0,0,1
 712 25 712 25 658 10 c 0,2,3
 612 -4 612 -4 553.5 -14.5 c 0,4,5
 495 -25 495 -25 432 -25 c 0,6,7
 364 -25 364 -25 316.5 -10 c 0,8,9
 269 5 269 5 239.5 36.5 c 0,10,11
 210 68 210 68 197 115 c 0,12,13
 184 162 184 162 184 227 c 0,14,-1
 184 868 l 0,15,-1
 49 868 l 0,16,-1
 49 950 l 0,17,-1
 207 1044 l 0,18,-1
 317 1262 l 0,19,-1
 459 1262 l 0,20,-1
 459 999 l 0,21,-1
 743 999 l 0,22,-1
 743 868 l 0,23,-1
 459 868 l 0,24,-1
 459 311 l 0,25,26
 459 213 459 213 502 173 c 0,27,28
 545 133 545 133 627 133 c 0,29,30
 651 133 651 133 675 135 c 0,31,32
 699 137 699 137 718 140 c 0,33,34
 740 143 740 143 760 147 c 0,35,-1
 760 45 l 0,0,1
EndSplineSet
EndChar

StartChar: u
Encoding: 88 117 88
Width: 1270
Flags: W
LayerCount: 2
Fore
SplineSet
811 0 m 0,0,-1
 811 113 l 0,1,2
 760 74 760 74 705 44 c 0,3,4
 658 18 658 18 601 -3.5 c 0,5,6
 544 -25 544 -25 487 -25 c 0,7,8
 400 -25 400 -25 341.5 -2 c 0,9,10
 283 21 283 21 248 64 c 0,11,12
 213 107 213 107 198.5 169 c 0,13,14
 184 231 184 231 184 309 c 0,15,-1
 184 838 l 0,16,-1
 51 838 l 0,17,-1
 51 922 l 0,18,-1
 352 1024 l 0,19,-1
 459 1024 l 0,20,-1
 459 389 l 0,21,22
 459 351 459 351 464 311 c 0,23,24
 469 271 469 271 488 238 c 0,25,26
 507 205 507 205 544.5 183.5 c 0,27,28
 582 162 582 162 647 162 c 0,29,30
 679 162 679 162 708.5 167 c 0,31,32
 738 172 738 172 761 179 c 0,33,34
 787 187 787 187 811 197 c 0,35,-1
 811 838 l 0,36,-1
 682 838 l 0,37,-1
 682 922 l 0,38,-1
 981 1024 l 0,39,-1
 1085 1024 l 0,40,-1
 1085 150 l 0,41,42
 1085 131 1085 131 1099.5 117.5 c 0,43,44
 1114 104 1114 104 1133 102 c 0,45,-1
 1223 96 l 0,46,-1
 1223 0 l 0,47,-1
 811 0 l 0,0,-1
EndSplineSet
EndChar

StartChar: v
Encoding: 89 118 89
Width: 1159
Flags: W
LayerCount: 2
Fore
SplineSet
1024 889 m 0,0,-1
 672 0 l 0,1,-1
 469 0 l 0,2,-1
 141 891 l 0,3,-1
 20 903 l 0,4,-1
 20 999 l 0,5,-1
 559 999 l 0,6,-1
 559 903 l 0,7,-1
 465 897 l 0,8,9
 446 895 446 895 438 882 c 0,10,11
 430 869 430 869 436 852 c 0,12,-1
 637 285 l 0,13,-1
 860 852 l 0,14,15
 866 867 866 867 856 881 c 0,16,17
 846 895 846 895 829 897 c 0,18,-1
 743 903 l 0,19,-1
 743 999 l 0,20,-1
 1141 999 l 0,21,-1
 1141 903 l 0,22,-1
 1024 889 l 0,0,-1
EndSplineSet
EndChar

StartChar: w
Encoding: 90 119 90
Width: 1722
Flags: W
LayerCount: 2
Fore
SplineSet
1589 889 m 0,0,-1
 1315 0 l 0,1,-1
 1087 0 l 0,2,-1
 864 727 l 0,3,-1
 629 0 l 0,4,-1
 406 0 l 0,5,-1
 141 891 l 0,6,-1
 20 903 l 0,7,-1
 20 999 l 0,8,-1
 545 999 l 0,9,-1
 545 903 l 0,10,-1
 457 897 l 0,11,12
 440 895 440 895 430.5 882 c 0,13,14
 421 869 421 869 426 852 c 0,15,-1
 586 289 l 0,16,-1
 815 999 l 0,17,-1
 1040 999 l 0,18,-1
 1260 285 l 0,19,-1
 1430 852 l 0,20,21
 1435 867 1435 867 1426.5 881 c 0,22,23
 1418 895 1418 895 1401 897 c 0,24,-1
 1311 903 l 0,25,-1
 1311 999 l 0,26,-1
 1704 999 l 0,27,-1
 1704 903 l 0,28,-1
 1589 889 l 0,0,-1
EndSplineSet
EndChar

StartChar: x
Encoding: 91 120 91
Width: 1118
Flags: W
LayerCount: 2
Fore
SplineSet
580 0 m 0,0,-1
 580 96 l 0,1,-1
 659 104 l 0,2,3
 675 106 675 106 679.5 116.5 c 0,4,5
 684 127 684 127 676 139 c 0,6,-1
 514 360 l 0,7,-1
 334 139 l 0,8,9
 325 128 325 128 329 117 c 0,10,11
 333 106 333 106 348 104 c 0,12,-1
 420 96 l 0,13,-1
 420 0 l 0,14,-1
 20 0 l 0,15,-1
 20 96 l 0,16,-1
 143 113 l 0,17,-1
 436 467 l 0,18,-1
 133 889 l 0,19,-1
 25 903 l 0,20,-1
 25 999 l 0,21,-1
 528 999 l 0,22,-1
 528 903 l 0,23,-1
 469 897 l 0,24,25
 452 895 452 895 448.5 883 c 0,26,27
 445 871 445 871 455 860 c 0,28,-1
 598 662 l 0,29,-1
 762 860 l 0,30,31
 770 871 770 871 766.5 883 c 0,32,33
 763 895 763 895 748 897 c 0,34,-1
 682 903 l 0,35,-1
 682 999 l 0,36,-1
 1063 999 l 0,37,-1
 1063 903 l 0,38,-1
 948 889 l 0,39,-1
 676 553 l 0,40,-1
 991 113 l 0,41,-1
 1100 96 l 0,42,-1
 1100 0 l 0,43,-1
 580 0 l 0,0,-1
EndSplineSet
EndChar

StartChar: y
Encoding: 92 121 92
Width: 1159
Flags: W
LayerCount: 2
Fore
SplineSet
1032 889 m 0,0,-1
 678 20 l 0,1,2
 659 -26 659 -26 636 -80 c 0,3,4
 613 -134 613 -134 584.5 -188.5 c 0,5,6
 556 -243 556 -243 522 -293.5 c 0,7,8
 488 -344 488 -344 446 -383 c 0,9,10
 403 -425 403 -425 352.5 -449 c 0,11,12
 302 -473 302 -473 242 -473 c 0,13,14
 212 -473 212 -473 179.5 -461.5 c 0,15,16
 147 -450 147 -450 120.5 -428.5 c 0,17,18
 94 -407 94 -407 77 -376.5 c 0,19,20
 60 -346 60 -346 61 -309 c 0,21,22
 61 -281 61 -281 71.5 -257.5 c 0,23,24
 82 -234 82 -234 98.5 -215 c 0,25,26
 115 -196 115 -196 136.5 -182 c 0,27,28
 158 -168 158 -168 180 -158 c 0,29,-1
 354 -291 l 0,30,31
 382 -265 382 -265 406.5 -229 c 0,32,33
 431 -193 431 -193 450.5 -154.5 c 0,34,35
 470 -116 470 -116 484.5 -80 c 0,36,37
 499 -44 499 -44 506 -18 c 0,38,-1
 141 891 l 0,39,-1
 20 903 l 0,40,-1
 20 999 l 0,41,-1
 559 999 l 0,42,-1
 559 903 l 0,43,-1
 465 897 l 0,44,45
 446 895 446 895 437 882 c 0,46,47
 428 869 428 869 434 852 c 0,48,-1
 645 326 l 0,49,-1
 862 852 l 0,50,51
 868 867 868 867 858 881 c 0,52,53
 848 895 848 895 831 897 c 0,54,-1
 741 903 l 0,55,-1
 741 999 l 0,56,-1
 1141 999 l 0,57,-1
 1141 903 l 0,58,-1
 1032 889 l 0,0,-1
EndSplineSet
EndChar

StartChar: z
Encoding: 93 122 93
Width: 1006
Flags: W
LayerCount: 2
Fore
SplineSet
66 0 m 0,0,-1
 66 133 l 0,1,-1
 590 883 l 0,2,-1
 281 883 l 0,3,4
 265 883 265 883 253.5 868.5 c 0,5,6
 242 854 242 854 242 840 c 0,7,-1
 227 682 l 0,8,-1
 82 682 l 0,9,-1
 82 999 l 0,10,-1
 911 999 l 0,11,-1
 911 885 l 0,12,-1
 375 121 l 0,13,-1
 727 121 l 0,14,15
 734 121 734 121 741 126 c 0,16,17
 748 131 748 131 754.5 138 c 0,18,19
 761 145 761 145 765.5 153.5 c 0,20,21
 770 162 770 162 772 170 c 0,22,-1
 799 344 l 0,23,-1
 940 344 l 0,24,-1
 940 0 l 0,25,-1
 66 0 l 0,0,-1
EndSplineSet
EndChar

StartChar: braceleft
Encoding: 94 123 94
Width: 1014
Flags: W
LayerCount: 2
Fore
SplineSet
864 -250 m 0,0,-1
 824 -250 l 0,1,2
 797 -250 797 -250 760.5 -248.5 c 0,3,4
 724 -247 724 -247 682 -242.5 c 0,5,6
 640 -238 640 -238 599 -228.5 c 0,7,8
 558 -219 558 -219 521 -204 c 0,9,10
 484 -189 484 -189 459 -166 c 0,11,12
 412 -125 412 -125 391 -69 c 0,13,14
 370 -13 370 -13 363.5 48.5 c 0,15,16
 357 110 357 110 358.5 173.5 c 0,17,18
 360 237 360 237 359 295 c 0,19,20
 358 353 358 353 348.5 401 c 0,21,22
 339 449 339 449 309 479 c 0,23,24
 279 509 279 509 240 521.5 c 0,25,26
 201 534 201 534 166 538 c 0,27,28
 126 542 126 542 84 537 c 0,29,-1
 84 659 l 0,30,31
 126 653 126 653 166 657 c 0,32,33
 201 660 201 660 240 672.5 c 0,34,35
 279 685 279 685 309 715 c 0,36,37
 339 745 339 745 348.5 793.5 c 0,38,39
 358 842 358 842 359 900 c 0,40,41
 360 958 360 958 358.5 1022 c 0,42,43
 357 1086 357 1086 363.5 1147.5 c 0,44,45
 370 1209 370 1209 391 1265 c 0,46,47
 412 1321 412 1321 459 1362 c 0,48,49
 484 1385 484 1385 521 1400 c 0,50,51
 558 1415 558 1415 599 1424.5 c 0,52,53
 640 1434 640 1434 682 1438.5 c 0,54,55
 724 1443 724 1443 760.5 1444.5 c 0,56,57
 797 1446 797 1446 824 1446 c 0,58,-1
 864 1446 l 0,59,-1
 864 1333 l 0,60,61
 827 1333 827 1333 791 1328 c 0,62,63
 760 1323 760 1323 726.5 1312 c 0,64,65
 693 1301 693 1301 670 1278 c 0,66,67
 639 1248 639 1248 628 1203.5 c 0,68,69
 617 1159 617 1159 615 1106.5 c 0,70,71
 613 1054 613 1054 614 997 c 0,72,73
 615 940 615 940 609 884.5 c 0,74,75
 603 829 603 829 584.5 778 c 0,76,77
 566 727 566 727 524 688 c 0,78,79
 492 657 492 657 457 639 c 0,80,81
 422 621 422 621 392 612 c 0,82,83
 362 603 362 603 339 600 c 0,84,85
 322 598 322 598 313 598 c 0,86,87
 322 597 322 597 339 595 c 0,88,89
 362 592 362 592 392 582.5 c 0,90,91
 422 573 422 573 457 555 c 0,92,93
 492 537 492 537 524 506 c 0,94,95
 566 466 566 466 584.5 415.5 c 0,96,97
 603 365 603 365 609 309.5 c 0,98,99
 615 254 615 254 614 197.5 c 0,100,101
 613 141 613 141 615 89 c 0,102,103
 617 37 617 37 628 -7.5 c 0,104,105
 639 -52 639 -52 670 -82 c 0,106,107
 693 -105 693 -105 726.5 -116 c 0,108,109
 760 -127 760 -127 791 -132 c 0,110,111
 827 -137 827 -137 864 -137 c 0,112,-1
 864 -250 l 0,0,-1
EndSplineSet
EndChar

StartChar: bar
Encoding: 95 124 95
Width: 815
Flags: W
LayerCount: 2
Fore
SplineSet
320 -528 m 0,0,-1
 320 1630 l 0,1,-1
 495 1630 l 0,2,-1
 495 -528 l 0,3,-1
 320 -528 l 0,0,-1
EndSplineSet
EndChar

StartChar: braceright
Encoding: 96 125 96
Width: 1014
Flags: W
LayerCount: 2
Fore
SplineSet
930 537 m 0,0,1
 887 542 887 542 847 538 c 0,2,3
 812 534 812 534 773 521.5 c 0,4,5
 734 509 734 509 705 479 c 0,6,7
 675 448 675 448 665 400 c 0,8,9
 655 352 655 352 653.5 294 c 0,10,11
 652 236 652 236 653.5 172.5 c 0,12,13
 655 109 655 109 648.5 47.5 c 0,14,15
 642 -14 642 -14 621.5 -69.5 c 0,16,17
 601 -125 601 -125 555 -166 c 0,18,19
 529 -189 529 -189 492.5 -204 c 0,20,21
 456 -219 456 -219 415 -228.5 c 0,22,23
 374 -238 374 -238 332 -242.5 c 0,24,25
 290 -247 290 -247 253.5 -248.5 c 0,26,27
 217 -250 217 -250 189 -250 c 0,28,-1
 150 -250 l 0,29,-1
 150 -137 l 0,30,31
 187 -137 187 -137 223 -132 c 0,32,33
 254 -127 254 -127 287 -116 c 0,34,35
 320 -105 320 -105 344 -82 c 0,36,37
 375 -52 375 -52 386 -8 c 0,38,39
 397 36 397 36 399 88 c 0,40,41
 401 140 401 140 400 196.5 c 0,42,43
 399 253 399 253 404.5 308.5 c 0,44,45
 410 364 410 364 428.5 415 c 0,46,47
 447 466 447 466 489 506 c 0,48,49
 521 536 521 536 555 554 c 0,50,51
 589 572 589 572 619.5 581.5 c 0,52,53
 650 591 650 591 673 594 c 0,54,55
 696 597 696 597 705 598 c 0,56,57
 698 598 698 598 675.5 600 c 0,58,59
 653 602 653 602 622.5 611 c 0,60,61
 592 620 592 620 557 638 c 0,62,63
 522 656 522 656 489 688 c 0,64,65
 447 728 447 728 428.5 779 c 0,66,67
 410 830 410 830 404.5 885.5 c 0,68,69
 399 941 399 941 400 998 c 0,70,71
 401 1055 401 1055 399 1107.5 c 0,72,73
 397 1160 397 1160 386 1204 c 0,74,75
 375 1248 375 1248 344 1278 c 0,76,77
 320 1301 320 1301 287 1312 c 0,78,79
 254 1323 254 1323 223 1328 c 0,80,81
 187 1333 187 1333 150 1333 c 0,82,-1
 150 1446 l 0,83,-1
 189 1446 l 0,84,85
 217 1446 217 1446 253.5 1444.5 c 0,86,87
 290 1443 290 1443 332 1438.5 c 0,88,89
 374 1434 374 1434 415 1424.5 c 0,90,91
 456 1415 456 1415 493 1400 c 0,92,93
 530 1385 530 1385 555 1362 c 0,94,95
 601 1320 601 1320 621.5 1264.5 c 0,96,97
 642 1209 642 1209 648.5 1147.5 c 0,98,99
 655 1086 655 1086 653.5 1022 c 0,100,101
 652 958 652 958 653.5 900 c 0,102,103
 655 842 655 842 665 793.5 c 0,104,105
 675 745 675 745 705 715 c 0,106,107
 734 685 734 685 773 672.5 c 0,108,109
 812 660 812 660 847 657 c 0,110,111
 887 653 887 653 930 659 c 0,112,-1
 930 537 l 0,0,1
EndSplineSet
EndChar

StartChar: asciitilde
Encoding: 97 126 97
Width: 1706
Flags: W
LayerCount: 2
Fore
SplineSet
1530 612 m 1,0,1
 1469 569 1469 569 1415.5 539.5 c 128,-1,2
 1362 510 1362 510 1315 492.5 c 128,-1,3
 1268 475 1268 475 1225 468 c 128,-1,4
 1182 461 1182 461 1141 461 c 0,5,6
 1067 461 1067 461 997.5 481.5 c 128,-1,7
 928 502 928 502 859.5 526.5 c 128,-1,8
 791 551 791 551 720 571.5 c 128,-1,9
 649 592 649 592 575 592 c 0,10,11
 505 592 505 592 412 549 c 128,-1,12
 319 506 319 506 193 410 c 1,13,-1
 193 602 l 1,14,15
 308 688 308 688 407 723 c 128,-1,16
 506 758 506 758 588 758 c 0,17,18
 645 758 645 758 699.5 745.5 c 128,-1,19
 754 733 754 733 807 715.5 c 128,-1,20
 860 698 860 698 912.5 677.5 c 128,-1,21
 965 657 965 657 1018 643 c 0,22,23
 1049 635 1049 635 1080.5 630 c 128,-1,24
 1112 625 1112 625 1143 625 c 0,25,26
 1176 625 1176 625 1213.5 632 c 128,-1,27
 1251 639 1251 639 1298.5 659.5 c 128,-1,28
 1346 680 1346 680 1403 715 c 128,-1,29
 1460 750 1460 750 1532 803 c 1,30,-1
 1530 612 l 1,0,1
EndSplineSet
Refer: 348 -1 N 1 0 0 1 0 0 2
EndChar

StartChar: exclam.taml
Encoding: 99 -1 99
Width: 917
Flags: W
LayerCount: 2
Fore
SplineSet
662 1061 m 1,0,1
 633 860 633 860 571 365 c 0,2,3
 563 293 563 293 549 188 c 1,4,-1
 477 188 l 1,5,6
 469 256 469 256 461 328 c 0,7,8
 445 459 445 459 419 663.5 c 128,-1,9
 393 868 393 868 365 1057 c 0,10,11
 363 1073 363 1073 362 1106 c 0,12,13
 362 1186 362 1186 400 1236 c 128,-1,14
 438 1286 438 1286 512 1286 c 256,15,16
 586 1286 586 1286 624 1231 c 128,-1,17
 662 1176 662 1176 662 1061 c 1,0,1
653 -72 m 256,18,19
 653 -133 653 -133 615.5 -174 c 128,-1,20
 578 -215 578 -215 512 -215 c 0,21,22
 453 -215 453 -215 410 -175 c 128,-1,23
 367 -135 367 -135 367 -70 c 0,24,25
 367 -15 367 -15 410 25.5 c 128,-1,26
 453 66 453 66 510 66 c 0,27,28
 571 66 571 66 612 27.5 c 128,-1,29
 653 -11 653 -11 653 -72 c 256,18,19
EndSplineSet
EndChar

StartChar: quoteleft.taml
Encoding: 100 -1 100
Width: 716
Flags: W
LayerCount: 2
Fore
SplineSet
535 1810 m 1,0,1
 375 1759 375 1759 291 1659 c 128,-1,2
 207 1559 207 1559 244 1536 c 0,3,4
 258 1526 258 1526 276 1526 c 256,5,6
 294 1526 294 1526 334.5 1551.5 c 128,-1,7
 375 1577 375 1577 399 1577 c 0,8,9
 422 1577 422 1577 453 1561 c 0,10,11
 549 1500 549 1500 549 1391 c 0,12,13
 549 1334 549 1334 519 1290.5 c 128,-1,14
 489 1247 489 1247 446 1228.5 c 128,-1,15
 403 1210 403 1210 346 1210 c 0,16,17
 309 1210 309 1210 252 1215.5 c 128,-1,18
 195 1221 195 1221 137.5 1307 c 128,-1,19
 80 1393 80 1393 80 1489 c 0,20,21
 80 1520 80 1520 88 1544 c 0,22,23
 129 1741 129 1741 332 1858 c 0,24,25
 398 1895 398 1895 526 1937 c 1,26,-1
 535 1810 l 1,0,1
EndSplineSet
EndChar

StartChar: u20A8
Encoding: 101 8360 101
Width: 2293
Flags: W
LayerCount: 2
Fore
SplineSet
2023 262 m 0,0,1
 2023 139 2023 139 1932 60.5 c 128,-1,2
 1841 -18 1841 -18 1716 -18 c 0,3,4
 1659 -18 1659 -18 1582 4.5 c 128,-1,5
 1505 27 1505 27 1491 27 c 0,6,7
 1473 27 1473 27 1464 12 c 1,8,-1
 1411 20 l 1,9,-1
 1411 326 l 1,10,-1
 1464 326 l 1,11,12
 1503 179 1503 179 1564.5 124.5 c 128,-1,13
 1626 70 1626 70 1722 70 c 0,14,15
 1773 70 1773 70 1814 105.5 c 128,-1,16
 1855 141 1855 141 1855 184 c 0,17,18
 1855 254 1855 254 1755 313 c 0,19,20
 1718 336 1718 336 1636 373 c 0,21,22
 1505 439 1505 439 1468 475 c 0,23,24
 1407 534 1407 534 1407 635 c 0,25,26
 1407 750 1407 750 1483 819.5 c 128,-1,27
 1559 889 1559 889 1677 889 c 0,28,29
 1716 889 1716 889 1757 879.5 c 128,-1,30
 1798 870 1798 870 1845 860 c 0,31,32
 1876 860 1876 860 1886 891 c 1,33,-1
 1962 891 l 1,34,-1
 1962 580 l 1,35,-1
 1886 580 l 1,36,37
 1857 709 1857 709 1806 760 c 128,-1,38
 1755 811 1755 811 1667 811 c 0,39,40
 1616 811 1616 811 1579 787.5 c 128,-1,41
 1542 764 1542 764 1542 719 c 0,42,43
 1542 647 1542 647 1614 602 c 0,44,45
 1624 594 1624 594 1778 526 c 0,46,47
 1897 467 1897 467 1942 424 c 0,48,49
 2017 356 2017 356 2023 262 c 0,0,1
1305 12 m 1,50,-1
 932 12 l 1,51,-1
 498 594 l 1,52,-1
 395 590 l 1,53,-1
 391 250 l 2,54,55
 391 146 391 146 413.5 123 c 128,-1,56
 436 100 436 100 504 100 c 2,57,-1
 573 100 l 1,58,-1
 573 18 l 1,59,-1
 -8 18 l 1,60,-1
 -8 100 l 1,61,-1
 47 100 l 2,62,63
 115 100 115 100 137 119 c 0,64,65
 170 148 170 148 170 250 c 2,66,-1
 170 1055 l 2,67,68
 170 1145 170 1145 142.5 1167.5 c 128,-1,69
 115 1190 115 1190 49 1190 c 2,70,-1
 -16 1186 l 1,71,-1
 -16 1280 l 1,72,-1
 465 1280 l 2,73,74
 752 1280 752 1280 887 1207.5 c 128,-1,75
 1022 1135 1022 1135 1022 954 c 0,76,77
 1022 843 1022 843 956 764 c 0,78,79
 880 674 880 674 721 627 c 1,80,81
 832 480 832 480 934 348 c 0,82,83
 1090 147 1090 147 1114 137 c 0,84,85
 1145 119 1145 119 1202.5 110.5 c 128,-1,86
 1260 102 1260 102 1296 98 c 1,87,-1
 1305 12 l 1,50,-1
776 938 m 0,88,89
 776 1040 776 1040 717 1102 c 0,90,91
 643 1182 643 1182 485 1182 c 0,92,93
 440 1182 440 1182 389 1174 c 1,94,-1
 389 700 l 1,95,96
 559 700 559 700 667.5 766 c 128,-1,97
 776 832 776 832 776 938 c 0,88,89
EndSplineSet
EndChar

StartChar: percent.taml
Encoding: 102 -1 102
Width: 1665
Flags: W
LayerCount: 2
Fore
SplineSet
1458 461 m 0,0,1
 1458 244 1458 244 1354 133 c 0,2,3
 1268 43 1268 43 1143 43 c 0,4,5
 1012 43 1012 43 946.5 134 c 128,-1,6
 881 225 881 225 881 401 c 0,7,8
 881 632 881 632 995 750 c 0,9,10
 1081 836 1081 836 1190 836 c 0,11,12
 1327 836 1327 836 1399 721 c 0,13,14
 1460 621 1460 621 1458 461 c 0,0,1
1274 1442 m 1,15,-1
 416 33 l 1,16,-1
 233 33 l 1,17,-1
 1090 1442 l 1,18,-1
 1274 1442 l 1,15,-1
641 1081 m 0,19,20
 641 850 641 850 528 733 c 0,21,22
 442 647 442 647 334 647 c 0,23,24
 197 647 197 647 130 754.5 c 128,-1,25
 63 862 63 862 63 1022 c 0,26,27
 63 1239 63 1239 168 1350 c 0,28,29
 254 1440 254 1440 379 1440 c 0,30,31
 510 1440 510 1440 575.5 1348.5 c 128,-1,32
 641 1257 641 1257 641 1081 c 0,19,20
1290 352 m 0,33,34
 1290 499 1290 499 1243 568 c 128,-1,35
 1196 637 1196 637 1122 637 c 0,36,37
 1083 637 1083 637 1069 614.5 c 128,-1,38
 1055 592 1055 592 1055 530 c 0,39,40
 1055 229 1055 229 1229 229 c 0,41,42
 1290 229 1290 229 1290 352 c 0,33,34
469 948 m 0,43,44
 469 1249 469 1249 295 1249 c 0,45,46
 234 1249 234 1249 233 1124 c 0,47,48
 233 979 233 979 285 905 c 0,49,50
 328 844 328 844 401 844 c 0,51,52
 440 844 440 844 454.5 866.5 c 128,-1,53
 469 889 469 889 469 948 c 0,43,44
EndSplineSet
EndChar

StartChar: ampersand.taml
Encoding: 103 -1 103
Width: 1447
Flags: W
LayerCount: 2
Fore
SplineSet
1423 272 m 1,0,1
 1384 133 1384 133 1305.5 64.5 c 128,-1,2
 1227 -4 1227 -4 1116 -4 c 0,3,4
 1075 -4 1075 -4 1035 4 c 128,-1,5
 995 12 995 12 951 34.5 c 128,-1,6
 907 57 907 57 871.5 86 c 128,-1,7
 836 115 836 115 793 158 c 1,8,9
 693 78 693 78 588 37 c 128,-1,10
 483 -4 483 -4 393 -4 c 0,11,12
 254 -4 254 -4 143 84 c 0,13,14
 47 166 47 166 47 285 c 0,15,16
 47 394 47 394 128 501 c 128,-1,17
 209 608 209 608 414 719 c 1,18,19
 348 864 348 864 348 967 c 0,20,21
 348 1106 348 1106 446.5 1192 c 128,-1,22
 545 1278 545 1278 692 1278 c 0,23,24
 807 1278 807 1278 885 1209.5 c 128,-1,25
 963 1141 963 1141 963 1040 c 0,26,27
 963 946 963 946 900.5 872.5 c 128,-1,28
 838 799 838 799 676 717 c 1,29,30
 719 643 719 643 771 562 c 128,-1,31
 823 481 823 481 877 416 c 1,32,33
 1004 576 1004 576 1004 678 c 0,34,35
 1004 703 1004 703 987.5 724 c 128,-1,36
 971 745 971 745 924 750 c 1,37,-1
 924 836 l 1,38,-1
 1358 836 l 1,39,-1
 1358 750 l 1,40,41
 1307 750 1307 750 1280 742.5 c 128,-1,42
 1253 735 1253 735 1226.5 716.5 c 128,-1,43
 1200 698 1200 698 1127.5 567 c 128,-1,44
 1055 436 1055 436 958 319 c 1,45,46
 987 286 987 286 1021 261 c 128,-1,47
 1055 236 1055 236 1079 219 c 0,48,49
 1132 190 1132 190 1184 190 c 0,50,51
 1301 190 1301 190 1337 332 c 1,52,-1
 1423 272 l 1,0,1
799 1049 m 0,53,54
 799 1096 799 1096 768 1128.5 c 128,-1,55
 737 1161 737 1161 686 1165 c 0,56,57
 629 1165 629 1165 595 1125 c 128,-1,58
 561 1085 561 1085 561 1038 c 0,59,60
 561 987 561 987 570.5 952.5 c 128,-1,61
 580 918 580 918 618 829 c 1,62,63
 706 872 706 872 751.5 926.5 c 128,-1,64
 797 981 797 981 799 1049 c 0,53,54
700 248 m 1,65,66
 612 371 612 371 560 451.5 c 128,-1,67
 508 532 508 532 465 612 c 1,68,69
 436 594 436 594 408 575 c 0,70,71
 361 538 361 538 338 508 c 0,72,73
 293 447 293 447 293 371 c 0,74,75
 293 291 293 291 344 225 c 0,76,77
 405 157 405 157 485 158 c 0,78,79
 532 158 532 158 582 179.5 c 128,-1,80
 632 201 632 201 700 248 c 1,65,66
EndSplineSet
EndChar

StartChar: quoteright.taml
Encoding: 104 -1 104
Width: 716
Flags: W
LayerCount: 2
Fore
SplineSet
459 1573 m 1,0,1
 416 1376 416 1376 213 1260 c 0,2,3
 147 1223 147 1223 20 1180 c 1,4,-1
 20 1309 l 1,5,6
 180 1360 180 1360 268 1464 c 0,7,8
 348 1558 348 1558 311 1581 c 0,9,10
 297 1591 297 1591 279 1591 c 256,11,12
 261 1591 261 1591 220.5 1565.5 c 128,-1,13
 180 1540 180 1540 152 1540 c 0,14,15
 129 1540 129 1540 98 1556 c 0,16,17
 2 1617 2 1617 2 1726 c 0,18,19
 2 1783 2 1783 31.5 1826.5 c 128,-1,20
 61 1870 61 1870 104 1888.5 c 128,-1,21
 147 1907 147 1907 207 1907 c 0,22,23
 244 1907 244 1907 301 1901.5 c 128,-1,24
 358 1896 358 1896 415.5 1810 c 128,-1,25
 473 1724 473 1724 473 1628 c 0,26,27
 473 1598 473 1598 459 1573 c 1,0,1
EndSplineSet
EndChar

StartChar: parenleft.taml
Encoding: 105 -1 105
Width: 802
Flags: W
LayerCount: 2
Fore
SplineSet
905 -664 m 1,0,-1
 854 -723 l 1,1,2
 481 -520 481 -520 293 -176 c 0,3,4
 117 143 117 143 117 541 c 0,5,6
 117 944 117 944 291 1262 c 0,7,8
 479 1606 479 1606 850 1808 c 1,9,-1
 903 1757 l 1,10,11
 659 1569 659 1569 528 1242 c 128,-1,12
 397 915 397 915 397 547 c 0,13,14
 397 180 397 180 524 -139.5 c 128,-1,15
 651 -459 651 -459 905 -664 c 1,0,-1
EndSplineSet
EndChar

StartChar: parenright.taml
Encoding: 106 -1 106
Width: 802
Flags: W
LayerCount: 2
Fore
SplineSet
573 541 m 0,0,1
 573 144 573 144 397 -176 c 0,2,3
 209 -520 209 -520 -164 -723 c 1,4,-1
 -215 -666 l 1,5,6
 33 -463 33 -463 161 -138.5 c 128,-1,7
 289 186 289 186 289 549 c 0,8,9
 289 916 289 916 158 1240.5 c 128,-1,10
 27 1565 27 1565 -215 1753 c 1,11,-1
 -162 1806 l 1,12,13
 207 1603 207 1603 395 1264 c 0,14,15
 571 944 571 944 573 541 c 0,0,1
EndSplineSet
EndChar

StartChar: asterisk.taml
Encoding: 107 -1 107
Width: 1720
Flags: W
LayerCount: 2
Fore
SplineSet
1280 948 m 1,0,1
 1243 891 1243 891 1169 891 c 0,2,3
 1130 891 1130 891 1106 915 c 0,4,5
 1061 952 1061 952 995.5 1011.5 c 128,-1,6
 930 1071 930 1071 907 1087 c 1,7,8
 911 1040 911 1040 936 954 c 0,9,10
 952 897 952 897 969 836 c 1,11,12
 969 783 969 783 938 746 c 128,-1,13
 907 709 907 709 856 709 c 0,14,15
 813 709 813 709 777 744.5 c 128,-1,16
 741 780 741 780 741 838 c 1,17,18
 751 891 751 891 776 979 c 0,19,20
 792 1040 792 1040 801 1092 c 1,21,22
 772 1074 772 1074 741 1042 c 0,23,24
 675 981 675 981 610 920 c 0,25,26
 573 891 573 891 528 891 c 0,27,28
 462 891 462 891 430 942 c 0,29,30
 416 971 416 971 416 995 c 0,31,32
 416 1032 416 1032 435.5 1061 c 128,-1,33
 455 1090 455 1090 492.5 1102 c 128,-1,34
 530 1114 530 1114 620.5 1135.5 c 128,-1,35
 711 1157 711 1157 754 1174 c 1,36,37
 740 1178 740 1178 655.5 1197.5 c 128,-1,38
 571 1217 571 1217 492 1239 c 0,39,40
 467 1249 467 1249 449 1268 c 0,41,42
 420 1299 420 1299 420 1346 c 0,43,44
 420 1377 420 1377 430 1395 c 0,45,46
 469 1446 469 1446 537 1446 c 0,47,48
 578 1446 578 1446 608 1423 c 0,49,50
 655 1380 655 1380 712.5 1322 c 128,-1,51
 770 1264 770 1264 799 1241 c 1,52,53
 789 1298 789 1298 784 1321 c 0,54,55
 745 1473 745 1473 741 1497 c 0,56,57
 741 1554 741 1554 775 1588 c 128,-1,58
 809 1622 809 1622 856 1622 c 256,59,60
 903 1622 903 1622 934 1585 c 128,-1,61
 965 1548 965 1548 965 1495 c 0,62,63
 963 1491 963 1491 924 1348 c 0,64,65
 908 1289 908 1289 903 1243 c 1,66,67
 928 1261 928 1261 1010 1341 c 0,68,69
 1051 1384 1051 1384 1098 1423 c 0,70,71
 1123 1439 1123 1439 1159 1440 c 0,72,73
 1231 1440 1231 1440 1270 1393 c 0,74,75
 1284 1364 1284 1364 1284 1339 c 0,76,77
 1284 1251 1284 1251 1187 1228.5 c 128,-1,78
 1090 1206 1090 1206 1042.5 1197 c 128,-1,79
 995 1188 995 1188 944 1169 c 1,80,81
 991 1151 991 1151 1057.5 1134.5 c 128,-1,82
 1124 1118 1124 1118 1200 1102 c 0,83,84
 1280 1079 1280 1079 1280 997 c 0,85,86
 1280 968 1280 968 1280 948 c 1,0,1
EndSplineSet
EndChar

StartChar: plus.taml
Encoding: 108 -1 108
Width: 1204
Flags: W
LayerCount: 2
Fore
SplineSet
913 524 m 2,0,-1
 727 524 l 1,1,-1
 727 348 l 2,2,3
 727 315 727 315 691 297 c 128,-1,4
 655 279 655 279 602 279 c 0,5,6
 555 279 555 279 517 297 c 128,-1,7
 479 315 479 315 479 348 c 2,8,-1
 479 524 l 1,9,-1
 293 524 l 2,10,11
 260 524 260 524 241.5 558 c 128,-1,12
 223 592 223 592 223 643 c 0,13,14
 223 690 223 690 241.5 726 c 128,-1,15
 260 762 260 762 293 762 c 2,16,-1
 479 762 l 1,17,-1
 479 938 l 2,18,19
 479 969 479 969 516 988.5 c 128,-1,20
 553 1008 553 1008 604 1008 c 256,21,22
 655 1008 655 1008 692 989.5 c 128,-1,23
 729 971 729 971 729 938 c 2,24,-1
 729 762 l 1,25,-1
 915 762 l 2,26,27
 948 762 948 762 967.5 726 c 128,-1,28
 987 690 987 690 987 643 c 0,29,30
 987 592 987 592 968.5 558 c 128,-1,31
 950 524 950 524 913 524 c 2,0,-1
EndSplineSet
EndChar

StartChar: comma.taml
Encoding: 109 -1 109
Width: 630
Flags: W
LayerCount: 2
Fore
SplineSet
469 90 m 0,0,1
 469 -72 469 -72 346 -188 c 0,2,3
 184 -342 184 -342 39 -342 c 1,4,-1
 39 -219 l 1,5,6
 100 -219 100 -219 197 -145 c 0,7,8
 312 -57 312 -57 311 37 c 1,9,-1
 307 41 l 1,10,11
 291 41 291 41 251 15.5 c 128,-1,12
 211 -10 211 -10 182 -10 c 0,13,14
 131 -10 131 -10 74.5 49.5 c 128,-1,15
 18 109 18 109 18 174 c 0,16,17
 18 242 18 242 77.5 298 c 128,-1,18
 137 354 137 354 211 354 c 0,19,20
 326 354 326 354 398.5 271 c 128,-1,21
 471 188 471 188 469 90 c 0,0,1
EndSplineSet
EndChar

StartChar: hyphen.taml
Encoding: 110 -1 110
Width: 1269
Flags: W
LayerCount: 2
Fore
SplineSet
1034 547 m 2,0,-1
 231 547 l 2,1,2
 159 547 159 547 115.5 577.5 c 128,-1,3
 72 608 72 608 72 647 c 256,4,5
 72 686 72 686 113 714.5 c 128,-1,6
 154 743 154 743 229 743 c 2,7,-1
 1032 743 l 2,8,9
 1108 743 1108 743 1151 712.5 c 128,-1,10
 1194 682 1194 682 1194 639 c 0,11,12
 1194 600 1194 600 1154 573.5 c 128,-1,13
 1114 547 1114 547 1034 547 c 2,0,-1
EndSplineSet
EndChar

StartChar: period.taml
Encoding: 111 -1 111
Width: 630
Flags: W
LayerCount: 2
Fore
SplineSet
467 176 m 256,0,1
 467 102 467 102 404.5 51 c 128,-1,2
 342 0 342 0 256 0 c 0,3,4
 176 0 176 0 113.5 51 c 128,-1,5
 51 102 51 102 51 176 c 256,6,7
 51 250 51 250 110.5 301 c 128,-1,8
 170 352 170 352 256 352 c 256,9,10
 342 352 342 352 404.5 301 c 128,-1,11
 467 250 467 250 467 176 c 256,0,1
EndSplineSet
EndChar

StartChar: uni2215
Encoding: 113 8725 113
Width: 745
Flags: W
LayerCount: 2
Fore
SplineSet
782 1759 m 1,0,-1
 80 -270 l 1,1,-1
 -92 -270 l 1,2,-1
 612 1759 l 1,3,-1
 782 1759 l 1,0,-1
EndSplineSet
EndChar

StartChar: zero.taml
Encoding: 114 -1 114
Width: 1529
Flags: W
LayerCount: 2
Fore
SplineSet
1214 645 m 0,0,1
 1214 328 1214 328 1030 156 c 0,2,3
 862 2 862 2 586 2 c 0,4,5
 527 2 527 2 467 10 c 0,6,7
 201 43 201 43 84 211 c 0,8,9
 -20 358 -20 358 -20 641 c 0,10,11
 -20 926 -20 926 84 1073 c 0,12,13
 201 1239 201 1239 467 1270 c 0,14,15
 498 1272 498 1272 532.5 1273 c 128,-1,16
 567 1274 567 1274 584 1274 c 0,17,18
 887 1274 887 1274 1055 1092 c 0,19,20
 1214 917 1214 917 1214 645 c 0,0,1
815 635 m 0,21,22
 815 846 815 846 741 961 c 0,23,24
 653 1098 653 1098 469 1098 c 0,25,26
 307 1098 307 1098 228.5 964.5 c 128,-1,27
 150 831 150 831 150 635 c 0,28,29
 150 447 150 447 230.5 313.5 c 128,-1,30
 311 180 311 180 469 180 c 0,31,32
 649 180 649 180 739 324 c 0,33,34
 815 447 815 447 815 635 c 0,21,22
EndSplineSet
EndChar

StartChar: one.taml
Encoding: 115 -1 115
Width: 993
Flags: W
LayerCount: 2
Fore
SplineSet
674 1178 m 0,0,1
 602 1059 602 1059 602 883 c 0,2,3
 602 811 602 811 595 618.5 c 128,-1,4
 588 426 588 426 588 395 c 0,5,6
 588 196 588 196 469 88 c 0,7,8
 367 -2 367 -2 219 -2 c 0,9,10
 129 -2 129 -2 129 51 c 0,11,12
 129 80 129 80 147 109 c 0,13,14
 184 168 184 168 202.5 241.5 c 128,-1,15
 221 315 221 315 221 403 c 0,16,17
 221 469 221 469 264 715 c 0,18,19
 280 817 280 817 297 920 c 1,20,21
 274 854 274 854 238 795 c 0,22,23
 193 721 193 721 133 674 c 0,24,25
 96 637 96 637 51 637 c 0,26,27
 0 637 0 637 -16 682 c 0,28,29
 -20 705 -20 705 -20 715 c 0,30,31
 -20 754 -20 754 25 786.5 c 128,-1,32
 70 819 70 819 81 828.5 c 128,-1,33
 92 838 92 838 102 848 c 0,34,35
 131 877 131 877 154 922 c 0,36,37
 213 1041 213 1041 236 1087 c 0,38,39
 277 1169 277 1169 328 1206 c 128,-1,40
 379 1243 379 1243 443.5 1262.5 c 128,-1,41
 508 1282 508 1282 604 1282 c 0,42,43
 694 1282 694 1282 694 1229 c 0,44,45
 694 1205 694 1205 674 1178 c 0,0,1
EndSplineSet
EndChar

StartChar: two.taml
Encoding: 116 -1 116
Width: 1361
Flags: W
LayerCount: 2
Fore
SplineSet
1028 68 m 0,0,1
 977 43 977 43 930 18 c 0,2,3
 885 2 885 2 776 2 c 0,4,5
 686 2 686 2 643 13.5 c 128,-1,6
 600 25 600 25 512 25 c 0,7,8
 422 25 422 25 362 16 c 0,9,10
 202 -7 202 -7 172 -6 c 0,11,12
 96 -6 96 -6 51 25 c 0,13,14
 -17 70 -17 70 -16 178 c 0,15,16
 -16 305 -16 305 315.5 468 c 128,-1,17
 647 631 647 631 647 879 c 0,18,19
 647 1008 647 1008 602 1064 c 128,-1,20
 557 1120 557 1120 449 1120 c 2,21,-1
 403 1120 l 2,22,23
 329 1120 329 1120 285 1098 c 0,24,25
 211 1061 211 1061 160 958 c 0,26,27
 146 929 146 929 120 913 c 128,-1,28
 94 897 94 897 72 897 c 0,29,30
 0 897 0 897 0 971 c 0,31,32
 0 1000 0 1000 12 1028 c 0,33,34
 94 1182 94 1182 195.5 1233 c 128,-1,35
 297 1284 297 1284 440 1284 c 0,36,37
 745 1284 745 1284 882.5 1179.5 c 128,-1,38
 1020 1075 1020 1075 1020 866 c 0,39,40
 1020 608 1020 608 788 492 c 1,41,42
 522 383 522 383 260 274 c 0,43,44
 194 241 194 241 195 203 c 0,45,46
 195 185 195 185 216.5 170.5 c 128,-1,47
 238 156 238 156 266 156 c 0,48,49
 280 156 280 156 303 160 c 0,50,51
 393 191 393 191 410 190 c 0,52,53
 447 186 447 186 512 186 c 0,54,55
 584 186 584 186 620.5 175 c 128,-1,56
 657 164 657 164 723 164 c 0,57,58
 803 164 803 164 846 180 c 0,59,60
 891 205 891 205 922 219 c 0,61,62
 979 248 979 248 1024 248 c 0,63,64
 1120 248 1120 248 1120 168 c 0,65,66
 1120 143 1120 143 1099.5 114.5 c 128,-1,67
 1079 86 1079 86 1028 68 c 0,0,1
EndSplineSet
EndChar

StartChar: three.taml
Encoding: 117 -1 117
Width: 1214
Flags: W
LayerCount: 2
Fore
SplineSet
725 647 m 1,0,1
 815 579 815 579 859 499.5 c 128,-1,2
 903 420 903 420 903 346 c 0,3,4
 903 201 903 201 757.5 96.5 c 128,-1,5
 612 -8 612 -8 395 -8 c 0,6,7
 352 -8 352 -8 309 -8 c 1,8,9
 270 0 270 0 254 2 c 0,10,11
 37 35 37 35 -23 207 c 0,12,13
 -27 230 -27 230 -27 238 c 0,14,15
 -27 275 -27 275 -4.5 303.5 c 128,-1,16
 18 332 18 332 51 332 c 0,17,18
 102 332 102 332 141 256 c 0,19,20
 166 211 166 211 199.5 189.5 c 128,-1,21
 233 168 233 168 299 168 c 0,22,23
 379 168 379 168 451.5 233.5 c 128,-1,24
 524 299 524 299 524 389 c 0,25,26
 524 455 524 455 482 518.5 c 128,-1,27
 440 582 440 582 340 643 c 1,28,29
 434 704 434 704 479 774 c 128,-1,30
 524 844 524 844 524 905 c 0,31,32
 524 991 524 991 457.5 1047.5 c 128,-1,33
 391 1104 391 1104 301 1104 c 0,34,35
 272 1104 272 1104 244 1104 c 0,36,37
 213 1096 213 1096 184 1059 c 0,38,39
 141 1006 141 1006 96 1006 c 0,40,41
 65 1006 65 1006 42.5 1029.5 c 128,-1,42
 20 1053 20 1053 20 1090 c 0,43,44
 20 1119 20 1119 36.5 1151.5 c 128,-1,45
 53 1184 53 1184 126 1224 c 128,-1,46
 199 1264 199 1264 247 1272 c 128,-1,47
 295 1280 295 1280 332 1282 c 128,-1,48
 369 1284 369 1284 401 1284 c 0,49,50
 612 1284 612 1284 752.5 1187 c 128,-1,51
 893 1090 893 1090 893 942 c 0,52,53
 893 868 893 868 852 792.5 c 128,-1,54
 811 717 811 717 725 647 c 1,0,1
EndSplineSet
EndChar

StartChar: four.taml
Encoding: 118 -1 118
Width: 1458
Flags: W
LayerCount: 2
Fore
SplineSet
1128 401 m 0,0,1
 1019 340 1019 340 920 340 c 2,2,-1
 901 340 l 1,3,4
 885 166 885 166 770 72 c 0,5,6
 670 -8 670 -8 532 -8 c 0,7,8
 442 -8 442 -8 442 45 c 0,9,10
 442 74 442 74 461 102 c 0,11,12
 520 198 520 198 530 338 c 1,13,-1
 61 328 l 2,14,15
 -27 328 -27 328 -27 403 c 0,16,17
 -27 426 -27 426 -8 459 c 1,18,19
 207 674 207 674 434 956 c 0,20,21
 530 1075 530 1075 631 1198 c 0,22,23
 670 1245 670 1245 738.5 1263.5 c 128,-1,24
 807 1282 807 1282 915 1282 c 0,25,26
 1005 1282 1005 1282 1006 1229 c 0,27,28
 1006 1204 1006 1204 983 1174 c 0,29,30
 913 1055 913 1055 913 879 c 2,31,-1
 899 483 l 1,32,-1
 885 483 l 2,33,34
 932 483 932 483 1022 530 c 0,35,36
 1067 553 1067 553 1110 553 c 0,37,38
 1186 553 1186 553 1186 487 c 0,39,40
 1186 462 1186 462 1171.5 440.5 c 128,-1,41
 1157 419 1157 419 1128 401 c 0,0,1
627 1008 m 1,42,43
 559 897 559 897 430 737.5 c 128,-1,44
 301 578 301 578 197 477 c 1,45,-1
 530 500 l 1,46,47
 540 613 540 613 588 831 c 0,48,49
 604 918 604 918 627 1008 c 1,42,43
EndSplineSet
EndChar

StartChar: five.taml
Encoding: 119 -1 119
Width: 1384
Flags: W
LayerCount: 2
Fore
SplineSet
1069 434 m 1,0,1
 1069 231 1069 231 944 127 c 0,2,3
 790 -4 790 -4 416 -4 c 0,4,5
 277 -4 277 -4 201 15.5 c 128,-1,6
 125 35 125 35 45 96 c 0,7,8
 14 119 14 119 14 152 c 256,9,10
 14 185 14 185 42 210.5 c 128,-1,11
 70 236 70 236 102 236 c 0,12,13
 127 236 127 236 150 219 c 0,14,15
 209 174 209 174 253 165 c 128,-1,16
 297 156 297 156 412 156 c 0,17,18
 516 156 516 156 596 232.5 c 128,-1,19
 676 309 676 309 676 432 c 0,20,21
 676 612 676 612 516 688 c 0,22,23
 401 741 401 741 221 741 c 0,24,25
 96 741 96 741 96 803 c 0,26,27
 96 832 96 832 133 883 c 1,28,-1
 256 1165 l 1,29,-1
 315 1204 l 2,30,31
 346 1220 346 1220 391 1221 c 0,32,33
 420 1221 420 1221 468 1216.5 c 128,-1,34
 516 1212 516 1212 520 1212 c 0,35,36
 573 1212 573 1212 631.5 1208 c 128,-1,37
 690 1204 690 1204 692 1204 c 0,38,39
 749 1204 749 1204 786 1213.5 c 128,-1,40
 823 1223 823 1223 877.5 1251.5 c 128,-1,41
 932 1280 932 1280 979 1280 c 0,42,43
 1075 1280 1075 1280 1075 1200 c 0,44,45
 1075 1177 1075 1177 1067 1163 c 0,46,47
 1044 1124 1044 1124 985 1097.5 c 128,-1,48
 926 1071 926 1071 868.5 1056.5 c 128,-1,49
 811 1042 811 1042 752 1042 c 0,50,51
 691 1042 691 1042 624 1046.5 c 128,-1,52
 557 1051 557 1051 526 1051 c 2,53,-1
 389 1047 l 1,54,-1
 295 905 l 1,55,56
 363 913 363 913 428 913 c 0,57,58
 696 913 696 913 870 795 c 0,59,60
 1059 663 1059 663 1069 434 c 1,0,1
EndSplineSet
EndChar

StartChar: six.taml
Encoding: 120 -1 120
Width: 1071
Flags: W
LayerCount: 2
Fore
SplineSet
899 483 m 0,0,1
 899 260 899 260 819 145 c 0,2,3
 717 0 717 0 477 0 c 0,4,5
 209 0 209 0 104 137 c 0,6,7
 16 252 16 252 16 512 c 0,8,9
 16 879 16 879 164 1069 c 0,10,11
 332 1286 332 1286 698 1286 c 0,12,13
 751 1286 751 1286 784 1262.5 c 128,-1,14
 817 1239 817 1239 817 1206 c 256,15,16
 817 1173 817 1173 786.5 1150.5 c 128,-1,17
 756 1128 756 1128 694 1128 c 0,18,19
 485 1128 485 1128 362 1032 c 0,20,21
 253 946 253 946 225 807 c 1,22,23
 305 838 305 838 420 838 c 0,24,25
 608 838 608 838 745 752 c 0,26,27
 903 655 903 655 899 483 c 0,0,1
530 432 m 0,28,29
 530 536 530 536 485 584.5 c 128,-1,30
 440 633 440 633 358 633 c 0,31,32
 219 633 219 633 219 446 c 0,33,34
 219 321 219 321 255 244.5 c 128,-1,35
 291 168 291 168 356 168 c 0,36,37
 465 168 465 168 498.5 223 c 128,-1,38
 532 278 532 278 530 432 c 0,28,29
EndSplineSet
EndChar

StartChar: seven.taml
Encoding: 121 -1 121
Width: 1304
Flags: W
LayerCount: 2
Fore
SplineSet
983 1163 m 0,0,1
 911 1069 911 1069 893 938 c 2,2,-1
 799 297 l 2,3,4
 776 152 776 152 689 82 c 128,-1,5
 602 12 602 12 494 12 c 0,6,7
 469 12 469 12 455 14 c 0,8,9
 381 28 381 28 381 68 c 0,10,11
 381 93 381 93 406 117 c 0,12,13
 476 213 476 213 494 338 c 2,14,-1
 588 979 l 2,15,16
 592 1032 592 1032 608 1094 c 1,17,18
 534 1082 534 1082 477 1072.5 c 128,-1,19
 420 1063 420 1063 319 1063 c 0,20,21
 268 1063 268 1063 187 1079.5 c 128,-1,22
 106 1096 106 1096 70 1110 c 0,23,24
 -14 1135 -14 1135 -14 1186 c 0,25,26
 -14 1202 -14 1202 -6 1219 c 0,27,28
 17 1270 17 1270 63 1270 c 0,29,30
 81 1270 81 1270 121.5 1257.5 c 128,-1,31
 162 1245 162 1245 178 1243 c 0,32,33
 211 1239 211 1239 265 1234 c 128,-1,34
 319 1229 319 1229 379 1229 c 0,35,36
 461 1229 461 1229 526 1243 c 0,37,38
 626 1266 626 1266 641 1266 c 0,39,40
 731 1274 731 1274 825 1282 c 0,41,42
 893 1282 893 1282 945 1255.5 c 128,-1,43
 997 1229 997 1229 997 1210 c 0,44,45
 997 1194 997 1194 983 1163 c 0,0,1
EndSplineSet
EndChar

StartChar: eight.taml
Encoding: 122 -1 122
Width: 1142
Flags: W
LayerCount: 2
Fore
SplineSet
848 362 m 0,0,1
 848 174 848 174 715 78 c 0,2,3
 600 -4 600 -4 418 -4 c 0,4,5
 365 -4 365 -4 307 4 c 0,6,7
 151 27 151 27 64 120 c 128,-1,8
 -23 213 -23 213 -23 365 c 0,9,10
 -23 467 -23 467 22.5 538.5 c 128,-1,11
 68 610 68 610 143 657 c 1,12,13
 75 704 75 704 32.5 774 c 128,-1,14
 -10 844 -10 844 -10 926 c 0,15,16
 -10 1065 -10 1065 63.5 1160 c 128,-1,17
 137 1255 137 1255 293 1278 c 0,18,19
 359 1286 359 1286 410 1286 c 0,20,21
 615 1286 615 1286 723 1178 c 0,22,23
 819 1082 819 1082 819 924 c 0,24,25
 819 840 819 840 762 768 c 128,-1,26
 705 696 705 696 616 659 c 1,27,28
 720 616 720 616 774 555 c 0,29,30
 842 475 842 475 848 362 c 0,0,1
453 922 m 0,31,32
 453 1022 453 1022 422 1070 c 128,-1,33
 391 1118 391 1118 295 1118 c 0,34,35
 221 1118 221 1118 188.5 1064 c 128,-1,36
 156 1010 156 1010 156 922 c 0,37,38
 156 840 156 840 192.5 781.5 c 128,-1,39
 229 723 229 723 297 723 c 1,40,41
 371 733 371 733 412 787.5 c 128,-1,42
 453 842 453 842 453 922 c 0,31,32
477 354 m 0,43,44
 477 465 477 465 437 530.5 c 128,-1,45
 397 596 397 596 301 596 c 0,46,47
 219 596 219 596 179 526.5 c 128,-1,48
 139 457 139 457 139 354 c 0,49,50
 139 266 139 266 183 214 c 128,-1,51
 227 162 227 162 307 162 c 0,52,53
 397 162 397 162 437 213 c 128,-1,54
 477 264 477 264 477 354 c 0,43,44
EndSplineSet
EndChar

StartChar: nine.taml
Encoding: 123 -1 123
Width: 1247
Flags: W
LayerCount: 2
Fore
SplineSet
930 803 m 0,0,1
 930 426 930 426 778 231 c 0,2,3
 596 -2 596 -2 178 -2 c 0,4,5
 125 -2 125 -2 92 21.5 c 128,-1,6
 59 45 59 45 59 78 c 256,7,8
 59 111 59 111 90 133.5 c 128,-1,9
 121 156 121 156 182 156 c 0,10,11
 407 156 407 156 551 258 c 0,12,13
 670 346 670 346 707 485 c 1,14,15
 590 403 590 403 442 403 c 0,16,17
 260 403 260 403 116.5 516 c 128,-1,18
 -27 629 -27 629 -27 791 c 0,19,20
 -27 1016 -27 1016 53 1130 c 0,21,22
 153 1273 153 1273 397 1274 c 0,23,24
 678 1274 678 1274 804 1157.5 c 128,-1,25
 930 1041 930 1041 930 803 c 0,0,1
731 870 m 0,26,27
 731 979 731 979 666.5 1045.5 c 128,-1,28
 602 1112 602 1112 526 1112 c 0,29,30
 417 1112 417 1112 377.5 1045.5 c 128,-1,31
 338 979 338 979 338 840 c 0,32,33
 338 736 338 736 396.5 671 c 128,-1,34
 455 606 455 606 537 606 c 0,35,36
 641 606 641 606 688 688 c 0,37,38
 727 755 727 755 731 870 c 0,26,27
EndSplineSet
EndChar

StartChar: colon.taml
Encoding: 124 -1 124
Width: 673
Flags: W
LayerCount: 2
Fore
SplineSet
485 930 m 0,0,1
 485 848 485 848 423.5 792.5 c 128,-1,2
 362 737 362 737 274 737 c 0,3,4
 192 737 192 737 131 792.5 c 128,-1,5
 70 848 70 848 70 930 c 256,6,7
 70 1012 70 1012 129 1068 c 128,-1,8
 188 1124 188 1124 272 1124 c 0,9,10
 358 1124 358 1124 420.5 1068 c 128,-1,11
 483 1012 483 1012 485 930 c 0,0,1
483 166 m 0,12,13
 483 84 483 84 420.5 26.5 c 128,-1,14
 358 -31 358 -31 272 -31 c 0,15,16
 192 -31 192 -31 130 26.5 c 128,-1,17
 68 84 68 84 68 166 c 0,18,19
 68 246 68 246 127 302 c 128,-1,20
 186 358 186 358 270 358 c 0,21,22
 356 358 356 358 418.5 302 c 128,-1,23
 481 246 481 246 483 166 c 0,12,13
EndSplineSet
EndChar

StartChar: semicolon.taml
Encoding: 125 -1 125
Width: 673
Flags: W
LayerCount: 2
Fore
SplineSet
469 930 m 256,0,1
 469 846 469 846 406.5 788.5 c 128,-1,2
 344 731 344 731 258 731 c 0,3,4
 176 731 176 731 114.5 789.5 c 128,-1,5
 53 848 53 848 53 930 c 0,6,7
 53 1010 53 1010 114.5 1068 c 128,-1,8
 176 1126 176 1126 258 1126 c 0,9,10
 344 1126 344 1126 406.5 1070 c 128,-1,11
 469 1014 469 1014 469 930 c 256,0,1
469 109 m 0,12,13
 469 -59 469 -59 346 -182 c 0,14,15
 184 -342 184 -342 39 -342 c 1,16,-1
 39 -242 l 1,17,18
 100 -238 100 -238 197 -150 c 0,19,20
 312 -48 312 -48 311 53 c 1,21,-1
 307 57 l 1,22,23
 291 57 291 57 250 30.5 c 128,-1,24
 209 4 209 4 184 4 c 0,25,26
 131 4 131 4 75.5 65.5 c 128,-1,27
 20 127 20 127 20 199 c 0,28,29
 20 273 20 273 79.5 330 c 128,-1,30
 139 387 139 387 213 387 c 0,31,32
 328 387 328 387 400.5 302.5 c 128,-1,33
 473 218 473 218 469 109 c 0,12,13
EndSplineSet
EndChar

StartChar: less.taml
Encoding: 126 -1 126
Width: 1509
Flags: W
LayerCount: 2
Fore
SplineSet
1251 -16 m 1,0,-1
 37 500 l 1,1,-1
 37 662 l 1,2,-1
 1251 1174 l 1,3,-1
 1251 973 l 1,4,-1
 324 578 l 1,5,-1
 1251 182 l 1,6,-1
 1251 -16 l 1,0,-1
EndSplineSet
EndChar

StartChar: equal.taml
Encoding: 127 -1 127
Width: 1615
Flags: W
LayerCount: 2
Fore
SplineSet
1415 840 m 1,0,-1
 201 840 l 1,1,-1
 201 1028 l 1,2,-1
 1415 1028 l 1,3,-1
 1415 840 l 1,0,-1
1415 422 m 1,4,-1
 201 422 l 1,5,-1
 201 610 l 1,6,-1
 1415 610 l 1,7,-1
 1415 422 l 1,4,-1
EndSplineSet
EndChar

StartChar: greater.taml
Encoding: 128 -1 128
Width: 1509
Flags: W
LayerCount: 2
Fore
SplineSet
1251 498 m 1,0,-1
 37 -18 l 1,1,-1
 37 182 l 1,2,-1
 965 578 l 1,3,-1
 37 973 l 1,4,-1
 37 1174 l 1,5,-1
 1251 662 l 1,6,-1
 1251 498 l 1,0,-1
EndSplineSet
EndChar

StartChar: question.taml
Encoding: 129 -1 129
Width: 1140
Flags: W
LayerCount: 2
Fore
SplineSet
911 897 m 0,0,1
 911 817 911 817 852 707 c 0,2,3
 805 619 805 619 737 539 c 0,4,5
 641 430 641 430 602 354 c 0,6,7
 555 260 555 260 530 113 c 1,8,-1
 436 113 l 1,9,10
 436 222 436 222 465 336 c 0,11,12
 483 412 483 412 506 463 c 2,13,-1
 571 606 l 2,14,15
 596 674 596 674 622.5 771 c 128,-1,16
 649 868 649 868 649 920 c 0,17,18
 649 1018 649 1018 598 1090 c 0,19,20
 539 1172 539 1172 428 1171 c 0,21,22
 362 1171 362 1171 304 1140.5 c 128,-1,23
 246 1110 246 1110 246 1065 c 0,24,25
 246 1040 246 1040 289 992 c 128,-1,26
 332 944 332 944 332 901 c 256,27,28
 332 858 332 858 303 822 c 128,-1,29
 274 786 274 786 215 786 c 0,30,31
 141 786 141 786 107.5 831.5 c 128,-1,32
 74 877 74 877 74 946 c 0,33,34
 74 1112 74 1112 211 1208 c 0,35,36
 328 1290 328 1290 475 1290 c 0,37,38
 575 1290 575 1290 677.5 1249 c 128,-1,39
 780 1208 780 1208 827 1157 c 0,40,41
 874 1098 874 1098 893.5 1042.5 c 128,-1,42
 913 987 913 987 911 897 c 0,0,1
637 -131 m 0,43,44
 637 -199 637 -199 590 -234.5 c 128,-1,45
 543 -270 543 -270 485 -270 c 0,46,47
 432 -270 432 -270 389 -240 c 0,48,49
 336 -201 336 -201 336 -133 c 0,50,51
 336 -72 336 -72 380 -31 c 128,-1,52
 424 10 424 10 485 10 c 0,53,54
 551 10 551 10 594 -33 c 128,-1,55
 637 -76 637 -76 637 -131 c 0,43,44
EndSplineSet
EndChar

StartChar: uni0952
Encoding: 133 2386 133
Width: 26
Flags: W
LayerCount: 2
Fore
SplineSet
-604 -326 m 1,0,-1
 -1589 -326 l 1,1,-1
 -1708 -135 l 1,2,-1
 -723 -135 l 1,3,-1
 -604 -326 l 1,0,-1
EndSplineSet
EndChar

StartChar: u0B83
Encoding: 136 2947 136
Width: 1751
Flags: W
LayerCount: 2
Fore
SplineSet
1075 1042 m 0,0,1
 1075 942 1075 942 1001.5 870.5 c 128,-1,2
 928 799 928 799 819 799 c 256,3,4
 710 799 710 799 636.5 867.5 c 128,-1,5
 563 936 563 936 563 1040 c 0,6,7
 563 1142 563 1142 637 1214 c 128,-1,8
 711 1286 711 1286 819 1286 c 0,9,10
 923 1286 923 1286 999 1213 c 128,-1,11
 1075 1140 1075 1140 1075 1042 c 0,0,1
1436 242 m 0,12,13
 1436 144 1436 144 1362 72 c 128,-1,14
 1288 0 1288 0 1180 0 c 256,15,16
 1071 0 1071 0 997.5 68.5 c 128,-1,17
 924 137 924 137 924 242 c 0,18,19
 924 344 924 344 997.5 415.5 c 128,-1,20
 1071 487 1071 487 1180 487 c 0,21,22
 1284 487 1284 487 1360 414.5 c 128,-1,23
 1436 342 1436 342 1436 242 c 0,12,13
662 242 m 0,24,25
 662 144 662 144 588 72 c 128,-1,26
 514 0 514 0 406 0 c 256,27,28
 297 0 297 0 223.5 68.5 c 128,-1,29
 150 137 150 137 150 242 c 0,30,31
 150 344 150 344 223.5 415.5 c 128,-1,32
 297 487 297 487 406 487 c 0,33,34
 510 487 510 487 586 414.5 c 128,-1,35
 662 342 662 342 662 242 c 0,24,25
EndSplineSet
EndChar

StartChar: u0B85
Encoding: 137 2949 137
Width: 2603
Flags: HW
AnchorPoint: "V" 1148 1305 basechar 0
AnchorPoint: "N" 1148 -134.814 basechar 0
LayerCount: 2
Fore
SplineSet
2281 1219 m 0,0,1
 2209 1100 2209 1100 2210 918 c 2,2,-1
 2210 141 l 2,3,4
 2210 -58 2210 -58 2091 -166 c 0,5,6
 1989 -260 1989 -260 1841 -260 c 0,7,8
 1751 -260 1751 -260 1751 -203 c 0,9,10
 1751 -178 1751 -178 1769 -147 c 0,11,12
 1806 -88 1806 -88 1824.5 -14.5 c 128,-1,13
 1843 59 1843 59 1843 147 c 2,14,-1
 1843 358 l 1,15,16
 1798 333 1798 333 1733.5 318 c 128,-1,17
 1669 303 1669 303 1595 303 c 1,18,19
 1501 108 1501 108 1268 -16 c 0,20,21
 1016 -153 1016 -153 696 -154 c 0,22,23
 399 -154 399 -154 215 -31 c 0,24,25
 -16 123 -16 123 -16 305 c 0,26,27
 -16 385 -16 385 36 426 c 128,-1,28
 88 467 88 467 176 467 c 2,29,-1
 1266 467 l 1,30,31
 1282 518 1282 518 1290 611.5 c 128,-1,32
 1298 705 1298 705 1298 743 c 0,33,34
 1298 940 1298 940 1225.5 1031 c 128,-1,35
 1153 1122 1153 1122 1040 1122 c 2,36,-1
 997 1120 l 1,37,38
 1063 1087 1063 1087 1104 1026 c 128,-1,39
 1145 965 1145 965 1145 862 c 0,40,41
 1145 801 1145 801 1120 739 c 0,42,43
 1087 659 1087 659 1028 621 c 0,44,45
 956 568 956 568 811 567 c 0,46,47
 694 567 694 567 624.5 647 c 128,-1,48
 555 727 555 727 555 838 c 0,49,50
 555 1063 555 1063 706.5 1178.5 c 128,-1,51
 858 1294 858 1294 1096 1294 c 0,52,53
 1383 1294 1383 1294 1530 1132.5 c 128,-1,54
 1677 971 1677 971 1677 680 c 0,55,56
 1677 580 1677 580 1663 471 c 1,57,58
 1780 471 1780 471 1853 537 c 1,59,-1
 1853 926 l 2,60,61
 1853 1127 1853 1127 1972 1237 c 0,62,63
 2074 1333 2074 1333 2222 1333 c 0,64,65
 2312 1333 2312 1333 2312 1276 c 0,66,67
 2312 1258 2312 1258 2281 1219 c 0,0,1
879 868 m 0,68,69
 879 915 879 915 860.5 963.5 c 128,-1,70
 842 1012 842 1012 803 1014 c 1,71,72
 764 1004 764 1004 740.5 951.5 c 128,-1,73
 717 899 717 899 717 842 c 0,74,75
 717 797 717 797 736.5 764 c 128,-1,76
 756 731 756 731 799 731 c 0,77,78
 881 731 881 731 879 868 c 0,68,69
1194 305 m 1,79,-1
 293 305 l 2,80,81
 240 305 240 305 240 246 c 0,82,83
 240 160 240 160 336 94 c 0,84,85
 455 14 455 14 674 14 c 0,86,87
 850 14 850 14 991 104 c 0,88,89
 1106 178 1106 178 1194 305 c 1,79,-1
EndSplineSet
EndChar

StartChar: u0B86
Encoding: 138 2950 138
Width: 3012
Flags: HW
AnchorPoint: "V" 1339.5 1305 basechar 0
AnchorPoint: "N" 1339.5 -526.134 basechar 0
LayerCount: 2
Fore
SplineSet
2697 186 m 0,0,1
 2697 -162 2697 -162 2425 -360 c 0,2,3
 2179 -540 2179 -540 1819 -541 c 0,4,5
 1524 -541 1524 -541 1329 -473 c 0,6,7
 1106 -393 1106 -393 1106 -248 c 0,8,9
 1106 -160 1106 -160 1178.5 -113 c 128,-1,10
 1251 -66 1251 -66 1362 -66 c 0,11,12
 1430 -66 1430 -66 1489 -75 c 128,-1,13
 1548 -84 1548 -84 1602 -106 c 0,14,15
 1627 -122 1627 -122 1626 -147 c 256,16,17
 1626 -172 1626 -172 1606.5 -191.5 c 128,-1,18
 1587 -211 1587 -211 1554 -211 c 0,19,20
 1544 -211 1544 -211 1524.5 -204 c 128,-1,21
 1505 -197 1505 -197 1457 -189.5 c 128,-1,22
 1409 -182 1409 -182 1362 -182 c 0,23,24
 1303 -182 1303 -182 1269 -191.5 c 128,-1,25
 1235 -201 1235 -201 1235 -229 c 0,26,27
 1235 -311 1235 -311 1382 -344 c 0,28,29
 1486 -369 1486 -369 1663 -369 c 0,30,31
 2023 -369 2023 -369 2220 -209 c 0,32,33
 2394 -66 2394 -66 2394 160 c 0,34,35
 2394 234 2394 234 2357 286 c 128,-1,36
 2320 338 2320 338 2269 338 c 0,37,38
 2236 338 2236 338 2212 315 c 1,39,-1
 2212 141 l 2,40,41
 2212 -58 2212 -58 2093 -168 c 0,42,43
 1991 -262 1991 -262 1843 -262 c 0,44,45
 1753 -262 1753 -262 1753 -207 c 0,46,47
 1753 -178 1753 -178 1772 -150 c 0,48,49
 1805 -91 1805 -91 1824 -14 c 128,-1,50
 1843 63 1843 63 1843 150 c 2,51,-1
 1843 360 l 1,52,53
 1798 335 1798 335 1733.5 320 c 128,-1,54
 1669 305 1669 305 1595 305 c 1,55,56
 1501 115 1501 115 1268 -14 c 0,57,58
 1014 -153 1014 -153 696 -154 c 0,59,60
 401 -154 401 -154 213 -29 c 0,61,62
 -18 125 -18 125 -18 307 c 0,63,64
 -18 387 -18 387 34 428 c 128,-1,65
 86 469 86 469 174 469 c 2,66,-1
 1264 469 l 1,67,68
 1280 522 1280 522 1288 613.5 c 128,-1,69
 1296 705 1296 705 1296 748 c 0,70,71
 1296 945 1296 945 1223.5 1035.5 c 128,-1,72
 1151 1126 1151 1126 1038 1126 c 2,73,-1
 995 1124 l 1,74,75
 1061 1093 1061 1093 1102 1031 c 128,-1,76
 1143 969 1143 969 1143 866 c 0,77,78
 1143 805 1143 805 1118 743 c 0,79,80
 1085 663 1085 663 1026 625 c 0,81,82
 952 568 952 568 809 567 c 0,83,84
 692 567 692 567 622.5 648 c 128,-1,85
 553 729 553 729 553 840 c 0,86,87
 553 1065 553 1065 704.5 1180.5 c 128,-1,88
 856 1296 856 1296 1094 1296 c 0,89,90
 1377 1296 1377 1296 1525 1136.5 c 128,-1,91
 1673 977 1673 977 1673 682 c 0,92,93
 1673 586 1673 586 1659 471 c 1,94,95
 1774 471 1774 471 1849 539 c 1,96,-1
 1849 928 l 2,97,98
 1849 1131 1849 1131 1968 1241 c 0,99,100
 2070 1337 2070 1337 2218 1337 c 0,101,102
 2308 1337 2308 1337 2308 1280 c 0,103,104
 2308 1255 2308 1255 2286 1225 c 0,105,106
 2214 1106 2214 1106 2214 922 c 2,107,-1
 2214 496 l 1,108,109
 2288 541 2288 541 2384 541 c 0,110,111
 2515 541 2515 541 2601 461 c 0,112,113
 2697 370 2697 370 2697 186 c 0,0,1
872 874 m 0,114,115
 872 921 872 921 854 969.5 c 128,-1,116
 836 1018 836 1018 797 1020 c 1,117,118
 758 1012 758 1012 734.5 957.5 c 128,-1,119
 711 903 711 903 711 846 c 0,120,121
 711 803 711 803 732.5 767 c 128,-1,122
 754 731 754 731 793 731 c 256,123,124
 832 731 832 731 853 768.5 c 128,-1,125
 874 806 874 806 872 874 c 0,114,115
1188 303 m 1,126,-1
 287 303 l 2,127,128
 234 303 234 303 233 244 c 0,129,130
 233 158 233 158 330 92 c 0,131,132
 449 10 449 10 668 10 c 0,133,134
 844 10 844 10 985 104 c 0,135,136
 1102 180 1102 180 1188 303 c 1,126,-1
EndSplineSet
EndChar

StartChar: u0B87
Encoding: 139 2951 139
Width: 2166
Flags: HW
AnchorPoint: "V" 926 1818.52 basechar 0
AnchorPoint: "N" 926 -449 basechar 0
LayerCount: 2
Fore
SplineSet
1866 1069 m 0,0,1
 1866 981 1866 981 1851.5 869.5 c 128,-1,2
 1837 758 1837 758 1808 657 c 1,3,4
 1808 620 1808 620 1829.5 583.5 c 128,-1,5
 1851 547 1851 547 1851 518 c 0,6,7
 1851 485 1851 485 1822.5 454.5 c 128,-1,8
 1794 424 1794 424 1751 424 c 0,9,10
 1698 424 1698 424 1668 474 c 128,-1,11
 1638 524 1638 524 1647 582 c 0,12,13
 1670 684 1670 684 1669 788 c 0,14,15
 1669 1069 1669 1069 1495 1257 c 0,16,17
 1309 1458 1309 1458 1006 1458 c 0,18,19
 625 1458 625 1458 412 1206 c 0,20,21
 222 983 222 983 221 649 c 0,22,23
 221 555 221 555 241.5 468 c 128,-1,24
 262 381 262 381 305 293 c 1,25,26
 444 361 444 361 639 390.5 c 128,-1,27
 834 420 834 420 1057 420 c 1,28,29
 1096 567 1096 567 1096 721 c 0,30,31
 1096 868 1096 868 1042 965 c 0,32,33
 981 1076 981 1076 864 1075 c 2,34,-1
 821 1075 l 1,35,36
 880 1042 880 1042 918 977.5 c 128,-1,37
 956 913 956 913 956 813 c 0,38,39
 956 747 956 747 925.5 677.5 c 128,-1,40
 895 608 895 608 829 565 c 0,41,42
 757 512 757 512 612 512 c 0,43,44
 495 512 495 512 430 592 c 128,-1,45
 365 672 365 672 365 786 c 0,46,47
 365 1003 365 1003 516 1133 c 0,48,49
 653 1250 653 1250 862 1249 c 0,50,51
 1157 1249 1157 1249 1303 1124 c 0,52,53
 1469 981 1469 981 1468 664 c 0,54,55
 1468 504 1468 504 1411 338 c 1,56,57
 1536 285 1536 285 1604.5 193.5 c 128,-1,58
 1673 102 1673 102 1673 -31 c 0,59,60
 1673 -221 1673 -221 1536 -330 c 0,61,62
 1384 -449 1384 -449 1094 -449 c 0,63,64
 922 -449 922 -449 748 -369 c 1,65,66
 553 -449 553 -449 336 -449 c 0,67,68
 162 -449 162 -449 71 -366 c 128,-1,69
 -20 -283 -20 -283 -20 -145 c 0,70,71
 -20 -45 -20 -45 25 43 c 128,-1,72
 70 131 70 131 152 199 c 1,73,74
 84 336 84 336 53.5 486.5 c 128,-1,75
 23 637 23 637 23 739 c 0,76,77
 23 954 23 954 80 1145 c 0,78,79
 166 1432 166 1432 367 1604 c 0,80,81
 625 1823 625 1823 1042 1823 c 0,82,83
 1386 1823 1386 1823 1620 1626 c 0,84,85
 1872 1415 1872 1415 1866 1069 c 0,0,1
696 823 m 0,86,87
 696 874 696 874 682 922.5 c 128,-1,88
 668 971 668 971 631 971 c 0,89,90
 592 963 592 963 562 907.5 c 128,-1,91
 532 852 532 852 532 799 c 0,92,93
 532 752 532 752 548.5 719 c 128,-1,94
 565 686 565 686 604 686 c 256,95,96
 643 686 643 686 668.5 726 c 128,-1,97
 694 766 694 766 696 823 c 0,86,87
1415 -63 m 0,98,99
 1415 39 1415 39 1315 133 c 1,100,101
 1243 14 1243 14 1156 -81 c 128,-1,102
 1069 -176 1069 -176 952 -256 c 1,103,104
 995 -264 995 -264 1022 -266 c 128,-1,105
 1049 -268 1049 -268 1102 -268 c 0,106,107
 1254 -268 1254 -268 1333.5 -208.5 c 128,-1,108
 1413 -149 1413 -149 1415 -63 c 0,98,99
1008 268 m 1,109,110
 961 276 961 276 907 276 c 0,111,112
 778 276 778 276 648 241.5 c 128,-1,113
 518 207 518 207 403 135 c 1,114,115
 462 55 462 55 559 -31 c 0,116,117
 639 -103 639 -103 721 -156 c 1,118,119
 809 -80 809 -80 883 31.5 c 128,-1,120
 957 143 957 143 1008 268 c 1,109,110
553 -258 m 1,121,122
 473 -201 473 -201 395 -124 c 128,-1,123
 317 -47 317 -47 272 14 c 1,124,125
 219 -56 219 -56 219 -141 c 0,126,127
 219 -202 219 -202 255 -246.5 c 128,-1,128
 291 -291 291 -291 358 -291 c 0,129,130
 415 -291 415 -291 458.5 -282.5 c 128,-1,131
 502 -274 502 -274 553 -258 c 1,121,122
EndSplineSet
EndChar

StartChar: u0B88
Encoding: 140 2952 140
Width: 1796
Flags: HW
AnchorPoint: "V" 730 1305 basechar 0
AnchorPoint: "N" 730 2 basechar 0
LayerCount: 2
Fore
SplineSet
1481 621 m 0,0,1
 1481 560 1481 560 1429.5 511.5 c 128,-1,2
 1378 463 1378 463 1313 463 c 0,3,4
 1245 463 1245 463 1195 510 c 128,-1,5
 1145 557 1145 557 1145 623 c 0,6,7
 1145 684 1145 684 1196 732 c 128,-1,8
 1247 780 1247 780 1313 780 c 256,9,10
 1379 780 1379 780 1430 732 c 128,-1,11
 1481 684 1481 684 1481 621 c 0,0,1
1190 1124 m 0,12,13
 1114 1093 1114 1093 1080.5 1009.5 c 128,-1,14
 1047 926 1047 926 1036 797 c 0,15,16
 1032 666 1032 666 1028 542 c 128,-1,17
 1024 418 1024 418 1024 395 c 0,18,19
 1024 196 1024 196 905 92 c 0,20,21
 803 2 803 2 655 2 c 0,22,23
 565 2 565 2 565 55 c 0,24,25
 565 84 565 84 584 113 c 0,26,27
 658 238 658 238 657 406 c 0,28,29
 657 490 657 490 661.5 585 c 128,-1,30
 666 680 666 680 670 809 c 0,31,32
 670 883 670 883 691.5 958.5 c 128,-1,33
 713 1034 713 1034 750 1102 c 1,34,35
 650 1120 650 1120 541 1120 c 0,36,37
 396 1120 396 1120 326 1048.5 c 128,-1,38
 256 977 256 977 256 809 c 0,39,40
 256 508 256 508 236.5 346 c 128,-1,41
 217 184 217 184 143 55 c 0,42,43
 104 -13 104 -13 45 -12 c 0,44,45
 -21 -12 -21 -12 -20 53 c 0,46,47
 -20 90 -20 90 2 123 c 0,48,49
 55 217 55 217 70.5 351 c 128,-1,50
 86 485 86 485 86 688 c 2,51,-1
 86 860 l 2,52,53
 86 1032 86 1032 166 1135 c 0,54,55
 281 1280 281 1280 549 1280 c 0,56,57
 660 1280 660 1280 771.5 1261.5 c 128,-1,58
 883 1243 883 1243 1006 1225 c 1,59,60
 1074 1225 1074 1225 1149 1264 c 0,61,62
 1192 1289 1192 1289 1223 1288 c 0,63,64
 1284 1288 1284 1288 1284 1227 c 0,65,66
 1284 1196 1284 1196 1262.5 1169 c 128,-1,67
 1241 1142 1241 1142 1190 1124 c 0,12,13
625 618 m 0,68,69
 625 557 625 557 573.5 509 c 128,-1,70
 522 461 522 461 457 461 c 0,71,72
 389 461 389 461 339 508 c 128,-1,73
 289 555 289 555 289 621 c 0,74,75
 289 682 289 682 340 730 c 128,-1,76
 391 778 391 778 457 778 c 256,77,78
 523 778 523 778 574 729.5 c 128,-1,79
 625 681 625 681 625 618 c 0,68,69
EndSplineSet
EndChar

StartChar: u0B89
Encoding: 141 2953 141
Width: 2766
Flags: HW
AnchorPoint: "V" 1255 1305 basechar 0
AnchorPoint: "N" 1255 19.3641 basechar 0
LayerCount: 2
Fore
SplineSet
2433 68 m 0,0,1
 2359 35 2359 35 2275 18.5 c 128,-1,2
 2191 2 2191 2 2066 2 c 0,3,4
 1966 2 1966 2 1621 14.5 c 128,-1,5
 1276 27 1276 27 1145 27 c 0,6,7
 940 27 940 27 694.5 15.5 c 128,-1,8
 449 4 449 4 172 -6 c 0,9,10
 96 -6 96 -6 51 25 c 0,11,12
 -17 70 -17 70 -16 178 c 0,13,14
 -16 323 -16 323 356 352 c 0,15,16
 489 356 489 356 623 365 c 1,17,18
 813 394 813 394 895 522 c 0,19,20
 961 624 961 624 961 791 c 0,21,22
 961 945 961 945 881 1032.5 c 128,-1,23
 801 1120 801 1120 668 1120 c 0,24,25
 586 1120 586 1120 516 1105 c 128,-1,26
 446 1090 446 1090 385 1057 c 1,27,-1
 416 1059 l 2,28,29
 518 1059 518 1059 595 987 c 128,-1,30
 672 915 672 915 672 797 c 0,31,32
 672 617 672 617 610 528 c 0,33,34
 534 419 534 419 352 420 c 0,35,36
 219 420 219 420 145.5 518 c 128,-1,37
 72 616 72 616 72 803 c 0,38,39
 72 1000 72 1000 217 1133 c 0,40,41
 383 1285 383 1285 666 1284 c 0,42,43
 1020 1284 1020 1284 1196 1118 c 0,44,45
 1339 985 1339 985 1339 774 c 0,46,47
 1339 614 1339 614 1288 501.5 c 128,-1,48
 1237 389 1237 389 1114 317 c 0,49,50
 915 194 915 194 467 195 c 0,51,52
 424 195 424 195 381 195 c 0,53,54
 350 191 350 191 350 168 c 1,55,56
 436 166 436 166 598 174 c 0,57,58
 1047 192 1047 192 1149 193 c 0,59,60
 1301 193 1301 193 1542.5 183.5 c 128,-1,61
 1784 174 1784 174 2044 166 c 0,62,63
 2144 166 2144 166 2206.5 180.5 c 128,-1,64
 2269 195 2269 195 2327.5 223.5 c 128,-1,65
 2386 252 2386 252 2431 252 c 0,66,67
 2527 252 2527 252 2527 172 c 0,68,69
 2527 147 2527 147 2505.5 119 c 128,-1,70
 2484 91 2484 91 2433 68 c 0,0,1
373 760 m 0,71,72
 373 805 373 805 357.5 830.5 c 128,-1,73
 342 856 342 856 303 856 c 0,74,75
 266 856 266 856 258 823.5 c 128,-1,76
 250 791 250 791 250 748 c 0,77,78
 250 674 250 674 262 638 c 128,-1,79
 274 602 274 602 307 602 c 0,80,81
 352 602 352 602 361.5 640 c 128,-1,82
 371 678 371 678 373 760 c 0,71,72
EndSplineSet
EndChar

StartChar: u0B8A
Encoding: 142 2954 142
Width: 3641
Flags: HW
AnchorPoint: "V" 1667 1305 basechar 0
AnchorPoint: "N" 1667 28.3087 basechar 0
LayerCount: 2
Fore
SplineSet
3308 1149 m 1,0,1
 3247 1124 3247 1124 3223 1059.5 c 128,-1,2
 3199 995 3199 995 3187.5 890.5 c 128,-1,3
 3176 786 3176 786 3176 567 c 0,4,5
 3176 411 3176 411 3066 322 c 0,6,7
 2972 246 2972 246 2847 246 c 0,8,9
 2804 246 2804 246 2775 264.5 c 128,-1,10
 2746 283 2746 283 2746 313 c 0,11,12
 2746 327 2746 327 2755 344 c 0,13,14
 2814 440 2814 440 2814 573 c 2,15,-1
 2824 903 l 2,16,17
 2824 1018 2824 1018 2871 1114 c 1,18,19
 2791 1128 2791 1128 2701 1128 c 1,20,21
 2644 1103 2644 1103 2627.5 1051 c 128,-1,22
 2611 999 2611 999 2600 895 c 128,-1,23
 2589 791 2589 791 2589 571 c 0,24,25
 2589 411 2589 411 2478 324 c 0,26,27
 2382 248 2382 248 2259 248 c 0,28,29
 2157 248 2157 248 2157 315 c 0,30,31
 2157 331 2157 331 2167 346 c 0,32,33
 2222 436 2222 436 2222 575 c 2,34,-1
 2232 905 l 2,35,36
 2232 966 2232 966 2255 1026 c 1,37,38
 2218 1063 2218 1063 2146.5 1095.5 c 128,-1,39
 2075 1128 2075 1128 2001 1128 c 0,40,41
 1890 1128 1890 1128 1800 1070 c 128,-1,42
 1710 1012 1710 1012 1663 918 c 1,43,44
 1714 936 1714 936 1776 936 c 0,45,46
 1887 936 1887 936 1954 874 c 0,47,48
 2036 798 2036 798 2036 647 c 0,49,50
 2036 463 2036 463 1974 373 c 0,51,52
 1894 256 1894 256 1712 256 c 0,53,54
 1569 256 1569 256 1500.5 358.5 c 128,-1,55
 1432 461 1432 461 1432 655 c 0,56,57
 1432 942 1432 942 1589.5 1119 c 128,-1,58
 1747 1296 1747 1296 2015 1296 c 0,59,60
 2119 1296 2119 1296 2202.5 1265.5 c 128,-1,61
 2286 1235 2286 1235 2339 1190 c 1,62,63
 2396 1243 2396 1243 2480 1269.5 c 128,-1,64
 2564 1296 2564 1296 2689 1296 c 0,65,66
 2775 1296 2775 1296 2875.5 1282 c 128,-1,67
 2976 1268 2976 1268 3092 1253 c 0,68,69
 3149 1253 3149 1253 3207 1282 c 0,70,71
 3238 1298 3238 1298 3267 1298 c 0,72,73
 3306 1298 3306 1298 3332.5 1274.5 c 128,-1,74
 3359 1251 3359 1251 3359 1221 c 0,75,76
 3359 1184 3359 1184 3308 1149 c 1,0,1
3197 78 m 0,77,78
 3123 45 3123 45 3039 28.5 c 128,-1,79
 2955 12 2955 12 2830 12 c 0,80,81
 2719 12 2719 12 2585 14 c 128,-1,82
 2451 16 2451 16 2021 25.5 c 128,-1,83
 1591 35 1591 35 1538 35 c 0,84,85
 1313 35 1313 35 945.5 23.5 c 128,-1,86
 578 12 578 12 164 2 c 0,87,88
 88 2 88 2 43 33 c 0,89,90
 -25 78 -25 78 -25 186 c 0,91,92
 -25 331 -25 331 346 360 c 0,93,94
 479 364 479 364 612 373 c 1,95,96
 802 402 802 402 885 532 c 0,97,98
 951 634 951 634 950 797 c 0,99,100
 950 951 950 951 870.5 1038.5 c 128,-1,101
 791 1126 791 1126 657 1126 c 0,102,103
 575 1126 575 1126 505.5 1111 c 128,-1,104
 436 1096 436 1096 375 1063 c 1,105,-1
 406 1065 l 2,106,107
 508 1065 508 1065 585 993.5 c 128,-1,108
 662 922 662 922 662 803 c 0,109,110
 662 623 662 623 600 535 c 0,111,112
 524 426 524 426 342 426 c 0,113,114
 209 426 209 426 135 524.5 c 128,-1,115
 61 623 61 623 61 809 c 0,116,117
 61 1006 61 1006 207 1139 c 0,118,119
 373 1291 373 1291 655 1290 c 0,120,121
 1009 1290 1009 1290 1186 1124 c 0,122,123
 1329 991 1329 991 1329 780 c 0,124,125
 1329 620 1329 620 1278 507.5 c 128,-1,126
 1227 395 1227 395 1104 324 c 0,127,128
 903 201 903 201 455 201 c 0,129,130
 412 201 412 201 369 201 c 0,131,132
 338 197 338 197 338 174 c 1,133,-1
 369 174 l 2,134,135
 539 174 539 174 845 181 c 128,-1,136
 1151 188 1151 188 1538 199 c 0,137,138
 1696 199 1696 199 2058.5 189.5 c 128,-1,139
 2421 180 2421 180 2808 172 c 0,140,141
 2908 172 2908 172 2970.5 186.5 c 128,-1,142
 3033 201 3033 201 3091.5 229.5 c 128,-1,143
 3150 258 3150 258 3195 258 c 0,144,145
 3291 258 3291 258 3291 178 c 0,146,147
 3291 153 3291 153 3269.5 124.5 c 128,-1,148
 3248 96 3248 96 3197 78 c 0,77,78
1731 600 m 0,149,150
 1731 653 1731 653 1719.5 676.5 c 128,-1,151
 1708 700 1708 700 1669 700 c 0,152,153
 1624 700 1624 700 1616 669.5 c 128,-1,154
 1608 639 1608 639 1608 594 c 0,155,156
 1608 440 1608 440 1665 440 c 0,157,158
 1710 440 1710 440 1721.5 478 c 128,-1,159
 1733 516 1733 516 1731 600 c 0,149,150
367 764 m 0,160,161
 367 809 367 809 351.5 834.5 c 128,-1,162
 336 860 336 860 297 860 c 0,163,164
 260 860 260 860 252 827.5 c 128,-1,165
 244 795 244 795 244 752 c 0,166,167
 244 678 244 678 256 642 c 128,-1,168
 268 606 268 606 301 606 c 0,169,170
 344 606 344 606 355.5 646 c 128,-1,171
 367 686 367 686 367 764 c 0,160,161
EndSplineSet
EndChar

StartChar: u0B8E
Encoding: 143 2958 143
Width: 1808
Flags: HW
AnchorPoint: "V" 773.5 1305 basechar 0
AnchorPoint: "N" 773.5 -2 basechar 0
LayerCount: 2
Fore
SplineSet
1477 1126 m 0,0,1
 1401 1095 1401 1095 1367 1011.5 c 128,-1,2
 1333 928 1333 928 1323 797 c 0,3,4
 1319 666 1319 666 1315 542 c 128,-1,5
 1311 418 1311 418 1311 395 c 0,6,7
 1311 196 1311 196 1192 88 c 0,8,9
 1090 -2 1090 -2 942 -2 c 0,10,11
 852 -2 852 -2 852 51 c 0,12,13
 852 80 852 80 870 109 c 0,14,15
 944 234 944 234 944 401 c 0,16,17
 944 477 944 477 948 593 c 128,-1,18
 952 709 952 709 956 809 c 0,19,20
 956 883 956 883 977.5 958.5 c 128,-1,21
 999 1034 999 1034 1036 1106 c 1,22,23
 936 1124 936 1124 793 1124 c 0,24,25
 592 1124 592 1124 440.5 1040 c 128,-1,26
 289 956 289 956 217 817 c 1,27,28
 293 846 293 846 354 846 c 0,29,30
 514 846 514 846 608 766 c 0,31,32
 719 672 719 672 719 489 c 0,33,34
 719 264 719 264 643 152 c 0,35,36
 547 9 547 9 324 8 c 0,37,38
 148 8 148 8 64 132 c 128,-1,39
 -20 256 -20 256 -20 498 c 0,40,41
 -20 854 -20 854 184 1065 c 0,42,43
 401 1288 401 1288 797 1288 c 0,44,45
 942 1288 942 1288 1056.5 1269.5 c 128,-1,46
 1171 1251 1171 1251 1288 1233 c 1,47,48
 1356 1233 1356 1233 1432 1272 c 0,49,50
 1475 1297 1475 1297 1505 1296 c 0,51,52
 1566 1296 1566 1296 1567 1235 c 0,53,54
 1567 1204 1567 1204 1545.5 1177.5 c 128,-1,55
 1524 1151 1524 1151 1477 1126 c 0,0,1
373 432 m 0,56,57
 373 522 373 522 356 555 c 0,58,59
 331 602 331 602 264 602 c 0,60,61
 188 602 188 602 164 528 c 0,62,63
 150 489 150 489 150 416 c 0,64,65
 150 297 150 297 175.5 233.5 c 128,-1,66
 201 170 201 170 258 170 c 0,67,68
 332 170 332 170 354.5 239.5 c 128,-1,69
 377 309 377 309 373 432 c 0,56,57
EndSplineSet
EndChar

StartChar: u0B8F
Encoding: 144 2959 144
Width: 1808
Flags: HW
AnchorPoint: "V" 785.5 1305 basechar 0
AnchorPoint: "N" 785.5 -321.343 basechar 0
LayerCount: 2
Fore
SplineSet
1477 1122 m 0,0,1
 1401 1091 1401 1091 1367 1004.5 c 128,-1,2
 1333 918 1333 918 1323 788 c 0,3,4
 1319 657 1319 657 1315 530 c 128,-1,5
 1311 403 1311 403 1311 381 c 0,6,7
 1311 213 1311 213 1229 115 c 0,8,9
 1196 72 1196 72 1108 31 c 128,-1,10
 1020 -10 1020 -10 932 -53 c 0,11,12
 879 -82 879 -82 796 -136 c 128,-1,13
 713 -190 713 -190 655 -229 c 1,14,15
 630 -260 630 -260 608 -291 c 0,16,17
 577 -324 577 -324 539 -324 c 0,18,19
 529 -324 529 -324 506 -319 c 0,20,21
 447 -296 447 -296 446 -238 c 0,22,23
 446 -205 446 -205 475 -176 c 1,24,25
 569 -119 569 -119 669.5 -39 c 128,-1,26
 770 41 770 41 807 72 c 0,27,28
 879 129 879 129 915.5 216 c 128,-1,29
 952 303 952 303 952 391 c 256,30,31
 952 479 952 479 956.5 576.5 c 128,-1,32
 961 674 961 674 965 803 c 0,33,34
 965 879 965 879 986.5 954.5 c 128,-1,35
 1008 1030 1008 1030 1044 1100 c 1,36,37
 944 1118 944 1118 801 1118 c 0,38,39
 604 1118 604 1118 451.5 1032 c 128,-1,40
 299 946 299 946 227 807 c 1,41,42
 299 838 299 838 367 838 c 0,43,44
 525 838 525 838 621 756 c 0,45,46
 732 660 732 660 731 477 c 0,47,48
 731 246 731 246 655 133 c 0,49,50
 559 -10 559 -10 336 -10 c 0,51,52
 160 -10 160 -10 76 116 c 128,-1,53
 -8 242 -8 242 -8 487 c 0,54,55
 -8 847 -8 847 197 1063 c 0,56,57
 414 1288 414 1288 809 1288 c 0,58,59
 954 1288 954 1288 1069 1269.5 c 128,-1,60
 1184 1251 1184 1251 1300 1233 c 1,61,62
 1368 1233 1368 1233 1444 1272 c 0,63,64
 1477 1295 1477 1295 1513 1294 c 0,65,66
 1579 1294 1579 1294 1579 1233 c 0,67,68
 1579 1202 1579 1202 1557.5 1175.5 c 128,-1,69
 1536 1149 1536 1149 1477 1122 c 0,0,1
385 424 m 0,70,71
 385 514 385 514 369 547 c 0,72,73
 344 598 344 598 276 598 c 0,74,75
 217 598 217 598 188.5 553 c 128,-1,76
 160 508 160 508 160 408 c 0,77,78
 160 156 160 156 268 156 c 0,79,80
 342 156 342 156 364.5 225.5 c 128,-1,81
 387 295 387 295 385 424 c 0,70,71
EndSplineSet
EndChar

StartChar: u0B90
Encoding: 145 2960 145
Width: 2076
Flags: HW
AnchorPoint: "V" 874.5 1305 basechar 0
AnchorPoint: "N" 874.5 -400.297 basechar 0
LayerCount: 2
Fore
SplineSet
1763 -14 m 0,0,1
 1763 -217 1763 -217 1659 -315 c 0,2,3
 1542 -426 1542 -426 1294 -426 c 0,4,5
 1140 -426 1140 -426 1040 -370.5 c 128,-1,6
 940 -315 940 -315 889 -219 c 1,7,8
 836 -315 836 -315 748 -362 c 0,9,10
 633 -423 633 -423 453 -424 c 0,11,12
 222 -424 222 -424 102 -305 c 128,-1,13
 -18 -186 -18 -186 -18 -10 c 0,14,15
 -18 170 -18 170 147 270 c 0,16,17
 270 344 270 344 515 388 c 128,-1,18
 760 432 760 432 983 473 c 1,19,20
 1165 520 1165 520 1262 614 c 0,21,22
 1377 725 1377 725 1376 897 c 0,23,24
 1376 1016 1376 1016 1353.5 1067 c 128,-1,25
 1331 1118 1331 1118 1270 1118 c 0,26,27
 1198 1118 1198 1118 1155 1067 c 0,28,29
 1124 1030 1124 1030 1110 971 c 1,30,31
 1126 920 1126 920 1126 881 c 2,32,-1
 1126 784 l 2,33,34
 1126 684 1126 684 1054.5 607 c 128,-1,35
 983 530 983 530 860 530 c 0,36,37
 794 530 794 530 719 555 c 1,38,39
 764 616 764 616 773 661.5 c 128,-1,40
 782 707 782 707 782 793 c 2,41,-1
 782 903 l 2,42,43
 782 1012 782 1012 732 1064 c 128,-1,44
 682 1116 682 1116 596 1116 c 0,45,46
 500 1116 500 1116 424 1092 c 1,47,48
 647 1061 647 1061 647 813 c 0,49,50
 647 666 647 666 537 590 c 0,51,52
 447 529 447 529 309 528 c 0,53,54
 166 528 166 528 97.5 593.5 c 128,-1,55
 29 659 29 659 29 819 c 0,56,57
 29 1036 29 1036 188.5 1162 c 128,-1,58
 348 1288 348 1288 604 1288 c 0,59,60
 737 1288 737 1288 835.5 1248 c 128,-1,61
 934 1208 934 1208 1001 1141 c 1,62,63
 1044 1202 1044 1202 1123 1245 c 128,-1,64
 1202 1288 1202 1288 1311 1288 c 0,65,66
 1749 1288 1749 1288 1749 887 c 0,67,68
 1749 678 1749 678 1524 532 c 0,69,70
 1356 423 1356 423 1082.5 358 c 128,-1,71
 809 293 809 293 549 233 c 1,72,73
 348 161 348 161 348 -12 c 0,74,75
 348 -112 348 -112 382 -186 c 128,-1,76
 416 -260 416 -260 481 -260 c 0,77,78
 575 -260 575 -260 648 -209 c 128,-1,79
 721 -158 721 -158 743 -61 c 1,80,-1
 743 12 l 2,81,82
 743 125 743 125 812 198.5 c 128,-1,83
 881 272 881 272 1012 272 c 0,84,85
 1092 272 1092 272 1180 246 c 1,86,87
 1129 178 1129 178 1110.5 116.5 c 128,-1,88
 1092 55 1092 55 1092 -25 c 0,89,90
 1092 -123 1092 -123 1128 -182 c 0,91,92
 1175 -258 1175 -258 1276 -258 c 0,93,94
 1348 -258 1348 -258 1384.5 -202.5 c 128,-1,95
 1421 -147 1421 -147 1421 18 c 0,96,97
 1421 98 1421 98 1413 149.5 c 128,-1,98
 1405 201 1405 201 1372 260 c 1,99,100
 1401 262 1401 262 1426.5 266 c 128,-1,101
 1452 270 1452 270 1481 270 c 0,102,103
 1624 270 1624 270 1695.5 193.5 c 128,-1,104
 1767 117 1767 117 1763 -14 c 0,0,1
311 852 m 0,105,106
 311 891 311 891 297 917.5 c 128,-1,107
 283 944 283 944 252 944 c 0,108,109
 223 944 223 944 208 911.5 c 128,-1,110
 193 879 193 879 193 831 c 0,111,112
 193 765 193 765 201 729.5 c 128,-1,113
 209 694 209 694 246 694 c 0,114,115
 291 694 291 694 300 732 c 128,-1,116
 309 770 309 770 311 852 c 0,105,106
EndSplineSet
EndChar

StartChar: u0B92
Encoding: 146 2962 146
Width: 1990
Flags: HW
AnchorPoint: "V" 828 1305 basechar 0
AnchorPoint: "N" 828 -413.136 basechar 0
LayerCount: 2
Fore
SplineSet
1677 647 m 0,0,1
 1677 428 1677 428 1550 301 c 128,-1,2
 1423 174 1423 174 1169 174 c 0,3,4
 1040 174 1040 174 967.5 238.5 c 128,-1,5
 895 303 895 303 864 412 c 1,6,7
 878 281 878 281 1010 205 c 0,8,9
 1129 137 1129 137 1276 137 c 0,10,11
 1307 137 1307 137 1326.5 114.5 c 128,-1,12
 1346 92 1346 92 1346 61 c 0,13,14
 1346 34 1346 34 1329.5 15 c 128,-1,15
 1313 -4 1313 -4 1280 -4 c 2,16,-1
 1141 -4 l 2,17,18
 1065 -4 1065 -4 962.5 -209 c 128,-1,19
 860 -414 860 -414 565 -414 c 0,20,21
 411 -414 411 -414 310 -315.5 c 128,-1,22
 209 -217 209 -217 180 -51 c 1,23,-1
 295 -18 l 1,24,25
 324 -135 324 -135 381 -191.5 c 128,-1,26
 438 -248 438 -248 543 -248 c 0,27,28
 633 -248 633 -248 676 -129 c 0,29,30
 699 -61 699 -61 721 -7 c 128,-1,31
 743 47 743 47 774 70.5 c 128,-1,32
 805 94 805 94 872 109 c 1,33,34
 804 156 804 156 766 221 c 0,35,36
 715 303 715 303 715 399 c 0,37,38
 715 553 715 553 774 678 c 0,39,40
 813 760 813 760 901 864 c 0,41,42
 946 917 946 917 1004 918 c 0,43,44
 1035 918 1035 918 1057 898.5 c 128,-1,45
 1079 879 1079 879 1079 856 c 0,46,47
 1079 846 1079 846 1071 831 c 0,48,49
 1018 757 1018 757 1014 748 c 0,50,51
 991 695 991 695 991 561 c 0,52,53
 991 459 991 459 1031 400.5 c 128,-1,54
 1071 342 1071 342 1161 342 c 0,55,56
 1241 342 1241 342 1278 444 c 0,57,58
 1307 524 1307 524 1307 676 c 0,59,60
 1307 864 1307 864 1198 981 c 0,61,62
 1067 1124 1067 1124 795 1124 c 0,63,64
 607 1124 607 1124 459 1051 c 0,65,66
 328 985 328 985 266 881 c 1,67,68
 297 889 297 889 330 889 c 0,69,70
 453 889 453 889 543 807 c 0,71,72
 647 713 647 713 647 559 c 0,73,74
 647 393 647 393 551 291 c 0,75,76
 440 174 440 174 246 174 c 0,77,78
 133 174 133 174 63 260 c 0,79,80
 -23 360 -23 360 -23 547 c 0,81,82
 -23 909 -23 909 229 1112 c 0,83,84
 458 1294 458 1294 813 1294 c 0,85,86
 1182 1294 1182 1294 1413 1147 c 0,87,88
 1679 977 1679 977 1677 647 c 0,0,1
299 537 m 0,89,90
 299 682 299 682 219 682 c 0,91,92
 180 682 180 682 165 635 c 128,-1,93
 150 588 150 588 150 508 c 256,94,95
 150 428 150 428 162 385 c 128,-1,96
 174 342 174 342 227 342 c 0,97,98
 286 342 286 342 291.5 401.5 c 128,-1,99
 297 461 297 461 299 537 c 0,89,90
EndSplineSet
EndChar

StartChar: u0B93
Encoding: 147 2963 147
Width: 1990
Flags: HW
AnchorPoint: "V" 828 1305 basechar 0
AnchorPoint: "N" 828 -413.136 basechar 0
LayerCount: 2
Fore
SplineSet
1677 647 m 0,0,1
 1677 428 1677 428 1550 301 c 128,-1,2
 1423 174 1423 174 1169 174 c 0,3,4
 1040 174 1040 174 967.5 238.5 c 128,-1,5
 895 303 895 303 864 412 c 1,6,7
 878 281 878 281 1010 205 c 0,8,9
 1129 137 1129 137 1276 137 c 0,10,11
 1307 137 1307 137 1326.5 114.5 c 128,-1,12
 1346 92 1346 92 1346 61 c 0,13,14
 1346 34 1346 34 1329.5 15 c 128,-1,15
 1313 -4 1313 -4 1280 -4 c 2,16,-1
 1141 -4 l 2,17,18
 1065 -4 1065 -4 962.5 -209 c 128,-1,19
 860 -414 860 -414 565 -414 c 0,20,21
 370 -414 370 -414 246.5 -326 c 128,-1,22
 123 -238 123 -238 123 -66 c 0,23,24
 123 38 123 38 186.5 105 c 128,-1,25
 250 172 250 172 387 172 c 0,26,27
 518 172 518 172 580 104 c 0,28,29
 633 45 633 45 633 -55 c 0,30,31
 633 -123 633 -123 596 -211 c 0,32,33
 588 -240 588 -240 584 -266 c 1,34,35
 543 -252 543 -252 539 -250 c 1,36,37
 541 -248 541 -248 545 -248 c 0,38,39
 633 -248 633 -248 676 -129 c 0,40,41
 699 -61 699 -61 721 -7 c 128,-1,42
 743 47 743 47 774 70.5 c 128,-1,43
 805 94 805 94 872 109 c 1,44,45
 804 156 804 156 766 221 c 0,46,47
 715 303 715 303 715 399 c 0,48,49
 715 553 715 553 774 678 c 0,50,51
 813 760 813 760 901 864 c 0,52,53
 946 917 946 917 1004 918 c 0,54,55
 1035 918 1035 918 1057 898.5 c 128,-1,56
 1079 879 1079 879 1079 856 c 0,57,58
 1079 846 1079 846 1071 831 c 0,59,60
 1018 757 1018 757 1014 748 c 0,61,62
 991 695 991 695 991 561 c 0,63,64
 991 459 991 459 1031 400.5 c 128,-1,65
 1071 342 1071 342 1161 342 c 0,66,67
 1241 342 1241 342 1278 444 c 0,68,69
 1307 524 1307 524 1307 676 c 0,70,71
 1307 864 1307 864 1198 981 c 0,72,73
 1067 1124 1067 1124 795 1124 c 0,74,75
 607 1124 607 1124 459 1051 c 0,76,77
 328 985 328 985 266 881 c 1,78,79
 297 889 297 889 330 889 c 0,80,81
 453 889 453 889 543 807 c 0,82,83
 647 713 647 713 647 559 c 0,84,85
 647 393 647 393 551 291 c 0,86,87
 440 174 440 174 246 174 c 0,88,89
 133 174 133 174 63 260 c 0,90,91
 -23 360 -23 360 -23 547 c 0,92,93
 -23 909 -23 909 229 1112 c 0,94,95
 458 1294 458 1294 813 1294 c 0,96,97
 1182 1294 1182 1294 1413 1147 c 0,98,99
 1679 977 1679 977 1677 647 c 0,0,1
299 537 m 0,100,101
 299 682 299 682 219 682 c 0,102,103
 180 682 180 682 165 635 c 128,-1,104
 150 588 150 588 150 508 c 256,105,106
 150 428 150 428 162 385 c 128,-1,107
 174 342 174 342 227 342 c 0,108,109
 286 342 286 342 291.5 401.5 c 128,-1,110
 297 461 297 461 299 537 c 0,100,101
422 -74 m 0,111,112
 422 22 422 22 356 23 c 0,113,114
 309 23 309 23 292.5 -10 c 128,-1,115
 276 -43 276 -43 276 -94 c 0,116,117
 276 -117 276 -117 297.5 -143.5 c 128,-1,118
 319 -170 319 -170 358 -170 c 256,119,120
 397 -170 397 -170 414 -125 c 0,121,122
 422 -103 422 -103 422 -74 c 0,111,112
EndSplineSet
EndChar

StartChar: u0B95
Encoding: 149 2965 149
Width: 1914
Flags: HW
AnchorPoint: "V" 948 1305 basechar 0
AnchorPoint: "N" 948 -8 basechar 0
LayerCount: 2
Fore
SplineSet
1599 438 m 0,0,1
 1599 248 1599 248 1495 125 c 0,2,3
 1378 -8 1378 -8 1169 -8 c 0,4,5
 1124 -8 1124 -8 1101.5 11.5 c 128,-1,6
 1079 31 1079 31 1079 59 c 0,7,8
 1079 90 1079 90 1108 109 c 0,9,10
 1182 156 1182 156 1210 270 c 0,11,12
 1228 346 1228 346 1229 449 c 256,13,14
 1229 551 1229 551 1185 595 c 128,-1,15
 1141 639 1141 639 1026 649 c 1,16,-1
 1024 465 l 2,17,18
 1024 248 1024 248 901 122 c 128,-1,19
 778 -4 778 -4 535 -4 c 0,20,21
 277 -4 277 -4 126 87 c 128,-1,22
 -25 178 -25 178 -25 346 c 0,23,24
 -25 508 -25 508 47 612.5 c 128,-1,25
 119 717 119 717 281 768 c 1,26,-1
 281 854 l 2,27,28
 281 1044 281 1044 362 1153 c 0,29,30
 456 1276 456 1276 655 1276 c 0,31,32
 743 1276 743 1276 809 1262 c 0,33,34
 963 1229 963 1229 995 1229 c 0,35,36
 1054 1229 1054 1229 1076 1233 c 128,-1,37
 1098 1237 1098 1237 1141 1260.5 c 128,-1,38
 1184 1284 1184 1284 1214 1284 c 0,39,40
 1275 1284 1275 1284 1276 1223 c 0,41,42
 1276 1192 1276 1192 1254.5 1165.5 c 128,-1,43
 1233 1139 1233 1139 1186 1120 c 0,44,45
 1100 1081 1100 1081 1061 981 c 0,46,47
 1053 952 1053 952 1043.5 898 c 128,-1,48
 1034 844 1034 844 1034 819 c 1,49,50
 1300 819 1300 819 1447.5 725 c 128,-1,51
 1595 631 1595 631 1599 438 c 0,0,1
756 1106 m 1,52,53
 725 1116 725 1116 716 1117 c 128,-1,54
 707 1118 707 1118 649 1118 c 0,55,56
 530 1118 530 1118 492 1047 c 0,57,58
 474 1016 474 1016 462.5 949.5 c 128,-1,59
 451 883 451 883 451 809 c 1,60,-1
 670 823 l 1,61,62
 684 934 684 934 705.5 992.5 c 128,-1,63
 727 1051 727 1051 756 1106 c 1,52,53
655 651 m 1,64,65
 538 651 538 651 472 614.5 c 128,-1,66
 406 578 406 578 377 504 c 128,-1,67
 348 430 348 430 348 334 c 0,68,69
 348 246 348 246 385 206 c 128,-1,70
 422 166 422 166 494 166 c 0,71,72
 590 166 590 166 627 242 c 0,73,74
 652 295 652 295 651 399 c 2,75,-1
 651 475 l 1,76,-1
 655 651 l 1,64,65
EndSplineSet
EndChar

StartChar: u0B95_u0BBF
Encoding: 150 -1 150
Width: 1945
Flags: HW
AnchorPoint: "V" 948 1891.81 basechar 0
AnchorPoint: "N" 948 -8 basechar 0
LayerCount: 2
Fore
SplineSet
1630 1430 m 0,0,1
 1630 1330 1630 1330 1613.5 1245.5 c 128,-1,2
 1597 1161 1597 1161 1561 1022 c 1,3,4
 1561 989 1561 989 1589.5 952 c 128,-1,5
 1618 915 1618 915 1618 887 c 0,6,7
 1618 848 1618 848 1589.5 819.5 c 128,-1,8
 1561 791 1561 791 1518 791 c 0,9,10
 1465 791 1465 791 1428 842 c 128,-1,11
 1391 893 1391 893 1399 944 c 0,12,13
 1442 1143 1442 1143 1487 1346 c 1,14,15
 1487 1483 1487 1483 1421 1554 c 0,16,17
 1347 1634 1347 1634 1202 1634 c 0,18,19
 1063 1634 1063 1634 994.5 1568.5 c 128,-1,20
 926 1503 926 1503 926 1399 c 0,21,22
 926 1352 926 1352 935 1321 c 128,-1,23
 944 1290 944 1290 958 1272 c 1,24,-1
 1004 1268 l 2,25,26
 1063 1268 1063 1268 1084.5 1272 c 128,-1,27
 1106 1276 1106 1276 1144 1299.5 c 128,-1,28
 1182 1323 1182 1323 1219 1323 c 0,29,30
 1285 1323 1285 1323 1284 1257 c 0,31,32
 1284 1228 1284 1228 1262.5 1199.5 c 128,-1,33
 1241 1171 1241 1171 1194 1153 c 0,34,35
 1108 1114 1108 1114 1069 1014 c 0,36,37
 1061 983 1061 983 1059 967 c 0,38,39
 1043 895 1043 895 1042 848 c 1,40,41
 1310 848 1310 848 1456 753.5 c 128,-1,42
 1602 659 1602 659 1602 459 c 0,43,44
 1602 264 1602 264 1497 141 c 0,45,46
 1380 4 1380 4 1171 4 c 0,47,48
 1126 4 1126 4 1103.5 23.5 c 128,-1,49
 1081 43 1081 43 1081 72 c 0,50,51
 1081 105 1081 105 1110 123 c 0,52,53
 1184 170 1184 170 1212 283 c 0,54,55
 1230 359 1230 359 1231 463 c 0,56,57
 1231 572 1231 572 1187 615.5 c 128,-1,58
 1143 659 1143 659 1028 670 c 1,59,-1
 1026 481 l 2,60,61
 1026 258 1026 258 903 131 c 128,-1,62
 780 4 780 4 537 4 c 0,63,64
 277 4 277 4 128.5 97 c 128,-1,65
 -20 190 -20 190 -20 362 c 0,66,67
 -20 528 -20 528 51.5 635.5 c 128,-1,68
 123 743 123 743 285 795 c 1,69,-1
 285 881 l 2,70,71
 285 1076 285 1076 367 1186 c 0,72,73
 461 1311 461 1311 659 1311 c 1,74,-1
 776 1303 l 1,75,76
 766 1340 766 1340 754.5 1402 c 128,-1,77
 743 1464 743 1464 743 1509 c 0,78,79
 743 1699 743 1699 848 1815 c 0,80,81
 965 1944 965 1944 1194 1944 c 0,82,83
 1413 1944 1413 1944 1521.5 1806 c 128,-1,84
 1630 1668 1630 1668 1630 1430 c 0,0,1
760 1126 m 1,85,86
 729 1136 729 1136 720 1137.5 c 128,-1,87
 711 1139 711 1139 653 1139 c 0,88,89
 534 1139 534 1139 493.5 1068 c 128,-1,90
 453 997 453 997 453 823 c 1,91,-1
 672 838 l 1,92,93
 686 955 686 955 707.5 1013 c 128,-1,94
 729 1071 729 1071 760 1126 c 1,85,86
657 666 m 1,95,96
 610 666 610 666 559 654.5 c 128,-1,97
 508 643 508 643 483 629 c 0,98,99
 409 590 409 590 380.5 514 c 128,-1,100
 352 438 352 438 352 342 c 0,101,102
 352 252 352 252 389 212 c 128,-1,103
 426 172 426 172 498 172 c 0,104,105
 594 172 594 172 631 248 c 0,106,107
 656 301 656 301 655 412 c 2,108,-1
 655 487 l 1,109,-1
 657 666 l 1,95,96
EndSplineSet
EndChar

StartChar: u0B95_u0BC0
Encoding: 151 -1 151
Width: 1916
Flags: HW
AnchorPoint: "V" 948 1902.18 basechar 0
AnchorPoint: "N" 948 -8 basechar 0
LayerCount: 2
Fore
SplineSet
1602 1665 m 0,0,1
 1602 1569 1602 1569 1534 1487 c 0,2,3
 1440 1372 1440 1372 1268 1372 c 0,4,5
 1092 1372 1092 1372 1006 1452 c 0,6,7
 938 1518 938 1518 938 1626 c 0,8,9
 938 1659 938 1659 940 1673 c 1,10,11
 895 1644 895 1644 869.5 1594 c 128,-1,12
 844 1544 844 1544 844 1499 c 0,13,14
 844 1438 844 1438 877.5 1373.5 c 128,-1,15
 911 1309 911 1309 963 1264 c 1,16,-1
 1001 1262 l 2,17,18
 1060 1262 1060 1262 1082 1266 c 128,-1,19
 1104 1270 1104 1270 1142 1293.5 c 128,-1,20
 1180 1317 1180 1317 1217 1317 c 0,21,22
 1283 1317 1283 1317 1282 1251 c 0,23,24
 1282 1222 1282 1222 1260.5 1193.5 c 128,-1,25
 1239 1165 1239 1165 1194 1146.5 c 128,-1,26
 1149 1128 1149 1128 1118 1092.5 c 128,-1,27
 1087 1057 1087 1057 1069 1006 c 0,28,29
 1061 975 1061 975 1059 958 c 0,30,31
 1043 886 1043 886 1042 840 c 1,32,33
 1310 840 1310 840 1456 745.5 c 128,-1,34
 1602 651 1602 651 1602 451 c 0,35,36
 1602 256 1602 256 1497 133 c 0,37,38
 1380 -4 1380 -4 1171 -4 c 0,39,40
 1126 -4 1126 -4 1103.5 15.5 c 128,-1,41
 1081 35 1081 35 1081 63 c 0,42,43
 1081 96 1081 96 1110 115 c 0,44,45
 1184 162 1184 162 1212 274 c 0,46,47
 1230 350 1230 350 1231 455 c 0,48,49
 1231 564 1231 564 1187 607.5 c 128,-1,50
 1143 651 1143 651 1028 662 c 1,51,-1
 1026 473 l 2,52,53
 1026 250 1026 250 903 123 c 128,-1,54
 780 -4 780 -4 537 -4 c 0,55,56
 277 -4 277 -4 128.5 89 c 128,-1,57
 -20 182 -20 182 -20 354 c 0,58,59
 -20 520 -20 520 51.5 627.5 c 128,-1,60
 123 735 123 735 285 786 c 1,61,-1
 285 872 l 2,62,63
 285 1069 285 1069 367 1178 c 0,64,65
 461 1303 461 1303 659 1303 c 2,66,-1
 713 1303 l 1,67,68
 695 1348 695 1348 683.5 1398 c 128,-1,69
 672 1448 672 1448 672 1509 c 0,70,71
 672 1689 672 1689 803 1812 c 0,72,73
 948 1945 948 1945 1200 1946 c 0,74,75
 1360 1946 1360 1946 1482 1866 c 128,-1,76
 1604 1786 1604 1786 1602 1665 c 0,0,1
1243 1626 m 0,77,78
 1243 1702 1243 1702 1169 1702 c 0,79,80
 1089 1702 1089 1702 1090 1630 c 0,81,82
 1090 1554 1090 1554 1163 1554 c 0,83,84
 1202 1554 1202 1554 1221.5 1573.5 c 128,-1,85
 1241 1593 1241 1593 1243 1626 c 0,77,78
760 1116 m 1,86,87
 729 1126 729 1126 720 1127 c 128,-1,88
 711 1128 711 1128 653 1128 c 0,89,90
 534 1128 534 1128 496 1057 c 0,91,92
 478 1026 478 1026 466.5 957.5 c 128,-1,93
 455 889 455 889 455 815 c 1,94,-1
 674 825 l 1,95,96
 688 942 688 942 709.5 1000.5 c 128,-1,97
 731 1059 731 1059 760 1116 c 1,86,87
659 653 m 1,98,99
 612 653 612 653 561 642 c 128,-1,100
 510 631 510 631 485 616 c 0,101,102
 411 577 411 577 382.5 501.5 c 128,-1,103
 354 426 354 426 354 330 c 0,104,105
 354 240 354 240 391 200 c 128,-1,106
 428 160 428 160 500 160 c 0,107,108
 596 160 596 160 633 236 c 0,109,110
 658 289 658 289 657 399 c 2,111,-1
 657 475 l 1,112,-1
 659 653 l 1,98,99
EndSplineSet
EndChar

StartChar: u0B95_u0BC1
Encoding: 152 -1 152
Width: 2344
Flags: HW
AnchorPoint: "V" 948 1305 basechar 0
AnchorPoint: "N" 948 -8 basechar 0
LayerCount: 2
Fore
SplineSet
2030 315 m 0,0,1
 2030 -74 2030 -74 1798 -305 c 0,2,3
 1522 -586 1522 -586 940 -586 c 0,4,5
 465 -586 465 -586 220 -338 c 128,-1,6
 -25 -90 -25 -90 -25 350 c 0,7,8
 -25 669 -25 669 76 874 c 0,9,10
 127 976 127 976 240 1096 c 0,11,12
 279 1135 279 1135 324 1135 c 0,13,14
 392 1135 392 1135 391 1067 c 0,15,16
 391 1036 391 1036 367 993 c 0,17,18
 306 899 306 899 244 805 c 1,19,20
 148 610 148 610 147 340 c 0,21,22
 147 -20 147 -20 379 -221 c 0,23,24
 594 -405 594 -405 938 -406 c 0,25,26
 1286 -406 1286 -406 1472.5 -211 c 128,-1,27
 1659 -16 1659 -16 1659 330 c 0,28,29
 1659 492 1659 492 1615 561.5 c 128,-1,30
 1571 631 1571 631 1456 645 c 1,31,-1
 1454 457 l 2,32,33
 1454 238 1454 238 1330 111 c 128,-1,34
 1206 -16 1206 -16 967 -16 c 0,35,36
 707 -16 707 -16 558.5 77 c 128,-1,37
 410 170 410 170 410 342 c 0,38,39
 410 504 410 504 481.5 611.5 c 128,-1,40
 553 719 553 719 715 770 c 1,41,-1
 715 856 l 2,42,43
 715 1051 715 1051 797 1159 c 0,44,45
 891 1284 891 1284 1092 1284 c 0,46,47
 1180 1284 1180 1284 1245 1270 c 0,48,49
 1399 1237 1399 1237 1432 1237 c 0,50,51
 1491 1237 1491 1237 1512.5 1241 c 128,-1,52
 1534 1245 1534 1245 1577 1268 c 0,53,54
 1610 1291 1610 1291 1647 1290 c 0,55,56
 1713 1290 1713 1290 1712 1229 c 0,57,58
 1712 1198 1712 1198 1690.5 1171.5 c 128,-1,59
 1669 1145 1669 1145 1622 1126 c 0,60,61
 1536 1087 1536 1087 1497 985 c 0,62,63
 1489 956 1489 956 1487 940 c 0,64,65
 1471 868 1471 868 1470 821 c 1,66,67
 1744 821 1744 821 1878 717 c 0,68,69
 2030 598 2030 598 2030 315 c 0,0,1
1190 1116 m 1,70,71
 1159 1126 1159 1126 1150 1127 c 128,-1,72
 1141 1128 1141 1128 1083 1128 c 0,73,74
 964 1128 964 1128 923.5 1056.5 c 128,-1,75
 883 985 883 985 883 811 c 1,76,-1
 1102 825 l 1,77,78
 1104 858 1104 858 1111 903 c 128,-1,79
 1118 948 1118 948 1137.5 1000.5 c 128,-1,80
 1157 1053 1157 1053 1190 1116 c 1,70,71
1085 649 m 1,81,82
 1026 649 1026 649 986 641 c 128,-1,83
 946 633 946 633 909 616 c 0,84,85
 835 573 835 573 806.5 500.5 c 128,-1,86
 778 428 778 428 778 328 c 0,87,88
 778 238 778 238 815 198 c 128,-1,89
 852 158 852 158 924 158 c 0,90,91
 1020 158 1020 158 1057 233 c 0,92,93
 1082 286 1082 286 1081 395 c 2,94,-1
 1081 471 l 1,95,-1
 1085 649 l 1,81,82
EndSplineSet
EndChar

StartChar: u0B95_u0BC2
Encoding: 153 -1 153
Width: 3147
Flags: HW
AnchorPoint: "V" 948 1305 basechar 0
AnchorPoint: "N" 948 -8 basechar 0
LayerCount: 2
Fore
SplineSet
2814 51 m 0,0,1
 2746 20 2746 20 2653 2 c 128,-1,2
 2560 -16 2560 -16 2445 -16 c 0,3,4
 2373 -16 2373 -16 2296.5 -16 c 128,-1,5
 2220 -16 2220 -16 2134 -18 c 2,6,-1
 2077 -18 l 2,7,8
 1848 -18 1848 -18 1718 0 c 0,9,10
 1673 8 1673 8 1673 53 c 0,11,12
 1673 86 1673 86 1706 111 c 0,13,14
 1786 164 1786 164 1837 236 c 0,15,16
 1903 324 1903 324 1903 418 c 0,17,18
 1903 535 1903 535 1837 623 c 0,19,20
 1755 734 1755 734 1608 733 c 1,21,-1
 1563 729 l 1,22,23
 1665 672 1665 672 1705 585 c 128,-1,24
 1745 498 1745 498 1745 373 c 0,25,26
 1745 264 1745 264 1636 135 c 0,27,28
 1507 -17 1507 -17 1356 -16 c 0,29,30
 1188 -16 1188 -16 1111 68 c 128,-1,31
 1034 152 1034 152 1034 289 c 0,32,33
 1034 393 1034 393 1060.5 476 c 128,-1,34
 1087 559 1087 559 1141 631 c 1,35,36
 1116 639 1116 639 1089.5 644 c 128,-1,37
 1063 649 1063 649 1030 649 c 1,38,-1
 1028 461 l 2,39,40
 1028 244 1028 244 905 118 c 128,-1,41
 782 -8 782 -8 539 -8 c 0,42,43
 281 -8 281 -8 130.5 83 c 128,-1,44
 -20 174 -20 174 -20 342 c 0,45,46
 -20 504 -20 504 51.5 608.5 c 128,-1,47
 123 713 123 713 285 764 c 1,48,-1
 285 850 l 2,49,50
 285 1040 285 1040 367 1149 c 0,51,52
 461 1272 461 1272 659 1272 c 0,53,54
 747 1272 747 1272 813 1257 c 0,55,56
 967 1224 967 1224 999 1225 c 0,57,58
 1058 1225 1058 1225 1080 1229 c 128,-1,59
 1102 1233 1102 1233 1145 1256.5 c 128,-1,60
 1188 1280 1188 1280 1219 1280 c 0,61,62
 1280 1280 1280 1280 1280 1219 c 0,63,64
 1280 1188 1280 1188 1258.5 1161.5 c 128,-1,65
 1237 1135 1237 1135 1190 1116 c 0,66,67
 1104 1077 1104 1077 1065 977 c 0,68,69
 1047 918 1047 918 1038 817 c 1,70,71
 1210 817 1210 817 1339 801 c 1,72,73
 1435 854 1435 854 1551 880.5 c 128,-1,74
 1667 907 1667 907 1755 907 c 0,75,76
 2013 907 2013 907 2150 770 c 0,77,78
 2273 647 2273 647 2273 457 c 0,79,80
 2273 389 2273 389 2236 307 c 0,81,82
 2191 207 2191 207 2124 150 c 1,83,84
 2155 150 2155 150 2253 147.5 c 128,-1,85
 2351 145 2351 145 2419 145 c 0,86,87
 2509 145 2509 145 2574.5 157.5 c 128,-1,88
 2640 170 2640 170 2695 198.5 c 128,-1,89
 2750 227 2750 227 2796 227 c 0,90,91
 2892 227 2892 227 2892 147 c 0,92,93
 2892 122 2892 122 2870.5 93.5 c 128,-1,94
 2849 65 2849 65 2814 51 c 0,0,1
1313 367 m 0,95,96
 1313 385 1313 385 1317 422 c 128,-1,97
 1321 459 1321 459 1321 461 c 0,98,99
 1321 498 1321 498 1312 516.5 c 128,-1,100
 1303 535 1303 535 1284 553 c 1,101,102
 1241 500 1241 500 1217.5 435.5 c 128,-1,103
 1194 371 1194 371 1194 291 c 0,104,105
 1194 254 1194 254 1194 221 c 0,106,107
 1198 174 1198 174 1241 174 c 0,108,109
 1274 174 1274 174 1293.5 236.5 c 128,-1,110
 1313 299 1313 299 1313 367 c 0,95,96
752 1104 m 1,111,112
 721 1114 721 1114 711.5 1115 c 128,-1,113
 702 1116 702 1116 645 1116 c 0,114,115
 526 1116 526 1116 487 1044 c 0,116,117
 469 1013 469 1013 457.5 947 c 128,-1,118
 446 881 446 881 446 807 c 1,119,-1
 666 821 l 1,120,121
 674 882 674 882 681 916 c 128,-1,122
 688 950 688 950 698 981 c 0,123,124
 721 1047 721 1047 752 1104 c 1,111,112
649 647 m 1,125,126
 532 647 532 647 465.5 610 c 128,-1,127
 399 573 399 573 370.5 499.5 c 128,-1,128
 342 426 342 426 342 330 c 0,129,130
 342 242 342 242 380 202 c 128,-1,131
 418 162 418 162 485 162 c 0,132,133
 581 162 581 162 618 238 c 0,134,135
 643 291 643 291 643 395 c 2,136,-1
 643 471 l 1,137,-1
 649 647 l 1,125,126
EndSplineSet
EndChar

StartChar: u0B95_u0BC2.old
Encoding: 154 -1 154
Width: 2666
Flags: HW
AnchorPoint: "V" 948 1305 basechar 0
AnchorPoint: "N" 948 -8 basechar 0
LayerCount: 2
Fore
SplineSet
2380 0 m 1,0,-1
 1612 0 l 1,1,-1
 1612 123 l 1,2,3
 1725 189 1725 189 1797.5 258.5 c 128,-1,4
 1870 328 1870 328 1870 424 c 0,5,6
 1870 512 1870 512 1806.5 569.5 c 128,-1,7
 1743 627 1743 627 1651 627 c 0,8,9
 1551 627 1551 627 1484 597 c 128,-1,10
 1417 567 1417 567 1409 520 c 1,11,-1
 1409 0 l 1,12,-1
 1167 0 l 1,13,-1
 1167 627 l 1,14,-1
 926 627 l 1,15,-1
 926 311 l 2,16,17
 926 233 926 233 855 160.5 c 128,-1,18
 784 88 784 88 680 45 c 0,19,20
 627 25 627 25 575.5 14.5 c 128,-1,21
 524 4 524 4 467 4 c 0,22,23
 334 4 334 4 234.5 47 c 128,-1,24
 135 90 135 90 76.5 183 c 128,-1,25
 18 276 18 276 18 412 c 0,26,27
 18 562 18 562 104 651.5 c 128,-1,28
 190 741 190 741 274 754 c 1,29,-1
 274 1288 l 1,30,-1
 1212 1288 l 1,31,-1
 1212 1157 l 1,32,-1
 934 1157 l 1,33,-1
 934 760 l 1,34,-1
 1260 760 l 2,35,36
 1289 760 1289 760 1323.5 742.5 c 128,-1,37
 1358 725 1358 725 1378 692 c 1,38,39
 1468 782 1468 782 1735 782 c 0,40,41
 1903 782 1903 782 2028.5 695 c 128,-1,42
 2154 608 2154 608 2154 444 c 0,43,44
 2154 352 2154 352 2106 273.5 c 128,-1,45
 2058 195 2058 195 1982 135 c 1,46,-1
 2394 135 l 1,47,-1
 2380 0 l 1,0,-1
690 762 m 1,48,-1
 690 1159 l 1,49,-1
 401 1159 l 1,50,-1
 401 762 l 1,51,-1
 690 762 l 1,48,-1
690 307 m 2,52,-1
 690 631 l 1,53,-1
 342 631 l 2,54,55
 281 631 281 631 216.5 573.5 c 128,-1,56
 152 516 152 516 152 393 c 0,57,58
 152 137 152 137 438 137 c 0,59,60
 514 137 514 137 603 191.5 c 128,-1,61
 692 246 692 246 690 307 c 2,52,-1
EndSplineSet
EndChar

StartChar: u0B95_u0BCD
Encoding: 155 -1 155
Width: 1914
Flags: W
AnchorPoint: "N" 948 -8 basechar 0
LayerCount: 2
Fore
SplineSet
1151 1659 m 0,0,1
 1151 1571 1151 1571 1092.5 1515.5 c 128,-1,2
 1034 1460 1034 1460 946 1460 c 0,3,4
 862 1460 862 1460 802.5 1517.5 c 128,-1,5
 743 1575 743 1575 743 1661 c 256,6,7
 743 1747 743 1747 801.5 1805.5 c 128,-1,8
 860 1864 860 1864 948 1864 c 0,9,10
 1034 1864 1034 1864 1093.5 1807.5 c 128,-1,11
 1153 1751 1153 1751 1151 1659 c 0,0,1
1599 446 m 0,12,13
 1599 251 1599 251 1495 129 c 0,14,15
 1378 -8 1378 -8 1169 -8 c 0,16,17
 1124 -8 1124 -8 1101.5 11.5 c 128,-1,18
 1079 31 1079 31 1079 59 c 0,19,20
 1079 92 1079 92 1108 111 c 0,21,22
 1182 158 1182 158 1210 270 c 0,23,24
 1228 346 1228 346 1229 451 c 256,25,26
 1229 555 1229 555 1184 600 c 128,-1,27
 1139 645 1139 645 1028 655 c 1,28,-1
 1026 467 l 2,29,30
 1026 244 1026 244 903 117 c 128,-1,31
 780 -10 780 -10 537 -10 c 0,32,33
 277 -10 277 -10 128.5 83 c 128,-1,34
 -20 176 -20 176 -20 348 c 0,35,36
 -20 516 -20 516 51.5 620.5 c 128,-1,37
 123 725 123 725 285 776 c 1,38,-1
 285 864 l 2,39,40
 285 1059 285 1059 367 1167 c 0,41,42
 461 1292 461 1292 659 1292 c 0,43,44
 749 1292 749 1292 811 1278 c 0,45,46
 971 1241 971 1241 999 1241 c 0,47,48
 1058 1241 1058 1241 1080 1245 c 128,-1,49
 1102 1249 1102 1249 1140 1272.5 c 128,-1,50
 1178 1296 1178 1296 1214 1296 c 0,51,52
 1280 1296 1280 1296 1280 1235 c 0,53,54
 1280 1204 1280 1204 1258.5 1177.5 c 128,-1,55
 1237 1151 1237 1151 1190 1133 c 0,56,57
 1104 1094 1104 1094 1065 991 c 0,58,59
 1057 966 1057 966 1047.5 910 c 128,-1,60
 1038 854 1038 854 1038 829 c 1,61,62
 1306 829 1306 829 1451.5 734 c 128,-1,63
 1597 639 1597 639 1599 446 c 0,12,13
758 1122 m 1,64,65
 727 1132 727 1132 718 1133.5 c 128,-1,66
 709 1135 709 1135 651 1135 c 0,67,68
 590 1135 590 1135 553 1119.5 c 128,-1,69
 516 1104 516 1104 494.5 1067 c 128,-1,70
 473 1030 473 1030 462 963.5 c 128,-1,71
 451 897 451 897 451 821 c 1,72,-1
 670 836 l 1,73,74
 678 902 678 902 685 938.5 c 128,-1,75
 692 975 692 975 701.5 1000.5 c 128,-1,76
 711 1026 711 1026 725.5 1056.5 c 128,-1,77
 740 1087 740 1087 758 1122 c 1,64,65
653 662 m 1,78,79
 606 662 606 662 555 650.5 c 128,-1,80
 504 639 504 639 479 625 c 0,81,82
 405 586 405 586 376.5 510 c 128,-1,83
 348 434 348 434 348 338 c 0,84,85
 348 248 348 248 385 208 c 128,-1,86
 422 168 422 168 494 168 c 0,87,88
 590 168 590 168 627 244 c 0,89,90
 652 297 652 297 651 408 c 2,91,-1
 651 483 l 1,92,-1
 653 662 l 1,78,79
EndSplineSet
EndChar

StartChar: u0B99
Encoding: 156 2969 156
Width: 2402
Flags: HW
AnchorPoint: "V" 948 1305 basechar 0
AnchorPoint: "N" 948 -0.415094 basechar 0
LayerCount: 2
Fore
SplineSet
2081 1221 m 0,0,1
 2009 1102 2009 1102 2009 920 c 2,2,-1
 2009 422 l 2,3,4
 2009 217 2009 217 1880 100.5 c 128,-1,5
 1751 -16 1751 -16 1556 -16 c 0,6,7
 1505 -14 1505 -14 1475 -12 c 0,8,9
 1237 6 1237 6 1141 6 c 0,10,11
 1108 6 1108 6 1078.5 6 c 128,-1,12
 1049 6 1049 6 1018 2 c 0,13,14
 965 -6 965 -6 924 12.5 c 128,-1,15
 883 31 883 31 883 72 c 0,16,17
 883 97 883 97 902.5 126.5 c 128,-1,18
 922 156 922 156 961.5 189.5 c 128,-1,19
 1001 223 1001 223 1025 284.5 c 128,-1,20
 1049 346 1049 346 1049 428 c 0,21,22
 1049 543 1049 543 1013 609.5 c 128,-1,23
 977 676 977 676 915 676 c 0,24,25
 876 676 876 676 831 647 c 1,26,-1
 827 387 l 2,27,28
 827 188 827 188 709 80 c 0,29,30
 607 -10 607 -10 459 -10 c 0,31,32
 369 -10 369 -10 369 43 c 0,33,34
 369 72 369 72 387 100 c 0,35,36
 424 159 424 159 442.5 233 c 128,-1,37
 461 307 461 307 461 395 c 0,38,39
 461 481 461 481 465 578.5 c 128,-1,40
 469 676 469 676 473 805 c 0,41,42
 473 879 473 879 498.5 951.5 c 128,-1,43
 524 1024 524 1024 569 1106 c 1,44,45
 532 1116 532 1116 518 1117 c 128,-1,46
 504 1118 504 1118 444 1118 c 0,47,48
 348 1118 348 1118 304 1049.5 c 128,-1,49
 260 981 260 981 260 805 c 0,50,51
 260 502 260 502 240.5 339 c 128,-1,52
 221 176 221 176 147 49 c 0,53,54
 108 -19 108 -19 49 -18 c 0,55,56
 -17 -18 -17 -18 -16 47 c 0,57,58
 -16 84 -16 84 6 117 c 0,59,60
 57 211 57 211 73.5 346 c 128,-1,61
 90 481 90 481 90 686 c 2,62,-1
 90 858 l 2,63,64
 90 1055 90 1055 180 1169.5 c 128,-1,65
 270 1284 270 1284 453 1284 c 0,66,67
 549 1284 549 1284 648.5 1258.5 c 128,-1,68
 748 1233 748 1233 807 1233 c 256,69,70
 866 1233 866 1233 887.5 1237 c 128,-1,71
 909 1241 909 1241 947 1264.5 c 128,-1,72
 985 1288 985 1288 1022 1288 c 0,73,74
 1088 1288 1088 1288 1087 1227 c 0,75,76
 1087 1196 1087 1196 1065.5 1169.5 c 128,-1,77
 1044 1143 1044 1143 997 1124 c 0,78,79
 927 1093 927 1093 893.5 1016.5 c 128,-1,80
 860 940 860 940 846 823 c 1,81,82
 946 868 946 868 1051 868 c 0,83,84
 1207 868 1207 868 1314 758.5 c 128,-1,85
 1421 649 1421 649 1421 444 c 0,86,87
 1421 362 1421 362 1374 288.5 c 128,-1,88
 1327 215 1327 215 1260 158 c 1,89,90
 1317 150 1317 150 1362 150 c 0,91,92
 1458 150 1458 150 1563 193 c 0,93,94
 1620 216 1620 216 1636 326 c 0,95,96
 1644 383 1644 383 1645 512 c 2,97,-1
 1645 928 l 2,98,99
 1645 1125 1645 1125 1763 1235 c 0,100,101
 1867 1331 1867 1331 2013 1331 c 0,102,103
 2103 1331 2103 1331 2103 1278 c 0,104,105
 2104 1254 2104 1254 2081 1221 c 0,0,1
EndSplineSet
EndChar

StartChar: u0B99_u0BBF
Encoding: 157 -1 157
Width: 2748
Flags: HW
AnchorPoint: "V" 948 1305 basechar 0
AnchorPoint: "N" 948 -0.415094 basechar 0
LayerCount: 2
Fore
SplineSet
2433 1430 m 0,0,1
 2433 1330 2433 1330 2416.5 1245.5 c 128,-1,2
 2400 1161 2400 1161 2363 1022 c 1,3,4
 2363 989 2363 989 2392 952 c 128,-1,5
 2421 915 2421 915 2421 887 c 0,6,7
 2421 848 2421 848 2392 819.5 c 128,-1,8
 2363 791 2363 791 2320 791 c 0,9,10
 2267 791 2267 791 2230 842 c 128,-1,11
 2193 893 2193 893 2202 944 c 0,12,13
 2245 1143 2245 1143 2290 1346 c 1,14,15
 2290 1483 2290 1483 2224 1554 c 0,16,17
 2150 1634 2150 1634 2005 1634 c 0,18,19
 1866 1634 1866 1634 1797.5 1568.5 c 128,-1,20
 1729 1503 1729 1503 1729 1399 c 0,21,22
 1729 1366 1729 1366 1737 1328 c 128,-1,23
 1745 1290 1745 1290 1763 1260 c 1,24,25
 1867 1356 1867 1356 2013 1356 c 0,26,27
 2103 1356 2103 1356 2103 1298 c 0,28,29
 2103 1280 2103 1280 2081 1243 c 0,30,31
 2009 1124 2009 1124 2009 940 c 2,32,-1
 2009 436 l 2,33,34
 2009 227 2009 227 1882 108.5 c 128,-1,35
 1755 -10 1755 -10 1559 -10 c 1,36,37
 1473 0 1473 0 1421 2 c 0,38,39
 1261 14 1261 14 1147 14 c 0,40,41
 1067 14 1067 14 1016 6 c 0,42,43
 963 -2 963 -2 922 16.5 c 128,-1,44
 881 35 881 35 881 76 c 0,45,46
 881 129 881 129 965 200.5 c 128,-1,47
 1049 272 1049 272 1049 440 c 0,48,49
 1049 557 1049 557 1015 623.5 c 128,-1,50
 981 690 981 690 915 690 c 0,51,52
 876 690 876 690 831 662 c 1,53,-1
 827 399 l 2,54,55
 827 196 827 196 709 88 c 0,56,57
 607 -6 607 -6 459 -6 c 0,58,59
 369 -6 369 -6 369 51 c 0,60,61
 369 76 369 76 387 106 c 0,62,63
 424 165 424 165 442.5 239 c 128,-1,64
 461 313 461 313 461 403 c 0,65,66
 461 491 461 491 465 588.5 c 128,-1,67
 469 686 469 686 473 815 c 0,68,69
 473 895 473 895 502 977 c 0,70,71
 520 1030 520 1030 567 1120 c 1,72,73
 530 1130 530 1130 516 1131.5 c 128,-1,74
 502 1133 502 1133 442 1133 c 0,75,76
 346 1133 346 1133 302 1064 c 128,-1,77
 258 995 258 995 258 813 c 0,78,79
 258 508 258 508 238.5 343 c 128,-1,80
 219 178 219 178 145 47 c 0,81,82
 106 -21 106 -21 47 -20 c 0,83,84
 -19 -20 -19 -20 -18 47 c 0,85,86
 -18 80 -18 80 4 117 c 0,87,88
 57 211 57 211 72.5 348 c 128,-1,89
 88 485 88 485 88 694 c 2,90,-1
 88 868 l 2,91,92
 88 1069 88 1069 178 1183.5 c 128,-1,93
 268 1298 268 1298 451 1298 c 0,94,95
 541 1298 541 1298 608 1284 c 0,96,97
 774 1251 774 1251 805 1251 c 0,98,99
 864 1251 864 1251 885.5 1255.5 c 128,-1,100
 907 1260 907 1260 945 1283.5 c 128,-1,101
 983 1307 983 1307 1020 1307 c 0,102,103
 1086 1307 1086 1307 1085 1241 c 0,104,105
 1085 1210 1085 1210 1063.5 1183.5 c 128,-1,106
 1042 1157 1042 1157 995 1139 c 0,107,108
 925 1108 925 1108 891.5 1031 c 128,-1,109
 858 954 858 954 844 836 c 1,110,111
 944 881 944 881 1049 881 c 0,112,113
 1209 881 1209 881 1309 776 c 0,114,115
 1420 659 1420 659 1419 451 c 0,116,117
 1419 369 1419 369 1372 295 c 128,-1,118
 1325 221 1325 221 1257 162 c 1,119,120
 1314 154 1314 154 1362 154 c 0,121,122
 1413 154 1413 154 1458 162 c 128,-1,123
 1503 170 1503 170 1560.5 193.5 c 128,-1,124
 1618 217 1618 217 1634 332 c 0,125,126
 1642 389 1642 389 1642 520 c 2,127,-1
 1642 938 l 2,128,129
 1642 1049 1642 1049 1675 1124 c 1,130,131
 1601 1212 1601 1212 1572.5 1303.5 c 128,-1,132
 1544 1395 1544 1395 1544 1505 c 0,133,134
 1544 1695 1544 1695 1649 1810 c 0,135,136
 1766 1939 1766 1939 1995 1939 c 0,137,138
 2214 1939 2214 1939 2322.5 1801 c 128,-1,139
 2431 1663 2431 1663 2433 1430 c 0,0,1
EndSplineSet
EndChar

